<svg width="47" height="20" viewBox="0 0 47 20" fill="none" xmlns="http://www.w3.org/2000/svg">
<path d="M4.84598 10.7804C4.84598 13.7128 5.58559 14.7611 8.69565 14.7611C9.64583 14.8305 10.599 14.6734 11.4753 14.3029C11.8363 14.078 12.126 13.7569 12.3113 13.3764C12.4966 12.9958 12.57 12.5713 12.5231 12.1513H10.0775C10.0516 12.9858 9.48087 13.0713 8.69565 13.0713C7.56158 13.0713 7.3397 12.6144 7.3397 11.2166V11.158H12.5268V10.7804C12.5268 7.58423 11.6541 6.78395 8.69441 6.78395C5.52395 6.78395 4.84598 7.76139 4.84598 10.7804ZM8.65004 8.47492C9.54866 8.47492 10.0331 8.56289 10.0331 9.7859V9.84455H7.34093C7.37051 8.79869 7.58746 8.47492 8.65004 8.47492ZM38.8199 2.35005H6.22042C5.19624 2.33764 4.18599 2.58602 3.2864 3.07142C2.38681 3.55682 1.62799 4.26299 1.0826 5.12231C0.295449 6.8822 -0.0711382 8.79846 0.0113982 10.7218C-0.0711382 12.6451 0.295449 14.5614 1.0826 16.3213C1.62885 17.1795 2.38798 17.8845 3.28747 18.369C4.18696 18.8534 5.19677 19.1012 6.22042 19.0887H38.8199C39.8434 19.1011 40.853 18.8533 41.7523 18.3688C42.6516 17.8843 43.4105 17.1794 43.9565 16.3213C44.744 14.5615 45.111 12.6452 45.029 10.7218C45.111 8.79877 44.744 6.88294 43.9565 5.12353C43.4115 4.26408 42.6529 3.55772 41.7536 3.0721C40.8542 2.58648 39.844 2.33786 38.8199 2.35005ZM23.4472 17.6164H6.63583C5.28552 17.5906 3.99427 17.0629 3.01791 16.138C1.85871 14.578 1.31546 12.6515 1.49062 10.7218C1.31584 8.79178 1.85904 6.86501 3.01791 5.30436C3.99453 4.37987 5.28562 3.8523 6.63583 3.82598H23.4472V17.6164ZM33.104 11.0651H27.9169V11.147C27.9169 12.5496 28.14 13.0286 29.295 13.0286C30.0728 13.0286 30.6645 12.943 30.7015 12.1073H33.1028C33.146 12.5204 33.0714 12.9373 32.8872 13.3104C32.703 13.6834 32.4168 13.9977 32.0611 14.2174C31.1873 14.5875 30.2365 14.7442 29.2888 14.6743C26.1948 14.6743 25.4675 13.6346 25.4675 10.7132C25.4675 7.70152 26.1369 6.7363 29.2888 6.7363C32.2362 6.7363 33.0978 7.5268 33.0978 10.7132L33.104 11.0651ZM40.807 8.55067H38.9839V14.6682H36.4877V8.55067H34.6633V6.76807H40.807V8.55067ZM30.6583 9.7297V9.81401H27.9144C27.9452 8.74616 28.1511 8.39306 29.2506 8.39306C30.1554 8.39306 30.6596 8.48591 30.6596 9.7297M19.4607 12.4543C19.4607 12.0487 19.3374 11.8251 19.0822 11.7127C18.7405 11.6177 18.3847 11.5826 18.0308 11.6088C14.7259 11.6088 14.1811 10.8757 14.1811 9.31673C14.1811 6.83282 15.7984 6.78395 18.0308 6.78395C19.5174 6.78395 21.4995 6.80961 21.4995 8.68384V9.00151H19.1476C19.0329 8.38206 18.5312 8.33808 18.0308 8.33808C16.6612 8.33808 16.6021 8.50668 16.6021 9.03083C16.6021 9.47435 16.681 9.75414 18.0295 9.78346C20.7414 9.84455 21.8804 9.99727 21.8804 12.1513C21.8804 14.4116 20.1349 14.7598 18.0308 14.7598C17.5155 14.7598 17.0138 14.7598 16.5515 14.7268C15.0255 14.6047 14.1996 14.0414 14.1811 12.3162H16.6785C16.7081 13.1923 17.375 13.2057 18.0344 13.2057C19.2129 13.2057 19.4644 13.1324 19.4644 12.4531M45.0302 1.04884C45.2911 1.04884 45.5461 1.12551 45.763 1.26916C45.9799 1.41281 46.1489 1.61699 46.2488 1.85587C46.3486 2.09475 46.3747 2.35761 46.3238 2.61121C46.2729 2.8648 46.1473 3.09775 45.9628 3.28058C45.7784 3.46341 45.5434 3.58792 45.2875 3.63836C45.0317 3.68881 44.7665 3.66292 44.5254 3.56397C44.2844 3.46502 44.0784 3.29746 43.9335 3.08247C43.7886 2.86748 43.7112 2.61473 43.7112 2.35616C43.7116 2.00954 43.8506 1.6772 44.0979 1.4321C44.3452 1.187 44.6805 1.04916 45.0302 1.04884ZM45.0302 0.761719C44.7133 0.761719 44.4034 0.854873 44.1399 1.0294C43.8764 1.20393 43.671 1.45199 43.5497 1.74222C43.4284 2.03245 43.3967 2.35182 43.4585 2.65992C43.5203 2.96803 43.673 3.25104 43.8971 3.47318C44.1212 3.69531 44.4067 3.84658 44.7176 3.90787C45.0284 3.96916 45.3506 3.9377 45.6434 3.81748C45.9363 3.69727 46.1865 3.49369 46.3626 3.23249C46.5387 2.97128 46.6327 2.6642 46.6327 2.35005C46.6327 1.9288 46.4638 1.5248 46.1633 1.22693C45.8628 0.929061 45.4552 0.761719 45.0302 0.761719ZM45.0413 2.56753H44.7849V3.14789H44.4558V1.562H45.0499C45.2056 1.55169 45.3601 1.59483 45.4875 1.68417C45.539 1.72744 45.5798 1.78195 45.6065 1.84342C45.6332 1.90489 45.6452 1.97166 45.6416 2.0385C45.6454 2.13377 45.621 2.22805 45.5713 2.30973C45.5155 2.38649 45.439 2.44617 45.3507 2.48201L45.7205 3.13078V3.14544H45.3667L45.0413 2.56753ZM44.7849 2.3024H45.0511C45.1211 2.30653 45.19 2.28378 45.2435 2.23887C45.2666 2.21671 45.2847 2.18983 45.2964 2.16009C45.3081 2.13036 45.3132 2.09846 45.3112 2.0666C45.3153 2.00235 45.2936 1.93913 45.2508 1.89066C45.2239 1.86754 45.1926 1.84993 45.1587 1.83882C45.1249 1.82771 45.0892 1.82332 45.0536 1.8259H44.7886L44.7849 2.3024Z" fill="white"/>
</svg>
