<svg width="264" height="20" viewBox="0 0 264 20" fill="none" xmlns="http://www.w3.org/2000/svg">
	<path
		d="M4.84598 10.0187C4.84598 12.951 5.58559 13.9993 8.69565 13.9993C9.64583 14.0687 10.599 13.9116 11.4753 13.5412C11.8363 13.3163 12.126 12.9952 12.3113 12.6147C12.4966 12.2341 12.57 11.8096 12.5231 11.3896H10.0775C10.0516 12.2241 9.48087 12.3096 8.69565 12.3096C7.56158 12.3096 7.3397 11.8526 7.3397 10.4549V10.3963H12.5268V10.0187C12.5268 6.82251 11.6541 6.02223 8.69441 6.02223C5.52395 6.02223 4.84598 6.99967 4.84598 10.0187ZM8.65004 7.7132C9.54866 7.7132 10.0331 7.80117 10.0331 9.02419V9.08283H7.34093C7.37051 8.03697 7.58746 7.7132 8.65004 7.7132ZM38.8199 1.58833H6.22042C5.19624 1.57592 4.18599 1.8243 3.2864 2.30971C2.38681 2.79511 1.62799 3.50127 1.0826 4.36059C0.295449 6.12048 -0.0711382 8.03674 0.0113982 9.96008C-0.0711382 11.8834 0.295449 13.7997 1.0826 15.5596C1.62885 16.4177 2.38798 17.1227 3.28747 17.6072C4.18696 18.0917 5.19677 18.3395 6.22042 18.3269H38.8199C39.8434 18.3394 40.853 18.0916 41.7523 17.6071C42.6516 17.1226 43.4105 16.4176 43.9565 15.5596C44.744 13.7997 45.111 11.8835 45.029 9.96008C45.111 8.03705 44.744 6.12122 43.9565 4.36181C43.4115 3.50236 42.6529 2.796 41.7536 2.31038C40.8542 1.82476 39.844 1.57614 38.8199 1.58833ZM23.4472 16.8547H6.63583C5.28552 16.8288 3.99427 16.3012 3.01791 15.3763C1.85871 13.8163 1.31546 11.8898 1.49062 9.96008C1.31584 8.03006 1.85904 6.10329 3.01791 4.54264C3.99453 3.61815 5.28562 3.09058 6.63583 3.06426H23.4472V16.8547ZM33.104 10.3034H27.9169V10.3853C27.9169 11.7879 28.14 12.2668 29.295 12.2668C30.0728 12.2668 30.6645 12.1813 30.7015 11.3456H33.1028C33.146 11.7587 33.0714 12.1756 32.8872 12.5486C32.703 12.9217 32.4168 13.236 32.0611 13.4556C31.1873 13.8258 30.2365 13.9825 29.2888 13.9126C26.1948 13.9126 25.4675 12.8728 25.4675 9.95153C25.4675 6.9398 26.1369 5.97458 29.2888 5.97458C32.2362 5.97458 33.0978 6.76509 33.0978 9.95153L33.104 10.3034ZM40.807 7.78895H38.9839V13.9065H36.4877V7.78895H34.6633V6.00635H40.807V7.78895ZM30.6583 8.96798V9.05229H27.9144C27.9452 7.98444 28.1511 7.63134 29.2506 7.63134C30.1554 7.63134 30.6596 7.72419 30.6596 8.96798M19.4607 11.6926C19.4607 11.287 19.3374 11.0634 19.0822 10.951C18.7405 10.856 18.3847 10.8209 18.0308 10.8471C14.7259 10.8471 14.1811 10.114 14.1811 8.55502C14.1811 6.0711 15.7984 6.02223 18.0308 6.02223C19.5174 6.02223 21.4995 6.04789 21.4995 7.92213V8.23979H19.1476C19.0329 7.62034 18.5312 7.57636 18.0308 7.57636C16.6612 7.57636 16.6021 7.74497 16.6021 8.26912C16.6021 8.71263 16.681 8.99242 18.0295 9.02174C20.7414 9.08283 21.8804 9.23556 21.8804 11.3896C21.8804 13.6499 20.1349 13.9981 18.0308 13.9981C17.5155 13.9981 17.0138 13.9981 16.5515 13.9651C15.0255 13.8429 14.1996 13.2797 14.1811 11.5545H16.6785C16.7081 12.4306 17.375 12.444 18.0344 12.444C19.2129 12.444 19.4644 12.3707 19.4644 11.6914M45.0302 0.287122C45.2911 0.287122 45.5461 0.363795 45.763 0.507446C45.9799 0.651096 46.1489 0.855272 46.2488 1.09415C46.3486 1.33304 46.3747 1.59589 46.3238 1.84949C46.2729 2.10309 46.1473 2.33603 45.9628 2.51886C45.7784 2.70169 45.5434 2.8262 45.2875 2.87665C45.0317 2.92709 44.7665 2.9012 44.5254 2.80225C44.2844 2.7033 44.0784 2.53574 43.9335 2.32075C43.7886 2.10576 43.7112 1.85301 43.7112 1.59444C43.7116 1.24782 43.8506 0.915485 44.0979 0.670385C44.3452 0.425285 44.6805 0.287446 45.0302 0.287122ZM45.0302 0C44.7133 0 44.4034 0.0931542 44.1399 0.267683C43.8764 0.442211 43.671 0.690275 43.5497 0.980505C43.4284 1.27074 43.3967 1.5901 43.4585 1.8982C43.5203 2.20631 43.673 2.48932 43.8971 2.71146C44.1212 2.93359 44.4067 3.08486 44.7176 3.14615C45.0284 3.20744 45.3506 3.17598 45.6434 3.05576C45.9363 2.93555 46.1865 2.73197 46.3626 2.47077C46.5387 2.20957 46.6327 1.90248 46.6327 1.58833C46.6327 1.16708 46.4638 0.763083 46.1633 0.465212C45.8628 0.167342 45.4552 0 45.0302 0ZM45.0413 1.80581H44.7849V2.38617H44.4558V0.800276H45.0499C45.2056 0.78997 45.3601 0.833114 45.4875 0.922456C45.539 0.965726 45.5798 1.02023 45.6065 1.0817C45.6332 1.14317 45.6452 1.20994 45.6416 1.27678C45.6454 1.37205 45.621 1.46633 45.5713 1.54802C45.5155 1.62477 45.439 1.68445 45.3507 1.72029L45.7205 2.36906V2.38372H45.3667L45.0413 1.80581ZM44.7849 1.54068H45.0511C45.1211 1.54481 45.19 1.52206 45.2435 1.47715C45.2666 1.45499 45.2847 1.42811 45.2964 1.39838C45.3081 1.36864 45.3132 1.33674 45.3112 1.30488C45.3153 1.24064 45.2936 1.17741 45.2508 1.12894C45.2239 1.10583 45.1926 1.08821 45.1587 1.0771C45.1249 1.06599 45.0892 1.0616 45.0536 1.06418H44.7886L44.7849 1.54068Z"
		fill="white" />
	<path
		d="M54.8287 16V5.61955H57.7821C58.6797 5.61955 59.3915 5.83913 59.9175 6.27828C60.4436 6.71744 60.7066 7.2893 60.7066 7.99388C60.7066 8.58264 60.5473 9.09418 60.2288 9.52851C59.9103 9.96284 59.4712 10.2717 58.9114 10.4551V10.484C59.6111 10.5661 60.1709 10.8315 60.5908 11.2803C61.0106 11.7243 61.2205 12.3034 61.2205 13.0176C61.2205 13.9056 60.902 14.6246 60.265 15.1748C59.628 15.7249 58.8245 16 57.8545 16H54.8287ZM56.0448 6.71985V10.0714H57.2899C57.9558 10.0714 58.4794 9.91216 58.8607 9.59366C59.2419 9.27032 59.4325 8.81669 59.4325 8.23276C59.4325 7.22415 58.769 6.71985 57.4419 6.71985H56.0448ZM56.0448 11.1645V14.8997H57.6952C58.4095 14.8997 58.962 14.7308 59.3529 14.393C59.7486 14.0552 59.9465 13.5919 59.9465 13.0031C59.9465 11.7774 59.1116 11.1645 57.4419 11.1645H56.0448ZM70.7685 16H69.3208L67.5834 13.09C67.4242 12.8198 67.2698 12.5905 67.1202 12.4023C66.9706 12.2093 66.8161 12.0524 66.6569 11.9318C66.5025 11.8111 66.3335 11.7243 66.1502 11.6712C65.9716 11.6133 65.7689 11.5843 65.5421 11.5843H64.5431V16H63.327V5.61955H66.4252C66.8789 5.61955 67.2963 5.67746 67.6776 5.79328C68.0636 5.90428 68.3966 6.0756 68.6765 6.30724C68.9612 6.53888 69.1832 6.82843 69.3425 7.1759C69.5017 7.51853 69.5814 7.92149 69.5814 8.38478C69.5814 8.74672 69.5259 9.0797 69.4149 9.38373C69.3087 9.68294 69.1543 9.95077 68.9516 10.1872C68.7537 10.4237 68.5124 10.6264 68.2277 10.7953C67.9478 10.9594 67.6317 11.0873 67.2794 11.179V11.2079C67.4531 11.2851 67.6027 11.3744 67.7282 11.4757C67.8585 11.5723 67.9816 11.6881 68.0974 11.8232C68.2132 11.9583 68.3266 12.1128 68.4376 12.2865C68.5534 12.4554 68.6813 12.6533 68.8213 12.8801L70.7685 16ZM64.5431 6.71985V10.484H66.1936C66.4976 10.484 66.7775 10.4382 67.0333 10.3465C67.2939 10.2548 67.5183 10.1245 67.7065 9.9556C67.8947 9.78187 68.0419 9.57194 68.1481 9.32582C68.2542 9.07488 68.3073 8.79497 68.3073 8.48612C68.3073 7.93114 68.1264 7.49923 67.7644 7.19037C67.4073 6.87669 66.8885 6.71985 66.2081 6.71985H64.5431ZM76.2411 16.1737C74.7692 16.1737 73.5892 15.6887 72.7013 14.7187C71.8181 13.7487 71.3766 12.4868 71.3766 10.9328C71.3766 9.26308 71.8278 7.93114 72.7302 6.93701C73.6327 5.94289 74.8609 5.44582 76.4148 5.44582C77.8481 5.44582 79.0015 5.92841 79.8749 6.89358C80.7532 7.85876 81.1924 9.12072 81.1924 10.6795C81.1924 12.3734 80.7436 13.7125 79.846 14.697C78.9484 15.6815 77.7467 16.1737 76.2411 16.1737ZM76.3279 6.54612C75.2373 6.54612 74.3517 6.93943 73.6713 7.72604C72.9908 8.51266 72.6506 9.5454 72.6506 10.8243C72.6506 12.1031 72.9812 13.1334 73.6423 13.9152C74.3083 14.6922 75.1745 15.0807 76.2411 15.0807C77.38 15.0807 78.2776 14.7091 78.9339 13.9659C79.5902 13.2227 79.9184 12.1827 79.9184 10.846C79.9184 9.47542 79.5999 8.41614 78.9628 7.66813C78.3258 6.92012 77.4475 6.54612 76.3279 6.54612ZM95.1778 5.61955L92.2461 16H90.82L88.6846 8.41373C88.5929 8.0904 88.5374 7.73811 88.5181 7.35687H88.4891C88.4602 7.71398 88.3974 8.06144 88.3009 8.39925L86.151 16H84.7394L81.6991 5.61955H83.0383L85.2461 13.5822C85.3378 13.9152 85.3957 14.2627 85.4199 14.6246H85.4561C85.4802 14.3689 85.555 14.0214 85.6805 13.5822L87.9752 5.61955H89.1406L91.3412 13.6401C91.4184 13.9152 91.4763 14.2386 91.5149 14.6101H91.5439C91.5632 14.3592 91.6283 14.0262 91.7393 13.6112L93.8603 5.61955H95.1778ZM96.2419 15.5801V14.1469C96.406 14.2916 96.6014 14.4219 96.8282 14.5378C97.0599 14.6536 97.3012 14.7525 97.5521 14.8346C97.8079 14.9118 98.0636 14.9721 98.3194 15.0155C98.5752 15.059 98.8117 15.0807 99.0288 15.0807C99.7768 15.0807 100.334 14.9431 100.701 14.6681C101.073 14.3882 101.258 13.9876 101.258 13.4664C101.258 13.1865 101.196 12.9428 101.07 12.7353C100.95 12.5278 100.781 12.3396 100.563 12.1707C100.346 11.9969 100.088 11.8329 99.7889 11.6784C99.4945 11.5192 99.176 11.3527 98.8334 11.179C98.4714 10.9956 98.1336 10.8098 97.8199 10.6216C97.5063 10.4334 97.2336 10.2258 97.002 9.99903C96.7703 9.77221 96.5869 9.51644 96.4518 9.23172C96.3215 8.94216 96.2564 8.60435 96.2564 8.21828C96.2564 7.74535 96.3601 7.33515 96.5676 6.98769C96.7751 6.6354 97.0478 6.34585 97.3856 6.11903C97.7234 5.89221 98.1071 5.72331 98.5366 5.61231C98.9709 5.50132 99.4125 5.44582 99.8613 5.44582C100.884 5.44582 101.63 5.56888 102.098 5.815V7.18313C101.485 6.75846 100.699 6.54612 99.7382 6.54612C99.4728 6.54612 99.2074 6.57507 98.942 6.63298C98.6765 6.68607 98.4401 6.77535 98.2325 6.90082C98.025 7.02629 97.8561 7.18796 97.7258 7.38582C97.5955 7.58368 97.5304 7.82497 97.5304 8.1097C97.5304 8.37512 97.5786 8.60435 97.6752 8.79739C97.7765 8.99042 97.9237 9.16657 98.1167 9.32582C98.3098 9.48507 98.5438 9.6395 98.8189 9.7891C99.0988 9.93871 99.4197 10.1028 99.7817 10.2813C100.153 10.4647 100.506 10.6578 100.839 10.8604C101.172 11.0631 101.463 11.2875 101.714 11.5337C101.965 11.7798 102.163 12.0524 102.308 12.3516C102.458 12.6508 102.532 12.9935 102.532 13.3796C102.532 13.8911 102.431 14.3254 102.228 14.6825C102.031 15.0348 101.76 15.322 101.418 15.544C101.08 15.7659 100.689 15.9252 100.245 16.0217C99.801 16.1231 99.3328 16.1737 98.8406 16.1737C98.6765 16.1737 98.4738 16.1593 98.2325 16.1303C97.9913 16.1062 97.7451 16.0676 97.4942 16.0145C97.2432 15.9662 97.0044 15.9059 96.7775 15.8335C96.5556 15.7563 96.377 15.6718 96.2419 15.5801ZM110.104 16H104.603V5.61955H109.873V6.71985H105.819V10.1728H109.569V11.2658H105.819V14.8997H110.104V16ZM119.544 16H118.096L116.359 13.09C116.199 12.8198 116.045 12.5905 115.895 12.4023C115.746 12.2093 115.591 12.0524 115.432 11.9318C115.278 11.8111 115.109 11.7243 114.925 11.6712C114.747 11.6133 114.544 11.5843 114.317 11.5843H113.318V16H112.102V5.61955H115.2C115.654 5.61955 116.071 5.67746 116.453 5.79328C116.839 5.90428 117.172 6.0756 117.452 6.30724C117.736 6.53888 117.958 6.82843 118.118 7.1759C118.277 7.51853 118.356 7.92149 118.356 8.38478C118.356 8.74672 118.301 9.0797 118.19 9.38373C118.084 9.68294 117.929 9.95077 117.727 10.1872C117.529 10.4237 117.288 10.6264 117.003 10.7953C116.723 10.9594 116.407 11.0873 116.054 11.179V11.2079C116.228 11.2851 116.378 11.3744 116.503 11.4757C116.634 11.5723 116.757 11.6881 116.872 11.8232C116.988 11.9583 117.102 12.1128 117.213 12.2865C117.329 12.4554 117.456 12.6533 117.596 12.8801L119.544 16ZM113.318 6.71985V10.484H114.969C115.273 10.484 115.553 10.4382 115.808 10.3465C116.069 10.2548 116.293 10.1245 116.482 9.9556C116.67 9.78187 116.817 9.57194 116.923 9.32582C117.029 9.07488 117.082 8.79497 117.082 8.48612C117.082 7.93114 116.901 7.49923 116.539 7.19037C116.182 6.87669 115.664 6.71985 114.983 6.71985H113.318ZM126.261 12.0766V16H125.045V5.61955H127.897C129.007 5.61955 129.866 5.8898 130.474 6.4303C131.087 6.9708 131.394 7.73328 131.394 8.71776C131.394 9.70224 131.053 10.5082 130.373 11.1355C129.697 11.7629 128.783 12.0766 127.629 12.0766H126.261ZM126.261 6.71985V10.9763H127.535C128.375 10.9763 129.014 10.7856 129.454 10.4044C129.898 10.0183 130.119 9.47542 130.119 8.77567C130.119 7.40512 129.309 6.71985 127.687 6.71985H126.261ZM140.797 16H139.349L137.612 13.09C137.452 12.8198 137.298 12.5905 137.148 12.4023C136.999 12.2093 136.844 12.0524 136.685 11.9318C136.531 11.8111 136.362 11.7243 136.178 11.6712C136 11.6133 135.797 11.5843 135.57 11.5843H134.571V16H133.355V5.61955H136.453C136.907 5.61955 137.325 5.67746 137.706 5.79328C138.092 5.90428 138.425 6.0756 138.705 6.30724C138.989 6.53888 139.211 6.82843 139.371 7.1759C139.53 7.51853 139.61 7.92149 139.61 8.38478C139.61 8.74672 139.554 9.0797 139.443 9.38373C139.337 9.68294 139.182 9.95077 138.98 10.1872C138.782 10.4237 138.541 10.6264 138.256 10.7953C137.976 10.9594 137.66 11.0873 137.308 11.179V11.2079C137.481 11.2851 137.631 11.3744 137.756 11.4757C137.887 11.5723 138.01 11.6881 138.126 11.8232C138.241 11.9583 138.355 12.1128 138.466 12.2865C138.582 12.4554 138.71 12.6533 138.849 12.8801L140.797 16ZM134.571 6.71985V10.484H136.222C136.526 10.484 136.806 10.4382 137.062 10.3465C137.322 10.2548 137.547 10.1245 137.735 9.9556C137.923 9.78187 138.07 9.57194 138.176 9.32582C138.282 9.07488 138.336 8.79497 138.336 8.48612C138.336 7.93114 138.155 7.49923 137.793 7.19037C137.436 6.87669 136.917 6.71985 136.236 6.71985H134.571ZM143.446 16H142.23V5.61955H143.446V16ZM153.899 5.61955L150.055 16H148.716L144.952 5.61955H146.305L149.179 13.8501C149.271 14.1155 149.341 14.4219 149.389 14.7694H149.418C149.457 14.4799 149.536 14.1686 149.657 13.8356L152.589 5.61955H153.899ZM162.557 16H161.21L160.11 13.09H155.709L154.674 16H153.32L157.301 5.61955H158.561L162.557 16ZM159.712 11.9969L158.083 7.57403C158.03 7.42925 157.977 7.19761 157.924 6.8791H157.895C157.847 7.17348 157.791 7.40512 157.728 7.57403L156.114 11.9969H159.712ZM170.867 15.5657C170.099 15.971 169.144 16.1737 168 16.1737C166.523 16.1737 165.341 15.6984 164.453 14.7477C163.565 13.797 163.121 12.5495 163.121 11.0052C163.121 9.34512 163.621 8.00353 164.62 6.98045C165.619 5.95736 166.885 5.44582 168.42 5.44582C169.404 5.44582 170.22 5.58818 170.867 5.87291V7.16866C170.124 6.75363 169.303 6.54612 168.406 6.54612C167.214 6.54612 166.246 6.94425 165.503 7.74052C164.764 8.53679 164.395 9.6009 164.395 10.9328C164.395 12.1972 164.74 13.2058 165.43 13.9587C166.125 14.7067 167.035 15.0807 168.159 15.0807C169.202 15.0807 170.104 14.849 170.867 14.3857V15.5657ZM179.727 5.61955L176.303 12.1634V16H175.087V12.1924L171.75 5.61955H173.132L175.456 10.3103C175.485 10.3682 175.57 10.5805 175.709 10.9473H175.731C175.779 10.7832 175.871 10.5709 176.006 10.3103L178.439 5.61955H179.727ZM194.342 16.1665C194.067 16.1665 193.823 16.1279 193.611 16.0507C193.404 15.9783 193.211 15.8745 193.032 15.7394C192.853 15.5995 192.68 15.4305 192.511 15.2327C192.347 15.0348 192.173 14.8104 191.99 14.5595C191.797 14.767 191.572 14.9673 191.316 15.1603C191.065 15.3533 190.786 15.5247 190.477 15.6743C190.168 15.8239 189.83 15.9421 189.463 16.029C189.096 16.1206 188.698 16.1665 188.269 16.1665C187.748 16.1665 187.27 16.1013 186.836 15.971C186.401 15.8407 186.03 15.6501 185.721 15.3992C185.412 15.1434 185.171 14.8297 184.997 14.4581C184.828 14.0865 184.744 13.6595 184.744 13.1769C184.744 12.4385 184.953 11.8087 185.373 11.2875C185.793 10.7615 186.387 10.332 187.154 9.99903C187.009 9.89286 186.864 9.7698 186.72 9.62985C186.575 9.48507 186.445 9.32341 186.329 9.14485C186.218 8.96147 186.126 8.76119 186.054 8.54403C185.986 8.32204 185.952 8.08075 185.952 7.82015C185.952 7.43891 186.02 7.10109 186.155 6.80672C186.295 6.51234 186.486 6.26381 186.727 6.06112C186.968 5.85843 187.253 5.70642 187.581 5.60507C187.909 5.49891 188.264 5.44582 188.645 5.44582C189.022 5.44582 189.364 5.49891 189.673 5.60507C189.987 5.70642 190.255 5.85361 190.477 6.04664C190.703 6.23968 190.88 6.47132 191.005 6.74157C191.131 7.01182 191.193 7.31343 191.193 7.64642C191.193 8.22552 191.027 8.70811 190.694 9.09418C190.366 9.47542 189.871 9.80117 189.21 10.0714C189.543 10.2017 189.844 10.361 190.115 10.5492C190.385 10.7374 190.634 10.9473 190.86 11.179C191.092 11.4106 191.307 11.6591 191.505 11.9246C191.702 12.19 191.898 12.465 192.091 12.7498C192.482 12.2045 192.776 11.6036 192.974 10.9473C193.172 10.291 193.271 9.60331 193.271 8.88425C193.271 8.70087 193.259 8.52955 193.235 8.3703C193.215 8.20622 193.186 8.04455 193.148 7.8853H194.299C194.337 8.04455 194.359 8.19657 194.364 8.34134C194.374 8.48129 194.383 8.6502 194.393 8.84806C194.393 9.28721 194.347 9.72878 194.255 10.1728C194.164 10.6167 194.041 11.0487 193.886 11.4685C193.732 11.8835 193.551 12.2793 193.343 12.6557C193.141 13.0321 192.926 13.3771 192.699 13.6908C192.868 13.9225 193.022 14.1251 193.162 14.2989C193.302 14.4678 193.442 14.6101 193.582 14.726C193.727 14.8418 193.874 14.9287 194.024 14.9866C194.178 15.0397 194.352 15.0662 194.545 15.0662C194.69 15.0662 194.837 15.0469 194.986 15.0083C195.136 14.9697 195.29 14.9214 195.45 14.8635V15.9638C195.276 16.0314 195.093 16.082 194.9 16.1158C194.711 16.1496 194.526 16.1665 194.342 16.1665ZM188.269 15.1386C188.636 15.1386 188.973 15.1 189.282 15.0228C189.591 14.9407 189.876 14.8346 190.136 14.7043C190.397 14.5691 190.634 14.4147 190.846 14.241C191.058 14.0624 191.251 13.8766 191.425 13.6836C191.131 13.2251 190.858 12.8342 190.607 12.5109C190.361 12.1827 190.11 11.9004 189.854 11.664C189.603 11.4275 189.333 11.2248 189.043 11.0559C188.759 10.887 188.428 10.7301 188.052 10.5854C187.748 10.706 187.468 10.8411 187.212 10.9907C186.956 11.1355 186.734 11.3093 186.546 11.5119C186.363 11.7098 186.218 11.9414 186.112 12.2069C186.005 12.4723 185.952 12.7836 185.952 13.1407C185.952 13.4688 186.013 13.7584 186.133 14.0093C186.254 14.2603 186.418 14.4702 186.626 14.6391C186.838 14.8032 187.084 14.9287 187.364 15.0155C187.644 15.0976 187.945 15.1386 188.269 15.1386ZM190.079 7.74776C190.079 7.50647 190.033 7.30137 189.941 7.13246C189.854 6.96356 189.741 6.82361 189.601 6.71261C189.466 6.60162 189.314 6.52199 189.145 6.47373C188.976 6.42065 188.809 6.3941 188.645 6.3941C188.172 6.3941 187.793 6.52199 187.509 6.77776C187.229 7.03353 187.086 7.38099 187.082 7.82015C187.082 8.01801 187.111 8.20381 187.169 8.37754C187.231 8.55127 187.316 8.71294 187.422 8.86254C187.533 9.01214 187.661 9.14485 187.806 9.26067C187.95 9.37649 188.105 9.47542 188.269 9.55746C188.877 9.34512 189.331 9.099 189.63 8.8191C189.929 8.53438 190.079 8.17726 190.079 7.74776ZM200.698 15.5801V14.1469C200.862 14.2916 201.057 14.4219 201.284 14.5378C201.516 14.6536 201.757 14.7525 202.008 14.8346C202.264 14.9118 202.52 14.9721 202.775 15.0155C203.031 15.059 203.268 15.0807 203.485 15.0807C204.233 15.0807 204.79 14.9431 205.157 14.6681C205.529 14.3882 205.714 13.9876 205.714 13.4664C205.714 13.1865 205.652 12.9428 205.526 12.7353C205.405 12.5278 205.237 12.3396 205.019 12.1707C204.802 11.9969 204.544 11.8329 204.245 11.6784C203.95 11.5192 203.632 11.3527 203.289 11.179C202.927 10.9956 202.59 10.8098 202.276 10.6216C201.962 10.4334 201.69 10.2258 201.458 9.99903C201.226 9.77221 201.043 9.51644 200.908 9.23172C200.777 8.94216 200.712 8.60435 200.712 8.21828C200.712 7.74535 200.816 7.33515 201.024 6.98769C201.231 6.6354 201.504 6.34585 201.842 6.11903C202.179 5.89221 202.563 5.72331 202.993 5.61231C203.427 5.50132 203.868 5.44582 204.317 5.44582C205.34 5.44582 206.086 5.56888 206.554 5.815V7.18313C205.941 6.75846 205.155 6.54612 204.194 6.54612C203.929 6.54612 203.663 6.57507 203.398 6.63298C203.133 6.68607 202.896 6.77535 202.689 6.90082C202.481 7.02629 202.312 7.18796 202.182 7.38582C202.052 7.58368 201.986 7.82497 201.986 8.1097C201.986 8.37512 202.035 8.60435 202.131 8.79739C202.232 8.99042 202.38 9.16657 202.573 9.32582C202.766 9.48507 203 9.6395 203.275 9.7891C203.555 9.93871 203.876 10.1028 204.238 10.2813C204.609 10.4647 204.962 10.6578 205.294 10.8604C205.627 11.0631 205.919 11.2875 206.17 11.5337C206.421 11.7798 206.619 12.0524 206.764 12.3516C206.914 12.6508 206.988 12.9935 206.988 13.3796C206.988 13.8911 206.887 14.3254 206.684 14.6825C206.486 15.0348 206.216 15.322 205.874 15.544C205.536 15.7659 205.145 15.9252 204.701 16.0217C204.257 16.1231 203.789 16.1737 203.297 16.1737C203.133 16.1737 202.93 16.1593 202.689 16.1303C202.447 16.1062 202.201 16.0676 201.95 16.0145C201.699 15.9662 201.46 15.9059 201.234 15.8335C201.012 15.7563 200.833 15.6718 200.698 15.5801ZM214.56 16H209.059V5.61955H214.329V6.71985H210.275V10.1728H214.025V11.2658H210.275V14.8997H214.56V16ZM223.623 15.5657C222.856 15.971 221.9 16.1737 220.757 16.1737C219.28 16.1737 218.098 15.6984 217.21 14.7477C216.322 13.797 215.878 12.5495 215.878 11.0052C215.878 9.34512 216.377 8.00353 217.376 6.98045C218.375 5.95736 219.642 5.44582 221.176 5.44582C222.161 5.44582 222.976 5.58818 223.623 5.87291V7.16866C222.88 6.75363 222.06 6.54612 221.162 6.54612C219.97 6.54612 219.002 6.94425 218.259 7.74052C217.521 8.53679 217.152 9.6009 217.152 10.9328C217.152 12.1972 217.497 13.2058 218.187 13.9587C218.882 14.7067 219.791 15.0807 220.916 15.0807C221.958 15.0807 222.861 14.849 223.623 14.3857V15.5657ZM233.33 11.8015C233.33 14.7163 232.015 16.1737 229.385 16.1737C226.866 16.1737 225.607 14.7718 225.607 11.968V5.61955H226.823V11.8884C226.823 14.0166 227.72 15.0807 229.516 15.0807C231.248 15.0807 232.114 14.0528 232.114 11.9969V5.61955H233.33V11.8015ZM243.371 16H241.923L240.186 13.09C240.026 12.8198 239.872 12.5905 239.722 12.4023C239.573 12.2093 239.418 12.0524 239.259 11.9318C239.105 11.8111 238.936 11.7243 238.752 11.6712C238.574 11.6133 238.371 11.5843 238.144 11.5843H237.145V16H235.929V5.61955H239.027C239.481 5.61955 239.898 5.67746 240.28 5.79328C240.666 5.90428 240.999 6.0756 241.279 6.30724C241.563 6.53888 241.785 6.82843 241.945 7.1759C242.104 7.51853 242.183 7.92149 242.183 8.38478C242.183 8.74672 242.128 9.0797 242.017 9.38373C241.911 9.68294 241.756 9.95077 241.554 10.1872C241.356 10.4237 241.115 10.6264 240.83 10.7953C240.55 10.9594 240.234 11.0873 239.882 11.179V11.2079C240.055 11.2851 240.205 11.3744 240.33 11.4757C240.461 11.5723 240.584 11.6881 240.699 11.8232C240.815 11.9583 240.929 12.1128 241.04 12.2865C241.156 12.4554 241.283 12.6533 241.423 12.8801L243.371 16ZM237.145 6.71985V10.484H238.796C239.1 10.484 239.38 10.4382 239.635 10.3465C239.896 10.2548 240.12 10.1245 240.309 9.9556C240.497 9.78187 240.644 9.57194 240.75 9.32582C240.856 9.07488 240.909 8.79497 240.909 8.48612C240.909 7.93114 240.728 7.49923 240.367 7.19037C240.009 6.87669 239.491 6.71985 238.81 6.71985H237.145ZM246.02 16H244.804V5.61955H246.02V16ZM254.895 6.71985H251.898V16H250.682V6.71985H247.692V5.61955H254.895V6.71985ZM263.567 5.61955L260.143 12.1634V16H258.927V12.1924L255.59 5.61955H256.972L259.296 10.3103C259.325 10.3682 259.409 10.5805 259.549 10.9473H259.571C259.619 10.7832 259.711 10.5709 259.846 10.3103L262.278 5.61955H263.567Z"
		fill="white" />
</svg>