<svg width="24" height="20" viewBox="0 0 24 20" fill="none" xmlns="http://www.w3.org/2000/svg">
	<path fill-rule="evenodd" clip-rule="evenodd"
		d="M22.1718 0H1.82817C0.8185 0 0 0.790946 0 1.76663V18.2334C0 19.2091 0.818501 20 1.82817 20H22.1718C23.1815 20 24 19.2091 24 18.2334V1.76663C24 0.790945 23.1815 0 22.1718 0ZM22.1718 1.2759H1.82817C1.54771 1.2759 1.32035 1.4956 1.32035 1.76663V5.46799H22.6797V1.76663C22.6797 1.4956 22.4523 1.2759 22.1718 1.2759ZM22.6797 6.74389H1.32035V18.2334C1.32035 18.5044 1.54771 18.7241 1.82817 18.7241H22.1718C22.4523 18.7241 22.6797 18.5044 22.6797 18.2334V6.74389Z"
		fill="#0096A1" />
	<path
		d="M13.8963 4.45309C14.4936 4.45309 14.9778 3.9852 14.9778 3.40802C14.9778 2.83085 14.4936 2.36295 13.8963 2.36295C13.299 2.36295 12.8148 2.83085 12.8148 3.40802C12.8148 3.9852 13.299 4.45309 13.8963 4.45309Z"
		fill="#0096A1" />
	<path
		d="M21.1429 4.14958C21.5653 3.74146 21.5653 3.07976 21.1429 2.67164C20.7206 2.26352 20.0359 2.26351 19.6135 2.67164C19.1912 3.07976 19.1912 3.74146 19.6135 4.14958C20.0359 4.5577 20.7206 4.5577 21.1429 4.14958Z"
		fill="#0096A1" />
	<path
		d="M17.3813 4.42421C17.9625 4.29157 18.3225 3.7287 18.1852 3.16699C18.048 2.60528 17.4655 2.25745 16.8842 2.39008C16.3029 2.52272 15.943 3.08559 16.0802 3.6473C16.2175 4.20901 16.8 4.55685 17.3813 4.42421Z"
		fill="#0096A1" />
	<path
		d="M15.3613 8.62065C15.2576 8.49181 15.1243 8.3916 14.9687 8.32717C14.8132 8.26275 14.6428 8.23412 14.4724 8.24128C12.9391 8.2198 11.4058 8.24128 9.86502 8.24128H9.41317C9.15391 8.24843 8.90946 8.34865 8.73169 8.5276C8.55391 8.70655 8.45021 8.94276 8.45761 9.18614C8.42798 9.9091 8.45761 10.6464 8.45761 11.3693C8.41317 12.4502 8.67984 13.5239 9.22798 14.4759C9.78354 15.3993 10.7909 16.5374 12.0058 16.5732C13.065 16.5446 13.9465 15.6427 14.5095 14.8696C15.1835 13.9605 15.5465 12.8797 15.5465 11.7702V9.50825C15.5835 9.20045 15.5243 8.8855 15.3613 8.62065ZM14.2058 13.7887C13.9317 14.3184 13.5613 14.798 13.1021 15.1989C12.8206 15.4924 12.4502 15.6856 12.0428 15.7572V9.04298H13.9095C14.1095 9.03582 14.3169 9.03582 14.5169 9.04298C14.6798 9.05729 14.6947 9.12887 14.7021 9.27203C14.7539 9.93773 14.7021 10.6034 14.7021 11.2691C14.7465 12.1424 14.5761 13.0014 14.2058 13.7887Z"
		fill="#0096A1" />
</svg>