<svg viewBox="0 0 412 36" fill="none" xmlns="http://www.w3.org/2000/svg">
	<path
		d="M70.4091 5.43858C74.4568 5.43858 77.9082 7.5295 79.7087 10.4927C81.2971 13.2504 81.6498 17.743 81.6498 20.7176C81.6498 23.6923 81.2971 28.1882 79.7087 30.9456C77.9082 33.9083 74.4564 36.0001 70.4091 36.0001H11.3935C7.34456 36.0001 3.89365 33.9083 2.09307 30.9456C0.503441 28.1887 0.152832 23.697 0.152832 20.7193C0.152832 17.7417 0.503441 13.2504 2.09307 10.4923C3.89365 7.52907 7.34456 5.43816 11.3935 5.43816H70.4091V5.43858ZM77.6378 1.44351C78.2452 0.801293 79.0962 0.446865 79.98 0.467663C80.8531 0.458325 81.691 0.812329 82.2929 1.44563C82.9224 2.0505 83.2751 2.88754 83.2687 3.76024V3.77001C83.2759 4.6478 82.9232 5.48994 82.2929 6.10032C81.0042 7.37754 78.9269 7.37754 77.6378 6.10032C76.9998 5.48994 76.6458 4.64101 76.6619 3.75812C76.6505 2.88415 77.004 2.04498 77.6378 1.44351ZM78.1493 1.92358C77.6603 2.4079 77.389 3.07006 77.3979 3.75812C77.3861 4.44703 77.6577 5.11047 78.1493 5.59266C78.6225 6.09014 79.2821 6.36646 79.9685 6.35585C80.6502 6.36561 81.3043 6.08886 81.7721 5.59266C82.267 5.11174 82.5408 4.44788 82.5293 3.75812C82.5387 3.06879 82.2649 2.40577 81.7721 1.92358C81.3018 1.43332 80.6477 1.16209 79.9685 1.1761C79.2847 1.16124 78.6255 1.43205 78.1493 1.92358ZM79.4354 5.32567H78.637V2.03904H79.8802C80.0653 2.03437 80.2508 2.04413 80.4346 2.06832C80.581 2.08403 80.7228 2.12987 80.8501 2.20288C80.986 2.27164 81.1014 2.37521 81.1838 2.5034C81.2576 2.64263 81.2928 2.79883 81.2852 2.95631C81.2967 3.16896 81.2266 3.37822 81.0899 3.54164C80.9477 3.70464 80.7674 3.82986 80.5649 3.90668L81.8022 5.32567H80.7601L79.7843 4.11382H79.4524L79.435 5.32567H79.4354ZM79.4587 3.53018H79.654C79.7703 3.53146 79.8862 3.52467 80.0012 3.51066C80.0861 3.49028 80.1676 3.4559 80.2414 3.40921C80.2945 3.36634 80.3378 3.31243 80.3684 3.25131C80.3964 3.17321 80.4095 3.09044 80.4074 3.00724C80.4074 2.94612 80.3917 2.88627 80.3607 2.83364C80.3319 2.76657 80.2801 2.71181 80.2143 2.67955C80.1476 2.64687 80.0755 2.62862 80.0016 2.6248C79.9061 2.60994 79.8093 2.604 79.7126 2.60739H79.4528L79.4587 3.53061V3.53018Z"
		fill="#0096A1" />
	<path
		d="M50.6651 19.0389C50.7207 17.0863 51.0925 16.4411 53.0833 16.4411C54.7217 16.4411 55.6326 16.6118 55.6326 18.8848V19.0393L50.6651 19.0389ZM15.791 16.5901C13.8639 16.5901 13.4755 17.1835 13.4216 19.0957H18.2949V18.9875C18.2949 16.7506 17.418 16.5901 15.791 16.5901ZM8.90446 20.8076C8.90446 15.287 10.1341 13.4996 15.8738 13.4996C21.2343 13.4996 22.8134 14.9631 22.8134 20.8076V21.4982H13.422V21.6073C13.422 24.1622 13.8219 24.9975 15.8738 24.9975C17.2953 24.9975 18.3289 24.8413 18.3764 23.3149H22.8134C22.7896 25.3986 22.0905 26.5659 20.9151 27.2489C19.702 27.9221 17.9672 28.0876 15.8738 28.0876C10.2432 28.0876 8.90446 26.1635 8.90446 20.8076ZM25.805 18.1326C25.805 13.59 28.7325 13.4996 32.7734 13.4996C35.4658 13.4996 39.0526 13.5463 39.0526 16.9738V17.5549H34.7952C34.5889 16.4229 33.6831 16.341 32.7734 16.341C30.2924 16.341 30.1863 16.6487 30.1863 17.6097C30.1863 18.4191 30.3298 18.9315 32.7717 18.9858C37.6888 19.097 39.7423 19.378 39.7423 23.3166C39.7423 27.4513 36.5817 28.0876 32.7734 28.0876C31.8405 28.0876 30.9317 28.0931 30.0959 28.0282C27.3339 27.8079 25.8398 26.7756 25.805 23.6193H30.3251C30.3795 25.2204 31.5866 25.2467 32.7734 25.2467C34.906 25.2467 35.361 25.1125 35.361 23.8693C35.361 23.1273 35.1441 22.7173 34.6763 22.5131C34.1721 22.2941 33.3142 22.3238 32.773 22.3238C26.7897 22.3238 25.8046 20.9884 25.8046 18.1322M62.8829 16.7544H66.1865V27.928H70.7045V16.7544H74.0048V13.4992H62.8829V16.7544ZM46.2417 20.7045C46.2417 26.0396 47.5631 27.9391 53.1639 27.9391C55.2574 27.9391 56.9828 27.7718 58.1828 27.1041C59.3327 26.4377 60.0241 25.2972 60.0581 23.2585H55.7111C55.6445 24.7853 54.571 24.9411 53.1639 24.9411C51.073 24.9411 50.6689 24.0662 50.6689 21.5042V21.348H60.0594V20.7045C60.0594 14.885 58.4999 13.4414 53.1639 13.4414C47.4536 13.4414 46.2417 15.2034 46.2417 20.7045ZM5.5949 30.6115C7.02875 32.1544 9.78395 33.3085 12.1431 33.3132H42.5765V8.125H12.1436C9.78438 8.12967 7.02917 9.28464 5.59533 10.8267C3.33038 13.2623 2.83545 17.0855 2.83545 20.7206C2.83545 24.3557 3.32995 28.1763 5.59533 30.6119"
		fill="white" />
	<path
		d="M312.979 27.4364L313.706 25.6451C315.246 26.205 316.673 26.5968 318.408 26.5968C320.34 26.5968 322.186 26.177 322.186 24.2181C322.186 22.8747 320.451 22.2307 319.108 21.7273C316.813 20.8037 313.678 19.796 313.678 16.7458C313.678 14.1154 316.141 12.9396 319.135 12.9396C321.374 12.9396 322.578 13.2478 323.837 13.7796L323.249 15.4588C321.822 15.039 320.73 14.7869 319.219 14.7869C317.344 14.7869 315.945 15.2627 315.945 16.7182C315.945 18.0892 317.596 18.7892 318.911 19.3486C321.066 20.2723 324.481 21.3075 324.481 24.0784C324.481 27.4652 321.514 28.5005 318.407 28.5005C315.805 28.5005 313.958 27.9126 312.978 27.4368L312.979 27.4364ZM326.397 28.36V13.0797H336.216V14.8709H328.581V19.7684H335.74V21.5872H328.581V26.5412H336.72V28.36H326.397ZM345.68 28.6397C340.531 28.6397 337.592 25.3654 337.592 20.8317C337.592 16.0178 340.502 12.8276 345.596 12.8276C347.471 12.8276 348.758 13.1073 350.269 13.6952L349.654 15.4584C348.199 15.0102 347.163 14.7589 345.652 14.7589C342.545 14.7309 339.831 16.41 339.831 20.6076C339.831 24.9456 342.657 26.7649 346.071 26.7649C347.499 26.7649 348.786 26.4291 349.794 26.1494C349.85 26.3731 350.269 27.6605 350.354 27.8842C349.374 28.2204 348.115 28.6397 345.68 28.6397ZM358.648 28.6397C355.626 28.6397 351.792 27.3528 351.792 22.8747V13.0797H354.003V22.735C354.003 25.7296 356.521 26.7369 358.648 26.7369C360.915 26.7369 363.294 25.5895 363.294 22.2312V13.0797H365.393V22.3152C365.393 27.2407 361.447 28.6397 358.648 28.6397ZM368.415 13.0797H374.04C377.146 13.0797 379.19 14.7028 379.19 17.8651C379.19 19.796 378.209 21.4752 376.111 22.2868L381.176 28.36H378.322L373.9 22.791C373.676 22.791 373.2 22.8186 372.92 22.8186H370.597V28.36H368.414V13.0797H368.415ZM373.032 21.0278C375.327 21.0278 376.894 20.2162 376.894 17.9772C376.894 15.8222 375.831 14.8985 373.564 14.8985H370.598V21.0274H373.032V21.0278ZM382.863 28.36V13.0797H385.046V28.36H382.863ZM409.621 13.0793L404.863 22.1191L400.386 13.0793H386.433V14.9265H391.69V28.36H393.845V14.9265H398.9L403.716 24.0224V28.3604H405.899V24.0224L412 13.0797L409.621 13.0793ZM102.38 28.36H96.0833V13.0793H101.736C105.235 13.0793 107.082 14.6464 107.082 16.9695C107.082 18.3129 106.27 19.74 105.067 20.1878C106.773 20.6636 108.145 22.007 108.145 23.9103C108.145 26.5132 106.354 28.36 102.38 28.36ZM101.26 14.8145H98.2659V19.74H101.82C104.115 19.74 104.843 18.8724 104.843 17.2772C104.843 15.458 103.528 14.8141 101.261 14.8141L101.26 14.8145ZM101.597 21.3911H98.2663V26.5968H102.072C104.115 26.5968 105.935 26.093 105.935 23.994C105.935 21.8109 104.424 21.3911 101.597 21.3911H101.597ZM110.341 13.0793H115.966C119.073 13.0793 121.116 14.7024 121.116 17.8647C121.116 19.796 120.136 21.4752 118.037 22.2868L123.103 28.36H120.249L115.827 22.7906C115.603 22.7906 115.127 22.8186 114.847 22.8186H112.524V28.36H110.341V13.0793ZM114.959 21.0278C117.253 21.0278 118.821 20.2162 118.821 17.9767C118.821 15.8222 117.758 14.8985 115.491 14.8985H112.524V21.0274H114.959V21.0278ZM130.558 28.5557C125.688 28.5557 122.89 25.3374 122.89 20.6916C122.89 15.8502 126.164 12.8556 130.95 12.8556C136.015 12.8556 138.59 16.27 138.59 20.7196C138.59 25.4495 135.567 28.5557 130.558 28.5557H130.558ZM130.754 14.7024C126.975 14.7024 125.072 17.2772 125.072 20.6636C125.072 23.994 126.919 26.7369 130.614 26.7369C134.532 26.7369 136.379 24.1621 136.379 20.7196C136.379 17.2772 134.392 14.7024 130.754 14.7024H130.754ZM155.655 28.36H152.772L149.442 15.8222L145.58 28.36H142.725L138.415 13.0793H140.626L144.32 26.7929L148.49 13.0793H150.561L154.199 26.7645L158.649 13.0793H160.748L155.654 28.36H155.655ZM160.543 27.4364L161.271 25.6451C162.81 26.2046 164.237 26.5964 165.972 26.5964C167.903 26.5964 169.751 26.177 169.751 24.2177C169.751 22.8747 168.015 22.2307 166.672 21.7273C164.377 20.8037 161.243 19.796 161.243 16.7458C161.243 14.115 163.705 12.9396 166.7 12.9396C168.939 12.9396 170.142 13.2473 171.402 13.7792L170.814 15.4584C169.386 15.0386 168.295 14.7869 166.784 14.7869C164.909 14.7869 163.51 15.2623 163.51 16.7178C163.51 18.0892 165.161 18.7887 166.476 19.3486C168.631 20.2723 172.046 21.3075 172.046 24.0784C172.046 27.4648 169.079 28.5001 165.973 28.5001C163.37 28.5001 161.523 27.9126 160.543 27.4368L160.543 27.4364ZM173.962 28.36V13.0793H183.78V14.8705H176.144V19.768H183.304V21.5872H176.144V26.5408H184.284V28.36H173.962ZM186.404 13.0793H192.029C195.135 13.0793 197.179 14.7024 197.179 17.8647C197.179 19.796 196.199 21.4752 194.1 22.2868L199.166 28.36H196.311L191.889 22.7906C191.665 22.7906 191.19 22.8186 190.91 22.8186H188.587V28.36H186.404L186.404 13.0793ZM191.022 21.0278C193.316 21.0278 194.884 20.2162 194.884 17.9767C194.884 15.8222 193.821 14.8985 191.554 14.8985H188.587V21.0274H191.022V21.0278ZM206.469 13.0793H212.206C215.341 13.0793 217.384 14.8425 217.384 18.0048C217.384 20.9153 215.369 23.1259 211.087 23.1259H208.624V28.3596H206.469V13.0788L206.469 13.0793ZM211.227 21.3075C213.521 21.3075 215.089 20.3279 215.089 18.0892C215.089 15.9058 214.026 14.8985 211.731 14.8985H208.624V21.3075H211.227ZM218.892 13.0793H224.517C227.623 13.0793 229.666 14.7024 229.666 17.8647C229.666 19.796 228.687 21.4752 226.588 22.2868L231.653 28.36H228.799L224.377 22.7906C224.153 22.7906 223.678 22.8186 223.397 22.8186H221.074V28.36H218.891L218.892 13.0793ZM223.51 21.0278C225.804 21.0278 227.372 20.2162 227.372 17.9767C227.372 15.8222 226.308 14.8985 224.041 14.8985H221.075V21.0274H223.51V21.0278ZM233.34 28.36V13.0793H235.523V28.36H233.34ZM236.924 13.0793H239.303L243.949 27.0446L249.406 13.0793H251.673L245.516 28.36H242.214L236.924 13.0793ZM255.358 13.0793H258.632L263.95 28.36H261.543L259.864 23.2664H253.511L251.496 28.36H249.201L255.358 13.0793ZM259.248 21.4752L256.898 14.3667L254.155 21.4752H259.248ZM271.581 28.6397C266.432 28.6397 263.493 25.3654 263.493 20.8313C263.493 16.0174 266.404 12.8276 271.497 12.8276C273.372 12.8276 274.659 13.1073 276.171 13.6952L275.555 15.458C274.1 15.0102 273.065 14.7584 271.553 14.7584C268.446 14.7309 265.732 16.41 265.732 20.6076C265.732 24.9456 268.559 26.7645 271.973 26.7645C273.4 26.7645 274.688 26.4287 275.696 26.149C275.752 26.3727 276.171 27.6605 276.255 27.8842C275.275 28.2199 274.016 28.6397 271.581 28.6397H271.581ZM282.313 24.022L276.52 13.0793H278.983L283.461 22.1191L288.219 13.0793H290.597L284.496 24.022V28.36H282.313V24.022H282.313ZM305.767 20.4433C305.057 22.058 304.132 23.4354 303.098 24.4902C301.785 23.522 300.601 22.3165 299.719 21.0677C301.699 19.8193 303.894 18.571 303.894 16.3107C303.894 14.632 302.711 12.8237 300.213 12.8237C297.523 12.8237 296.21 14.89 296.21 17.0646C296.21 18.2484 296.598 19.4755 297.222 20.681C295.758 21.7142 294.51 22.9629 294.51 24.8569C294.51 27.4181 296.317 28.495 298.728 28.495C300.386 28.495 301.893 27.9135 303.206 26.8587C304.799 27.8061 306.478 28.3872 307.985 28.4517L308.307 26.7509C307.08 26.6214 305.832 26.1481 304.627 25.4809C305.574 24.3616 306.434 23.0058 307.21 21.4557L305.767 20.4433ZM298.879 26.7072C297.738 26.7072 296.576 26.1261 296.576 24.6837C296.576 23.6506 297.222 22.8543 298.126 22.1437C299.073 23.4782 300.278 24.7266 301.613 25.7602C300.709 26.3846 299.761 26.7072 298.879 26.7072ZM298.19 16.9776C298.19 15.3633 298.922 14.5454 300.084 14.5454C301.225 14.5454 301.957 15.3204 301.957 16.3103C301.957 17.6881 300.493 18.6139 298.879 19.6249C298.427 18.7213 298.19 17.8171 298.19 16.9776Z"
		fill="#949CA1" />
</svg>