<?xml version="1.0" encoding="utf-8"?>
<svg xmlns="http://www.w3.org/2000/svg">
	<link xmlns="http://www.w3.org/1999/xhtml" rel="stylesheet" href="../css/popup.css" type="text/css" />
	<defs>
		<symbol id="secure-search-icon" viewBox="0 0 30 29" fill="none">
			<path fill-rule="evenodd" clip-rule="evenodd"
				d="M9.25299 7.26904H17.7439C18.7106 7.26904 19.4988 8.05084 19.4988 9.02255V13.6509C19.4988 16.2928 18.4967 18.4182 17.3037 19.8831C16.7086 20.6137 16.0558 21.1931 15.4354 21.5974C14.8508 21.9783 14.1739 22.2828 13.5472 22.2828C12.8915 22.2828 12.1938 21.9672 11.5915 21.5702C10.956 21.1513 10.2956 20.5553 9.69723 19.8156C8.49983 18.3353 7.49805 16.2114 7.49805 13.6509V9.02255C7.49805 8.05085 8.28624 7.26904 9.25299 7.26904ZM13.5761 8.3281C13.5761 8.30822 13.5753 8.28853 13.5738 8.26904H17.7439C18.1608 8.26904 18.4988 8.60561 18.4988 9.02255V13.6509C18.4988 18.3975 14.9137 21.2677 13.5579 21.2828C13.5698 21.2296 13.5761 21.174 13.5761 21.1165V8.3281Z"
				style="fill:var(--securesearch-icon-fill)" />
			<path fill-rule="evenodd" clip-rule="evenodd"
				d="M0.410156 14.07C0.410156 6.84084 6.27052 0.980469 13.4997 0.980469C20.7288 0.980469 26.5892 6.84084 26.5892 14.07C26.5892 17.2374 25.4641 20.1421 23.5918 22.4062L29.2645 28.0788C29.4597 28.2741 29.4597 28.5907 29.2645 28.7859C29.0692 28.9812 28.7526 28.9812 28.5574 28.7859L22.9246 23.1532C20.5438 25.6231 17.2011 27.1595 13.4997 27.1595C6.27052 27.1595 0.410156 21.2991 0.410156 14.07ZM13.4997 1.98047C6.82281 1.98047 1.41016 7.39312 1.41016 14.07C1.41016 20.7468 6.82281 26.1595 13.4997 26.1595C20.1765 26.1595 25.5892 20.7468 25.5892 14.07C25.5892 7.39312 20.1765 1.98047 13.4997 1.98047Z"
				style="fill:var(--securesearch-icon-fill)" />
		</symbol>
		<symbol id="browser-cleanup-icon" viewBox="0 0 30 27">
			<path
				d="M20.1443 3.12256C19.7297 3.12256 19.3936 3.4587 19.3936 3.87335C19.3936 4.288 19.7297 4.62414 20.1443 4.62414C20.559 4.62414 20.8951 4.288 20.8951 3.87335C20.8951 3.4587 20.559 3.12256 20.1443 3.12256Z"
				fill="var(--green)" />
			<path
				d="M22.3965 3.87335C22.3965 3.4587 22.7326 3.12256 23.1473 3.12256C23.5619 3.12256 23.8981 3.4587 23.8981 3.87335C23.8981 4.288 23.5619 4.62414 23.1473 4.62414C22.7326 4.62414 22.3965 4.288 22.3965 3.87335Z"
				fill="var(--green)" />
			<path
				d="M26.1502 3.12256C25.7356 3.12256 25.3994 3.4587 25.3994 3.87335C25.3994 4.288 25.7356 4.62414 26.1502 4.62414C26.5649 4.62414 26.901 4.288 26.901 3.87335C26.901 3.4587 26.5649 3.12256 26.1502 3.12256Z"
				fill="var(--green)" />
			<path fill-rule="evenodd" clip-rule="evenodd"
				d="M2.65016 0.980469H27.6624C28.6234 0.980469 29.4024 1.75949 29.4024 2.72047V20.7611C29.4024 21.722 28.6234 22.5011 27.6624 22.5011H21.0221L21.0931 21.5011H27.6624C28.0711 21.5011 28.4024 21.1698 28.4024 20.7611V6.97021H1.91016V20.7611C1.91016 21.1698 2.24147 21.5011 2.65016 21.5011H9.22242L9.2942 22.5011H2.65016C1.68918 22.5011 0.910156 21.722 0.910156 20.7611V2.72047C0.910156 1.7595 1.68918 0.980469 2.65016 0.980469ZM1.91016 5.97021H28.4024V2.72047C28.4024 2.31178 28.0711 1.98047 27.6624 1.98047H2.65016C2.24147 1.98047 1.91016 2.31178 1.91016 2.72047V5.97021Z"
				fill="var(--green)" />
			<path
				d="M13.9121 15.1528C13.9121 14.8767 13.6883 14.6528 13.4121 14.6528C13.136 14.6528 12.9121 14.8767 12.9121 15.1528V22.3763C12.9121 22.6524 13.136 22.8763 13.4121 22.8763C13.6883 22.8763 13.9121 22.6524 13.9121 22.3763V15.1528Z"
				fill="var(--green)" />
			<path
				d="M16.9014 14.6528C17.1775 14.6528 17.4014 14.8767 17.4014 15.1528V22.3763C17.4014 22.6524 17.1775 22.8763 16.9014 22.8763C16.6252 22.8763 16.4014 22.6524 16.4014 22.3763V15.1528C16.4014 14.8767 16.6252 14.6528 16.9014 14.6528Z"
				fill="var(--green)" />
			<path fill-rule="evenodd" clip-rule="evenodd"
				d="M13.2427 9.31152C13.0274 9.31152 12.8364 9.44924 12.7683 9.65341L12.2439 11.2266H8.40137C8.12522 11.2266 7.90137 11.4504 7.90137 11.7266C7.90137 12.0027 8.12522 12.2266 8.40137 12.2266H9.43756L10.4085 25.7518C10.4273 26.0133 10.645 26.216 10.9072 26.216H19.4214C19.6838 26.216 19.9016 26.0131 19.9202 25.7513L20.8798 12.2266H21.9156C22.1918 12.2266 22.4156 12.0027 22.4156 11.7266C22.4156 11.4504 22.1918 11.2266 21.9156 11.2266H18.072L17.5476 9.65341C17.4795 9.44924 17.2884 9.31152 17.0732 9.31152H13.2427ZM17.0179 11.2266L16.7129 10.3115H13.603L13.298 11.2266H17.0179ZM10.4401 12.2266H19.8773L18.9556 25.216H11.3726L10.4401 12.2266Z"
				fill="var(--green)" />
		</symbol>
		<symbol id="website-security-inspector" viewBox="0 0 29 27" fill="none">
			<rect x="18.4834" y="2.14355" width="1.50158" height="1.50158" rx="0.750792" fill="var(--website-security-inspector-icon-fill)"/>
			<rect x="21.4863" y="2.14355" width="1.50158" height="1.50158" rx="0.750792" fill="var(--website-security-inspector-icon-fill)"/>
			<rect x="24.4883" y="2.14355" width="1.50158" height="1.50158" rx="0.750792" fill="var(--website-security-inspector-icon-fill)"/>
			<path d="M28.1621 5.48828H0.162109" stroke="var(--website-security-inspector-icon-fill)" stroke-linejoin="round"/>
			<path fill-rule="evenodd" clip-rule="evenodd" d="M26.7494 0H1.74284C0.780296 0 0 0.780298 0 1.74284V19.7778C0 20.7403 0.780299 21.5206 1.74284 21.5206H5.91317C5.71549 21.1993 5.53613 20.8654 5.37656 20.5206H1.74284C1.33258 20.5206 1 20.188 1 19.7778V1.74284C1 1.33258 1.33258 1 1.74284 1H26.7494C27.1597 1 27.4922 1.33258 27.4922 1.74284V19.7778C27.4922 20.188 27.1597 20.5206 26.7494 20.5206H22.8783C22.7187 20.8654 22.5394 21.1993 22.3417 21.5206H26.7494C27.7119 21.5206 28.4922 20.7403 28.4922 19.7778V1.74284C28.4922 0.780296 27.7119 0 26.7494 0Z" fill="var(--website-security-inspector-icon-fill)"/>
			<circle cx="14.1274" cy="16.478" r="8.13719" stroke="var(--website-security-inspector-icon-fill)"/>
			<path d="M24.0887 25.761L20.2354 21.9077" stroke="var(--website-security-inspector-icon-fill)" stroke-linecap="round" stroke-linejoin="round"/>
			<path d="M11.537 14.2773L9.12418 15.902C8.7158 16.177 8.71579 16.7781 9.12417 17.0531L11.537 18.6779" stroke="var(--website-security-inspector-icon-fill)" stroke-linecap="round" stroke-linejoin="round"/>
			<path d="M16.7174 14.2773L19.1302 15.902C19.5386 16.177 19.5386 16.7781 19.1302 17.0531L16.7174 18.6779" stroke="var(--website-security-inspector-icon-fill)" stroke-linecap="round" stroke-linejoin="round"/>
			<path d="M15.0254 14.0122L13.2304 18.944" stroke="var(--website-security-inspector-icon-fill)" stroke-linecap="round" stroke-linejoin="round"/>
		</symbol>
		<symbol id="metadata-cleanup-icon" viewBox="0 0 30 23">
			<path
				d="M26.3039 5.15438C26.3039 5.89925 25.7 6.50309 24.9552 6.50309C24.2103 6.50309 23.6064 5.89925 23.6064 5.15438C23.6064 4.4095 24.2103 3.80566 24.9552 3.80566C25.7 3.80566 26.3039 4.4095 26.3039 5.15438Z"
				style="fill:var(--metadata-icon-fill)" />
			<path
				d="M12.3455 13.3621C12.5746 13.2078 12.6352 12.8971 12.481 12.668C12.3268 12.439 12.0161 12.3783 11.787 12.5326L8.48503 14.756C7.78235 15.2292 7.78233 16.2633 8.48501 16.7365L11.787 18.9601C12.016 19.1144 12.3268 19.0537 12.481 18.8247C12.6352 18.5956 12.5746 18.2849 12.3456 18.1307L9.04357 15.9071C8.92949 15.8302 8.92949 15.6623 9.04358 15.5855L12.3455 13.3621Z"
				style="fill:var(--metadata-icon-fill)" />
			<path
				d="M18.2416 12.668C18.0874 12.8971 18.1481 13.2078 18.3771 13.3621L21.6791 15.5855C21.7932 15.6623 21.7932 15.8302 21.6791 15.9071L18.3771 18.1307C18.1481 18.2849 18.0874 18.5956 18.2417 18.8247C18.3959 19.0537 18.7066 19.1144 18.9357 18.9601L22.2377 16.7365C22.9403 16.2633 22.9403 15.2292 22.2376 14.756L18.9357 12.5326C18.7066 12.3783 18.3959 12.439 18.2416 12.668Z"
				style="fill:var(--metadata-icon-fill)" />
			<path
				d="M16.9728 12.7811C17.0672 12.5216 16.9334 12.2347 16.6739 12.1402C16.4145 12.0458 16.1275 12.1796 16.0331 12.4391L13.7496 18.713C13.6551 18.9725 13.7889 19.2594 14.0484 19.3539C14.3079 19.4483 14.5948 19.3145 14.6893 19.055L16.9728 12.7811Z"
				style="fill:var(--metadata-icon-fill)" />
			<path fill-rule="evenodd" clip-rule="evenodd"
				d="M28.1252 0.652344H2.52859C1.61102 0.652344 0.867188 1.39618 0.867188 2.31374V20.8263C0.867188 21.7439 1.61103 22.4877 2.52859 22.4877H28.1252C29.0428 22.4877 29.7866 21.7439 29.7866 20.8263V2.31374C29.7866 1.39618 29.0428 0.652344 28.1252 0.652344ZM28.1252 1.65234H2.52859C2.16331 1.65234 1.86719 1.94846 1.86719 2.31374V11.2998L8.93498 4.23199C9.40121 3.76577 10.1571 3.76577 10.6233 4.23199L15.4184 9.02704C15.4941 9.10274 15.6168 9.10274 15.6925 9.02704L18.3334 6.38609C18.7997 5.91987 19.5556 5.91987 20.0218 6.38609L28.7866 15.1509V2.31374C28.7866 1.94846 28.4905 1.65234 28.1252 1.65234ZM28.7866 16.5652L19.3147 7.0932C19.239 7.0175 19.1163 7.0175 19.0406 7.0932L16.3996 9.73415C15.9334 10.2004 15.1775 10.2004 14.7113 9.73415L9.91621 4.9391C9.84052 4.8634 9.71779 4.8634 9.64209 4.9391L1.86719 12.714V20.8263C1.86719 21.1916 2.16331 21.4877 2.52859 21.4877H28.1252C28.4905 21.4877 28.7866 21.1916 28.7866 20.8263V16.5652Z"
				style="fill:var(--metadata-icon-fill)" />
		</symbol>
		<symbol id="website-setting-icon" viewBox="0 0 30 27">
			<path
				d="M19.3936 3.54669C19.3936 3.13204 19.7297 2.7959 20.1443 2.7959C20.559 2.7959 20.8951 3.13204 20.8951 3.54669C20.8951 3.96134 20.559 4.29748 20.1443 4.29748C19.7297 4.29748 19.3936 3.96134 19.3936 3.54669Z"
				fill="var(--green)" />
			<path
				d="M22.3965 3.54669C22.3965 3.13204 22.7326 2.7959 23.1473 2.7959C23.5619 2.7959 23.8981 3.13204 23.8981 3.54669C23.8981 3.96134 23.5619 4.29748 23.1473 4.29748C22.7326 4.29748 22.3965 3.96134 22.3965 3.54669Z"
				fill="var(--green)" />
			<path
				d="M26.1492 2.7959C25.7346 2.7959 25.3984 3.13204 25.3984 3.54669C25.3984 3.96134 25.7346 4.29748 26.1492 4.29748C26.5639 4.29748 26.9 3.96134 26.9 3.54669C26.9 3.13204 26.5639 2.7959 26.1492 2.7959Z"
				fill="var(--green)" />
			<path fill-rule="evenodd" clip-rule="evenodd"
				d="M2.653 0.652344H27.6595C28.6221 0.652344 29.4024 1.43264 29.4024 2.39519V20.4301C29.4024 21.3926 28.6221 22.1729 27.6595 22.1729H23.7842L24.2854 21.3036L24.2874 21.3001C24.3113 21.2582 24.3338 21.2158 24.3551 21.1729H27.6595C28.0698 21.1729 28.4024 20.8404 28.4024 20.4301V6.64111H1.91016V20.4301C1.91016 20.8404 2.24274 21.1729 2.653 21.1729H5.95747C5.97873 21.2158 6.0013 21.2582 6.02518 21.3001L6.52831 22.1729H2.653C1.69045 22.1729 0.910156 21.3926 0.910156 20.4301V2.39519C0.910156 1.43264 1.69045 0.652344 2.653 0.652344ZM1.91016 5.64111H28.4024V2.39519C28.4024 1.98493 28.0698 1.65234 27.6595 1.65234H2.653C2.24274 1.65234 1.91016 1.98493 1.91016 2.39519V5.64111Z"
				fill="var(--green)" />
			<path fill-rule="evenodd" clip-rule="evenodd"
				d="M15.1592 20.5532C16.7725 20.5532 18.0801 19.2456 18.0801 17.6318C18.0801 16.0186 16.7725 14.7105 15.1592 14.7105C13.545 14.7105 12.2373 16.0186 12.2373 17.6318C12.2373 19.2456 13.545 20.5532 15.1592 20.5532ZM15.1592 19.5532C16.2198 19.5532 17.0801 18.6934 17.0801 17.6318C17.0801 16.5708 16.2198 15.7105 15.1592 15.7105C14.0977 15.7105 13.2373 16.5708 13.2373 17.6318C13.2373 18.6934 14.0977 19.5532 15.1592 19.5532Z"
				fill="var(--green)" />
			<path fill-rule="evenodd" clip-rule="evenodd"
				d="M13.7754 26.4131H16.541C16.7285 26.4111 16.9112 26.373 17.0811 26.3027C17.2569 26.23 17.419 26.1221 17.5567 25.9844C17.8252 25.7139 17.9776 25.3481 17.9795 24.9668V24.4873C18.5645 24.2456 19.1153 23.9287 19.6172 23.5444L20.0332 23.7842C20.1739 23.8638 20.3252 23.9189 20.4805 23.9482C20.6934 23.9888 20.9151 23.9814 21.128 23.9243C21.4971 23.8257 21.8125 23.5859 22.0069 23.2568L23.4209 20.8037C23.6094 20.4736 23.6602 20.0825 23.5635 19.7148C23.4659 19.3472 23.2285 19.0322 22.9014 18.8379L22.8858 18.8301L22.4463 18.5742C22.5176 17.9478 22.5176 17.3149 22.4463 16.6885L22.8692 16.4409C23.0918 16.3101 23.2725 16.124 23.3965 15.9028C23.4551 15.7988 23.501 15.687 23.5332 15.5698C23.5576 15.4761 23.5733 15.3809 23.5791 15.2856C23.584 15.1968 23.5821 15.1074 23.5713 15.019C23.5586 14.9146 23.5352 14.8115 23.5 14.7114C23.4707 14.6274 23.4336 14.5459 23.3887 14.4673L21.9746 12.0142C21.7803 11.6855 21.4639 11.4468 21.0948 11.3496C20.7246 11.2524 20.3321 11.3047 20.001 11.4951L19.586 11.7349C19.084 11.3511 18.5362 11.0313 17.9551 10.7837V10.2886C17.9541 9.90576 17.8008 9.54004 17.5293 9.27002C17.2588 9.00049 16.8916 8.84961 16.5088 8.8501H13.8076C13.4248 8.84961 13.0576 9.00049 12.7871 9.27002C12.5157 9.54004 12.3623 9.90576 12.3614 10.2886V10.7837C11.7803 11.0313 11.2325 11.3511 10.7305 11.7349L10.3155 11.4951C9.98441 11.3047 9.59183 11.2524 9.22171 11.3496C8.85257 11.4468 8.53616 11.6855 8.34183 12.0142L6.92776 14.4673C6.73733 14.8018 6.68558 15.1978 6.78323 15.5698C6.88284 15.936 7.12015 16.2485 7.4473 16.4409L7.87015 16.6885C7.79886 17.3149 7.79886 17.9478 7.87015 18.5742L7.43069 18.8301L7.41507 18.8379C7.08792 19.0322 6.85062 19.3472 6.75296 19.7148C6.70316 19.9043 6.69241 20.1001 6.71976 20.2905C6.74515 20.4692 6.80374 20.6436 6.89554 20.8037L8.3096 23.2568C8.50394 23.5859 8.81937 23.8257 9.18851 23.9243C9.42874 23.9888 9.67972 23.9897 9.91702 23.9307C10.044 23.8989 10.167 23.8501 10.2832 23.7842L10.6992 23.5444C10.834 23.648 10.9727 23.7461 11.1143 23.8394C11.5 24.0933 11.9092 24.3105 12.3369 24.4873V24.9668C12.3389 25.3481 12.4912 25.7139 12.7598 25.9844C13.0293 26.2549 13.3936 26.4087 13.7754 26.4131ZM13.8076 9.8501C13.7432 9.8501 13.6817 9.86328 13.625 9.88818C13.5762 9.90967 13.5313 9.94043 13.4922 9.979C13.4346 10.0366 13.3936 10.1079 13.375 10.1855C13.3662 10.2197 13.3614 10.2549 13.3614 10.291V11.4443L12.753 11.7036C12.5303 11.7988 12.3125 11.9063 12.1016 12.0254C11.836 12.1753 11.5811 12.3433 11.3389 12.5288L10.8086 12.9341L9.81741 12.3618C9.7139 12.3027 9.59183 12.2866 9.47659 12.3169C9.36234 12.3467 9.26566 12.4194 9.20413 12.52L7.79593 14.9634C7.77444 15.002 7.75882 15.043 7.74808 15.085C7.7305 15.1592 7.7305 15.2373 7.75003 15.3125C7.78128 15.4243 7.85452 15.5195 7.95511 15.5796L8.93851 16.1548L8.86429 16.8027C8.80081 17.3535 8.80081 17.9097 8.86429 18.4605L8.93851 19.1099L7.90628 19.7105C7.81351 19.7725 7.74808 19.8643 7.71976 19.9702C7.68948 20.0835 7.70511 20.2046 7.7637 20.3081L9.17288 22.7515C9.23441 22.8535 9.33206 22.9272 9.4473 22.958C9.50198 22.9727 9.55862 22.9771 9.61429 22.9712C9.67484 22.9644 9.73441 22.9458 9.78812 22.9155L10.7764 22.3452L11.3067 22.75C11.7403 23.0811 12.2149 23.3545 12.7188 23.563L13.3369 23.8184V24.9634C13.3379 25.0225 13.3506 25.0806 13.3731 25.1343C13.3955 25.188 13.4278 25.2373 13.4688 25.2793C13.5518 25.3628 13.6641 25.4106 13.7823 25.4131H16.5342C16.6524 25.4106 16.7647 25.3628 16.8477 25.2793C16.9053 25.2207 16.9463 25.1489 16.9659 25.0708C16.9746 25.0361 16.9795 25 16.9795 24.9634V23.8184L17.5977 23.563C17.8418 23.4619 18.0791 23.3452 18.3086 23.2144C18.4229 23.1494 18.5352 23.0806 18.6455 23.0083C18.7696 22.9268 18.8916 22.8403 19.0098 22.75L19.5401 22.3452L20.5284 22.9155C20.5996 22.9556 20.6807 22.9751 20.7608 22.9736C20.7969 22.9727 20.833 22.9678 20.8692 22.958C20.9844 22.9272 21.0821 22.8535 21.1436 22.7515L22.5528 20.3081C22.6114 20.2046 22.627 20.0835 22.5967 19.9702C22.5684 19.8643 22.503 19.7725 22.4102 19.7105L21.378 19.1099L21.4522 18.4605C21.4727 18.2842 21.4864 18.1074 21.4932 17.9302C21.5088 17.5542 21.4951 17.1772 21.4522 16.8027L21.378 16.1548L22.3614 15.5796C22.4619 15.5195 22.5352 15.4243 22.5664 15.3125C22.5821 15.2515 22.585 15.1885 22.5762 15.1274C22.5674 15.0703 22.5489 15.0146 22.5205 14.9634L21.1123 12.52C21.083 12.4727 21.0459 12.4312 21.003 12.3975C20.9551 12.3604 20.9004 12.3325 20.8399 12.3169C20.7246 12.2866 20.6026 12.3027 20.4991 12.3618L19.5078 12.9341L18.9776 12.5288C18.543 12.1958 18.0674 11.9185 17.5635 11.7036L16.9551 11.4443V10.291C16.9551 10.2661 16.9532 10.2417 16.9492 10.2173C16.9405 10.1655 16.9219 10.1162 16.8955 10.0713C16.876 10.0376 16.8526 10.0068 16.8242 9.979C16.7666 9.92188 16.6953 9.88233 16.6172 9.86328C16.5821 9.85449 16.5459 9.8501 16.5088 9.8501H13.8076Z"
				fill="var(--green)" />
		</symbol>
		<symbol id="overview-setting-icon" viewBox="0 0 17 17">
			<path fill-rule="evenodd" clip-rule="evenodd"
				d="M2.42383 0.761719H6.09961C6.92804 0.761719 7.59961 1.43329 7.59961 2.26172V14.6377C7.59961 15.4661 6.92804 16.1377 6.09961 16.1377H2.42383C1.5954 16.1377 0.923828 15.4661 0.923828 14.6377V2.26172C0.923828 1.43329 1.5954 0.761719 2.42383 0.761719ZM2.42383 1.76172C2.14769 1.76172 1.92383 1.98558 1.92383 2.26172V14.6377C1.92383 14.9138 2.14769 15.1377 2.42383 15.1377H6.09961C6.37575 15.1377 6.59961 14.9138 6.59961 14.6377V2.26172C6.59961 1.98558 6.37575 1.76172 6.09961 1.76172H2.42383Z"
				style="fill:var(--overview-icon-fill)" />
			<path fill-rule="evenodd" clip-rule="evenodd"
				d="M11.1777 0.761719H14.8535C15.6819 0.761719 16.3535 1.43329 16.3535 2.26172V5.94434C16.3535 6.77276 15.6819 7.44434 14.8535 7.44434H11.1777C10.3493 7.44434 9.67773 6.77276 9.67773 5.94434V2.26172C9.67773 1.43329 10.3493 0.761719 11.1777 0.761719ZM11.1777 1.76172C10.9016 1.76172 10.6777 1.98558 10.6777 2.26172V5.94434C10.6777 6.22048 10.9016 6.44434 11.1777 6.44434H14.8535C15.1297 6.44434 15.3535 6.22048 15.3535 5.94434V2.26172C15.3535 1.98558 15.1297 1.76172 14.8535 1.76172H11.1777Z"
				style="fill:var(--overview-icon-fill)" />
			<path fill-rule="evenodd" clip-rule="evenodd"
				d="M14.8535 9.45508H11.1777C10.3493 9.45508 9.67773 10.1267 9.67773 10.9551V14.6377C9.67773 15.4661 10.3493 16.1377 11.1777 16.1377H14.8535C15.6819 16.1377 16.3535 15.4661 16.3535 14.6377V10.9551C16.3535 10.1267 15.6819 9.45508 14.8535 9.45508ZM10.6777 10.9551C10.6777 10.6789 10.9016 10.4551 11.1777 10.4551H14.8535C15.1297 10.4551 15.3535 10.6789 15.3535 10.9551V14.6377C15.3535 14.9138 15.1297 15.1377 14.8535 15.1377H11.1777C10.9016 15.1377 10.6777 14.9138 10.6777 14.6377V10.9551Z"
				style="fill:var(--overview-icon-fill)" />
		</symbol>
		<symbol id="menu-setting-icon" viewBox="0 0 22 23">
			<path fill-rule="evenodd" clip-rule="evenodd"
				d="M14.2965 11.4415C14.2965 13.4608 12.6595 15.0978 10.6402 15.0978C8.62088 15.0978 6.98389 13.4608 6.98389 11.4415C6.98389 9.42215 8.62088 7.78516 10.6402 7.78516C12.6595 7.78516 14.2965 9.42215 14.2965 11.4415ZM13.2965 11.4415C13.2965 12.9085 12.1073 14.0978 10.6402 14.0978C9.17317 14.0978 7.98389 12.9085 7.98389 11.4415C7.98389 9.97443 9.17317 8.78516 10.6402 8.78516C12.1073 8.78516 13.2965 9.97443 13.2965 11.4415Z"
				style="fill:var(--setting-icon-fill)" />
			<path fill-rule="evenodd" clip-rule="evenodd"
				d="M21.2172 14.0475C21.0956 13.5874 20.7982 13.1934 20.3889 12.9505L20.3689 12.9405L19.8189 12.6205C19.9089 11.8363 19.9089 11.0445 19.8189 10.2604L20.3489 9.9504C20.7574 9.70944 21.0553 9.3182 21.1789 8.86037C21.3015 8.39451 21.2369 7.89919 20.9989 7.48035L19.2289 4.41028C18.9853 3.99896 18.5895 3.70011 18.1272 3.57846C17.6649 3.4568 17.1733 3.52212 16.7588 3.76027L16.2388 4.06027C15.6112 3.57997 14.9258 3.18019 14.1988 2.87025V2.25024C14.1969 1.77167 14.0053 1.31339 13.666 0.97593C13.3266 0.638471 12.8673 0.4494 12.3887 0.450198H8.84866C8.37222 0.453343 7.91621 0.643999 7.57932 0.980892C7.24242 1.31779 7.05177 1.77381 7.04862 2.25024V2.85025C6.31456 3.15232 5.62493 3.55265 4.99858 4.04027L4.48857 3.75027C4.07389 3.51291 3.58255 3.44803 3.12048 3.56963C2.6584 3.69123 2.26264 3.98955 2.01852 4.40028L0.248478 7.47035C0.0105252 7.88919 -0.0540805 8.38451 0.0684739 8.85038C0.128323 9.07773 0.232442 9.29104 0.374874 9.47809C0.517305 9.66513 0.695238 9.82224 0.898492 9.9404L1.4185 10.2404C1.31851 11.0273 1.31851 11.8236 1.4185 12.6105L0.888491 12.9205C0.478946 13.1657 0.181642 13.5614 0.060162 14.023C-0.0613184 14.4847 0.00268257 14.9755 0.238478 15.3905L2.00852 18.4506C2.25043 18.8637 2.64623 19.1641 3.10923 19.286C3.57223 19.4078 4.06463 19.3411 4.47857 19.1006L4.98858 18.8106C5.63154 19.303 6.33368 19.7129 7.07862 20.0306V20.6306C7.08742 21.107 7.28124 21.5613 7.61908 21.8972C7.95693 22.2332 8.41224 22.4245 8.88866 22.4307H12.4287C12.9062 22.4254 13.3625 22.2327 13.6993 21.8941C14.036 21.5555 14.2262 21.0982 14.2288 20.6206V20.0206C14.9606 19.7181 15.6497 19.3214 16.2788 18.8406L16.7988 19.1406C17.2149 19.3763 17.7069 19.4392 18.1688 19.3158C18.6308 19.1923 19.0259 18.8924 19.2689 18.4806L21.0389 15.4105C21.2747 14.9971 21.3387 14.5076 21.2172 14.0475ZM18.7509 13.156L19.8934 13.8207L19.9031 13.8256C20.0741 13.9355 20.1982 14.1057 20.2503 14.303C20.3048 14.509 20.2764 14.7281 20.1713 14.9134L20.1703 14.915L18.4056 17.9758C18.2957 18.1601 18.1181 18.2942 17.9107 18.3497C17.703 18.4052 17.4819 18.3773 17.2945 18.2721L16.2012 17.6413L15.6715 18.0461C15.1116 18.4741 14.4981 18.8272 13.8468 19.0964L13.2288 19.3519V20.6173C13.2271 20.8317 13.1414 21.0369 12.9902 21.189C12.8395 21.3405 12.6357 21.4272 12.4221 21.4307H8.89645C8.68166 21.4266 8.47666 21.3397 8.32422 21.1882C8.17235 21.0371 8.08447 20.8335 8.07862 20.6196V19.37L7.47094 19.1108C6.8029 18.8259 6.17323 18.4583 5.59661 18.0167L5.07042 17.6137L3.98424 18.2313L3.97613 18.236C3.79099 18.3436 3.57079 18.3734 3.36372 18.3189C3.15736 18.2646 2.98085 18.131 2.87256 17.9471L2.87146 17.9453L1.10641 14.8938C1.00094 14.7065 0.97251 14.4855 1.02724 14.2775C1.08188 14.0699 1.21511 13.8917 1.39868 13.7805L2.49384 13.14L2.41052 12.4844C2.32117 11.7812 2.32117 11.0696 2.41052 10.3665L2.49438 9.70661L1.40108 9.07587L1.39988 9.07517C1.31088 9.02322 1.23293 8.95428 1.17047 8.87226C1.10778 8.78993 1.06194 8.69604 1.03557 8.59596C0.979692 8.38356 1.00882 8.15778 1.11669 7.96655L2.88087 4.90665C2.99115 4.72381 3.16836 4.59107 3.37497 4.5367C3.5833 4.48188 3.80482 4.51113 3.9918 4.61815L5.08539 5.24L5.61288 4.82935C6.16782 4.39732 6.77882 4.04264 7.42917 3.77501L8.04862 3.5201V2.25417C8.05072 2.04163 8.13608 1.83834 8.28642 1.688C8.43678 1.53764 8.64007 1.45229 8.85262 1.4502L12.3887 1.4502L12.3904 1.4502C12.6041 1.44984 12.8093 1.53428 12.9608 1.685C13.112 1.83533 13.1975 2.03937 13.1988 2.25253V3.53103L13.8066 3.79015C14.4568 4.06734 15.0698 4.42488 15.6311 4.85444L16.1608 5.25977L17.2575 4.62706C17.4439 4.52013 17.6649 4.49084 17.8727 4.54553C18.0792 4.59987 18.2562 4.73277 18.366 4.91577L20.1294 7.97432L20.1307 7.97655C20.238 8.16682 20.2674 8.3913 20.2127 8.60277C20.1568 8.80653 20.0239 8.98063 19.8421 9.08833L19.8408 9.0891L18.751 9.7265L18.8254 10.3744C18.9067 11.0828 18.9067 11.7981 18.8254 12.5064L18.7509 13.156Z"
				style="fill:var(--setting-icon-fill)" />
		</symbol>
		<symbol id="menu-help-icon" viewBox="0 0 21 21">
			<path
				d="M11.2843 4.41412L11.0762 4.37912C10.8672 4.3587 10.6571 4.35269 10.4473 4.36111C9.50015 4.41605 8.60882 4.82715 7.95222 5.51193C7.29562 6.19672 6.92231 7.10452 6.90724 8.05313V8.21011C6.90413 8.28146 6.91553 8.35269 6.94069 8.41953C6.96585 8.48633 7.00428 8.54736 7.05366 8.59894C7.10304 8.65054 7.16237 8.69159 7.22804 8.7196C7.29371 8.74765 7.36434 8.76212 7.43574 8.76212C7.50715 8.76212 7.57784 8.74765 7.64351 8.7196C7.70917 8.69159 7.7685 8.65054 7.81788 8.59894C7.86726 8.54736 7.9057 8.48633 7.93086 8.41953C7.95602 8.35269 7.96735 8.28146 7.96424 8.21011V8.05411C7.97365 7.37723 8.23882 6.72894 8.70643 6.23944C9.17405 5.74994 9.80948 5.45544 10.4852 5.41513H10.6003C10.7675 5.41528 10.9345 5.42599 11.1003 5.44711C11.727 5.55273 12.2952 5.87943 12.7017 6.36798C13.1083 6.85654 13.3263 7.47461 13.3162 8.11011C13.2899 8.59964 13.1258 9.07178 12.8427 9.47198C12.5596 9.87222 12.1691 10.1843 11.7163 10.3721C11.3585 10.5047 10.9907 10.608 10.6163 10.6811C10.5086 10.6994 10.4099 10.7524 10.3353 10.8321C10.2526 10.9199 10.189 11.0239 10.1486 11.1375C10.1081 11.2511 10.0917 11.3718 10.1003 11.4921V13.3671C10.0972 13.4384 10.1085 13.5097 10.1337 13.5765C10.1588 13.6433 10.1973 13.7044 10.2467 13.756C10.296 13.8075 10.3554 13.8486 10.421 13.8766C10.4867 13.9047 10.5573 13.9191 10.6287 13.9191C10.7001 13.9191 10.7708 13.9047 10.8365 13.8766C10.9022 13.8486 10.9615 13.8075 11.0109 13.756C11.0603 13.7044 11.0987 13.6433 11.1239 13.5765C11.149 13.5097 11.1603 13.4384 11.1572 13.3671V11.6481L11.3713 11.5911C11.6111 11.528 11.8474 11.4522 12.0792 11.3641C12.7275 11.1031 13.2875 10.6621 13.6933 10.0931C14.0991 9.52417 14.3336 8.85101 14.3693 8.15311C14.3867 7.26215 14.084 6.39444 13.5164 5.70752C12.9487 5.02057 12.1536 4.55991 11.2753 4.40912L11.2843 4.41412Z"
				style="fill:var(--help-icon-fill)" />
			<path
				d="M10.2142 15.1219C10.1091 15.2328 10.051 15.3801 10.0522 15.5329C10.0491 15.6101 10.0623 15.6872 10.0909 15.759C10.1195 15.8309 10.1629 15.8959 10.2182 15.9499C10.2736 16.0073 10.34 16.053 10.4133 16.0844C10.4866 16.1158 10.5654 16.1323 10.6452 16.1329C10.721 16.1317 10.796 16.1164 10.8662 16.0879C10.9385 16.0583 11.0036 16.0136 11.0572 15.9569C11.109 15.901 11.151 15.8368 11.1812 15.7669C11.2142 15.6971 11.2316 15.621 11.2322 15.5439C11.2322 15.4661 11.2165 15.389 11.1861 15.3174C11.1557 15.2458 11.1112 15.181 11.0552 15.1269L11.0462 15.1219C10.932 15.0171 10.7827 14.959 10.6277 14.959C10.4727 14.959 10.3234 15.0171 10.2092 15.1219H10.2142Z"
				style="fill:var(--help-icon-fill)" />
			<path fill-rule="evenodd" clip-rule="evenodd"
				d="M20.4336 10.2451C20.4336 15.6547 16.0483 20.04 10.6387 20.04C5.22909 20.04 0.84375 15.6547 0.84375 10.2451C0.84375 4.83554 5.22909 0.450195 10.6387 0.450195C16.0483 0.450195 20.4336 4.83554 20.4336 10.2451ZM19.4336 10.2451C19.4336 15.1024 15.496 19.04 10.6387 19.04C5.78137 19.04 1.84375 15.1024 1.84375 10.2451C1.84375 5.38782 5.78137 1.4502 10.6387 1.4502C15.496 1.4502 19.4336 5.38782 19.4336 10.2451Z"
				style="fill:var(--help-icon-fill)" />
		</symbol>
		<symbol width="8" height="14" id="chevron-right-icon" viewBox="0 0 8 14" fill="none">
			<path d="M7 13L1 7L7 1" stroke-linecap="round" stroke-linejoin="round" />
		</symbol>
		<symbol id="cleanup-settings-icon" viewBox="0 0 23 19" fill="none">
			<path
				d="M15.0949 1.69197C14.7066 1.69197 14.3919 2.0067 14.3919 2.39495C14.3919 2.78319 14.7066 3.09793 15.0949 3.09793C15.4831 3.09793 15.7978 2.78319 15.7978 2.39495C15.7978 2.0067 15.4831 1.69197 15.0949 1.69197Z"
				style="fill:var(--cleanup-settings-icon-fill)" />
			<path
				d="M17.3066 1.69197C16.9184 1.69197 16.6036 2.0067 16.6036 2.39495C16.6036 2.78319 16.9184 3.09793 17.3066 3.09793C17.6948 3.09793 18.0096 2.78319 18.0096 2.39495C18.0096 2.0067 17.6948 1.69197 17.3066 1.69197Z"
				style="fill:var(--cleanup-settings-icon-fill)" />
			<path
				d="M19.5183 1.69197C19.1301 1.69197 18.8154 2.0067 18.8154 2.39495C18.8154 2.78319 19.1301 3.09793 19.5183 3.09793C19.9066 3.09793 20.2213 2.78319 20.2213 2.39495C20.2213 2.0067 19.9066 1.69197 19.5183 1.69197Z"
				style="fill:var(--cleanup-settings-icon-fill)" />
			<path fill-rule="evenodd" clip-rule="evenodd"
				d="M2.20988 0.114258C1.41925 0.114258 0.77832 0.755192 0.77832 1.54582V14.8332C0.77832 15.6239 1.41925 16.2648 2.20988 16.2648H6.47661C6.51826 16.2648 6.55804 16.2475 6.58641 16.217C6.61479 16.1865 6.62921 16.1456 6.62623 16.1041L6.57336 15.3675C6.56772 15.2891 6.50242 15.2283 6.42374 15.2283H2.20988C1.99171 15.2283 1.81485 15.0514 1.81485 14.8332V4.82588H21.0271V14.8332C21.0271 15.0514 20.8503 15.2283 20.6321 15.2283H16.3631C16.2844 15.2283 16.219 15.2891 16.2135 15.3677L16.1612 16.1042C16.1583 16.1457 16.1727 16.1866 16.2011 16.217C16.2294 16.2475 16.2692 16.2648 16.3108 16.2648H20.6321C21.4227 16.2648 22.0637 15.6239 22.0637 14.8332V1.54582C22.0637 0.75519 21.4227 0.114258 20.6321 0.114258H2.20988ZM1.81485 1.54582C1.81485 1.32765 1.99171 1.15079 2.20988 1.15079H20.6321C20.8503 1.15079 21.0271 1.32765 21.0271 1.54582V3.78935H1.81485V1.54582Z"
				style="fill:var(--cleanup-settings-icon-fill)" />
			<path
				d="M10.1364 10.1843C9.85014 10.1843 9.6181 10.4164 9.6181 10.7026V16.0229C9.6181 16.3091 9.85014 16.5412 10.1364 16.5412C10.4226 16.5412 10.6546 16.3091 10.6546 16.0229V10.7026C10.6546 10.4164 10.4226 10.1843 10.1364 10.1843Z"
				style="fill:var(--cleanup-settings-icon-fill)" />
			<path
				d="M12.7063 10.1843C12.4201 10.1843 12.188 10.4164 12.188 10.7026V16.0229C12.188 16.3091 12.4201 16.5412 12.7063 16.5412C12.9925 16.5412 13.2246 16.3091 13.2246 16.0229V10.7026C13.2246 10.4164 12.9925 10.1843 12.7063 10.1843Z"
				style="fill:var(--cleanup-settings-icon-fill)" />
			<path fill-rule="evenodd" clip-rule="evenodd"
				d="M10.0116 6.25032C9.78848 6.25032 9.59044 6.39307 9.51989 6.6047L9.16785 7.66082H6.44581C6.15958 7.66082 5.92755 7.89285 5.92755 8.17908C5.92755 8.46531 6.15958 8.69735 6.44581 8.69735H7.06938L7.7745 18.5198C7.79397 18.7909 8.01961 19.0009 8.29144 19.0009H14.5624C14.8344 19.0009 15.0601 18.7907 15.0794 18.5193L15.7763 8.69735H16.3995C16.6857 8.69735 16.9177 8.46531 16.9177 8.17908C16.9177 7.89285 16.6857 7.66082 16.3995 7.66082H13.6766L13.3246 6.6047C13.254 6.39307 13.056 6.25032 12.8329 6.25032H10.0116ZM10.2604 7.66082L10.3851 7.28685H12.4593L12.584 7.66082H10.2604ZM8.77383 17.9644L8.10858 8.69735H14.7372L14.0796 17.9644H8.77383Z"
				style="fill:var(--cleanup-settings-icon-fill)" />
		</symbol>
		<symbol id="website-settings-icon" width="23" height="20" viewBox="0 0 23 20" fill="none">
			<path
				d="M15.0721 2.35352C14.7712 2.35352 14.5273 2.59741 14.5273 2.89825C14.5273 3.1991 14.7712 3.44299 15.0721 3.44299C15.3729 3.44299 15.6168 3.1991 15.6168 2.89825C15.6168 2.59741 15.3729 2.35352 15.0721 2.35352Z"
				style="fill:var(--website-settings-icon-fill)" />
			<path
				d="M16.7051 2.89825C16.7051 2.59741 16.949 2.35352 17.2498 2.35352C17.5507 2.35352 17.7946 2.59741 17.7946 2.89825C17.7946 3.1991 17.5507 3.44299 17.2498 3.44299C16.949 3.44299 16.7051 3.1991 16.7051 2.89825Z"
				style="fill:var(--website-settings-icon-fill)" />
			<path
				d="M18.8848 2.89825C18.8848 2.59741 19.1287 2.35352 19.4295 2.35352C19.7304 2.35352 19.9742 2.59741 19.9742 2.89825C19.9742 3.1991 19.7304 3.44299 19.4295 3.44299C19.1287 3.44299 18.8848 3.1991 18.8848 2.89825Z"
				style="fill:var(--website-settings-icon-fill)" />
			<path fill-rule="evenodd" clip-rule="evenodd"
				d="M20.5866 0.524414H2.31842C1.50291 0.524414 0.841797 1.18552 0.841797 2.00104V15.211C0.841797 16.0265 1.50291 16.6876 2.31842 16.6876H5.00776L4.55394 15.903C4.51416 15.833 4.47871 15.761 4.44766 15.6876H2.31842C2.05519 15.6876 1.8418 15.4742 1.8418 15.211V5.28125H21.0633V15.211C21.0633 15.4742 20.8499 15.6876 20.5866 15.6876H18.4629C18.4304 15.7656 18.393 15.8419 18.3507 15.9161L18.3484 15.9201L17.9059 16.6876H20.5866C21.4022 16.6876 22.0633 16.0265 22.0633 15.211V2.00104C22.0633 1.18552 21.4022 0.524414 20.5866 0.524414ZM20.5866 1.52441H2.31842C2.05519 1.52441 1.8418 1.73779 1.8418 2.00104V4.28125H21.0633V2.00104C21.0633 1.73779 20.8499 1.52441 20.5866 1.52441Z"
				style="fill:var(--website-settings-icon-fill)" />
			<path fill-rule="evenodd" clip-rule="evenodd"
				d="M11.4537 15.2384C12.6243 15.2384 13.5734 14.2894 13.5734 13.1187C13.5734 11.948 12.6243 10.999 11.4537 10.999C10.283 10.999 9.33398 11.948 9.33398 13.1187C9.33398 14.2894 10.283 15.2384 11.4537 15.2384ZM11.4537 14.2384C12.0721 14.2384 12.5734 13.7371 12.5734 13.1187C12.5734 12.5003 12.0721 11.999 11.4537 11.999C10.8353 11.999 10.334 12.5003 10.334 13.1187C10.334 13.7371 10.8353 14.2384 11.4537 14.2384Z"
				style="fill:var(--website-settings-icon-fill)" />
			<path fill-rule="evenodd" clip-rule="evenodd"
				d="M12.4903 6.74707H10.414C10.1378 6.7489 9.87345 6.85944 9.67814 7.05475C9.48283 7.25003 9.3723 7.5144 9.37048 7.79062V8.13846C8.94492 8.31357 8.54512 8.54565 8.18201 8.82834L7.88634 8.66022C7.64594 8.52261 7.3611 8.48502 7.09322 8.55551C6.82534 8.62601 6.5959 8.79895 6.45437 9.03705L5.42823 10.8169C5.29028 11.0597 5.25283 11.3468 5.32388 11.6169C5.35857 11.7487 5.41893 11.8724 5.5015 11.9808C5.58408 12.0893 5.68723 12.1803 5.80506 12.2488L6.10653 12.4228C6.04856 12.8789 6.04856 13.3406 6.10653 13.7968L5.79926 13.9765C5.56184 14.1186 5.38948 14.3481 5.31906 14.6157C5.24863 14.8833 5.28573 15.1678 5.42243 15.4084L6.44858 17.1824C6.58882 17.422 6.81828 17.5961 7.0867 17.6667C7.35511 17.7374 7.64057 17.6987 7.88054 17.5593L8.17621 17.3911C8.54896 17.6766 8.95601 17.9142 9.38787 18.0984V18.4463C9.39297 18.7224 9.50534 18.9858 9.70119 19.1806C9.89705 19.3753 10.161 19.4863 10.4372 19.4898H12.4671C12.7433 19.4863 13.0072 19.3753 13.2031 19.1806C13.399 18.9858 13.5113 18.7224 13.5164 18.4463V18.0984C13.9483 17.9142 14.3553 17.6766 14.7281 17.3911L15.0238 17.5593C15.2637 17.6987 15.5492 17.7374 15.8176 17.6667C16.086 17.5961 16.3155 17.422 16.4557 17.1824L17.4819 15.4084C17.6186 15.1678 17.6557 14.8833 17.5852 14.6157C17.5148 14.3481 17.3425 14.1186 17.105 13.9765L16.7978 13.7968C16.8557 13.3406 16.8557 12.8789 16.7978 12.4228L17.0992 12.2488C17.2171 12.1803 17.3202 12.0893 17.4028 11.9808C17.4854 11.8724 17.5457 11.7487 17.5804 11.6169C17.6515 11.3468 17.614 11.0597 17.4761 10.8169L16.4499 9.03705C16.3084 8.79895 16.079 8.62601 15.8111 8.55551C15.5432 8.48502 15.2584 8.52261 15.018 8.66022L14.7223 8.82834C14.3592 8.54565 13.9594 8.31357 13.5338 8.13846V7.79062C13.532 7.5144 13.4215 7.25003 13.2262 7.05475C13.0308 6.85944 12.7665 6.7489 12.4903 6.74707ZM12.4802 18.4839C12.4729 18.4874 12.4649 18.4894 12.4567 18.4898H10.4476C10.4394 18.4894 10.4314 18.4874 10.4241 18.4839C10.4176 18.4809 10.4115 18.4767 10.4063 18.4715C10.3955 18.4608 10.389 18.4465 10.3879 18.4315V17.4378L9.78019 17.1786C9.42522 17.0272 9.09064 16.8319 8.78424 16.5972L8.25805 16.1942L7.38624 16.69L7.3781 16.6947C7.36694 16.7011 7.35367 16.7029 7.34119 16.6997C7.33213 16.6973 7.32403 16.6924 7.31777 16.6856C7.31562 16.6833 7.31369 16.6807 7.31202 16.678L6.29118 14.9131C6.28914 14.9093 6.28754 14.9053 6.28639 14.9012C6.2855 14.8981 6.28488 14.8948 6.28453 14.8916C6.28375 14.8845 6.28427 14.8772 6.28613 14.8701C6.2899 14.8558 6.2989 14.8435 6.31129 14.8355L7.18186 14.3263L7.09855 13.6707C7.05122 13.2982 7.05122 12.9213 7.09855 12.5488L7.1824 11.889L6.30765 11.3843L6.29093 11.3623C6.28651 11.3454 6.28872 11.3274 6.29708 11.312L7.31531 9.5459C7.32285 9.53439 7.33438 9.52609 7.34771 9.52258C7.35517 9.52063 7.36288 9.52023 7.37037 9.52139C7.37706 9.52243 7.38358 9.52469 7.38957 9.52811L8.26882 10.0281L8.79631 9.61743C9.08802 9.39032 9.40918 9.20389 9.75103 9.06323L10.3705 8.80832V7.79602C10.3709 7.78317 10.3761 7.77094 10.3852 7.76184C10.3944 7.75272 10.4066 7.74747 10.4194 7.74707H12.4849C12.4977 7.74747 12.5099 7.75272 12.5191 7.76184C12.5282 7.77094 12.5334 7.78317 12.5338 7.79602V8.80832L13.1533 9.06323C13.4951 9.20389 13.8163 9.39032 14.108 9.61743L14.6355 10.0281L15.5147 9.52811C15.5274 9.52084 15.5425 9.51886 15.5566 9.52258C15.5699 9.52609 15.5815 9.53439 15.589 9.5459L16.6072 11.312C16.6121 11.321 16.6149 11.3309 16.6155 11.3409C16.6159 11.3481 16.6152 11.3553 16.6134 11.3623L16.5966 11.3843L15.7219 11.889L15.8057 12.5488C15.8531 12.9213 15.8531 13.2982 15.8057 13.6707L15.7224 14.3263L16.593 14.8355C16.6054 14.8435 16.6144 14.8558 16.6182 14.8701C16.62 14.8772 16.6205 14.8845 16.6198 14.8916C16.619 14.8991 16.6167 14.9064 16.6131 14.9131L15.5923 16.678C15.5857 16.6887 15.5753 16.6965 15.5631 16.6997C15.5506 16.7029 15.5374 16.7011 15.5262 16.6947L15.5181 16.69L14.6462 16.1942L14.1201 16.5972C13.8137 16.8319 13.4791 17.0272 13.1241 17.1786L12.5164 17.4378V18.4315C12.5153 18.4465 12.5087 18.4608 12.498 18.4715C12.4946 18.4749 12.4908 18.4778 12.4868 18.4803C12.4847 18.4817 12.4825 18.4828 12.4802 18.4839Z"
				style="fill:var(--website-settings-icon-fill)" />
		</symbol>
		<symbol id="appearance-settings-icon" viewBox="0 0 19 19" fill="none">
			<path fill-rule="evenodd" clip-rule="evenodd"
				d="M6.01575 8.30861C6.01575 9.32345 5.19305 10.1461 4.17822 10.1461C3.16337 10.1461 2.34068 9.32345 2.34068 8.30861C2.34068 7.29377 3.16337 6.47108 4.17822 6.47108C5.19305 6.47108 6.01575 7.29377 6.01575 8.30861ZM4.17822 9.15789C4.64726 9.15789 5.02749 8.77766 5.02749 8.30861C5.02749 7.83957 4.64726 7.45934 4.17822 7.45934C3.70917 7.45934 3.32894 7.83957 3.32894 8.30861C3.32894 8.77766 3.70917 9.15789 4.17822 9.15789Z"
				style="fill:var(--appearance-icon-fill)" />
			<path fill-rule="evenodd" clip-rule="evenodd"
				d="M7.13525 6.50872C8.15009 6.50872 8.97278 5.68603 8.97278 4.67119C8.97278 3.65635 8.15009 2.83366 7.13525 2.83366C6.12041 2.83366 5.29772 3.65635 5.29772 4.67119C5.29772 5.68603 6.12041 6.50872 7.13525 6.50872ZM7.98453 4.67119C7.98453 5.14024 7.60429 5.52047 7.13525 5.52047C6.6662 5.52047 6.28597 5.14024 6.28597 4.67119C6.28597 4.20215 6.6662 3.82191 7.13525 3.82191C7.60429 3.82191 7.98453 4.20215 7.98453 4.67119Z"
				style="fill:var(--appearance-icon-fill)" />
			<path fill-rule="evenodd" clip-rule="evenodd"
				d="M13.8272 4.98388C13.8272 5.99872 13.0045 6.82141 11.9896 6.82141C10.9748 6.82141 10.1521 5.99872 10.1521 4.98388C10.1521 3.96904 10.9748 3.14635 11.9896 3.14635C13.0045 3.14635 13.8272 3.96904 13.8272 4.98388ZM11.9896 5.83316C12.4587 5.83316 12.8389 5.45293 12.8389 4.98388C12.8389 4.51484 12.4587 4.1346 11.9896 4.1346C11.5206 4.1346 11.1404 4.51484 11.1404 4.98388C11.1404 5.45293 11.5206 5.83316 11.9896 5.83316Z"
				style="fill:var(--appearance-icon-fill)" />
			<path fill-rule="evenodd" clip-rule="evenodd"
				d="M14.6629 11.1817C15.6778 11.1817 16.5005 10.359 16.5005 9.34416C16.5005 8.32932 15.6778 7.50663 14.6629 7.50663C13.6481 7.50663 12.8254 8.32932 12.8254 9.34416C12.8254 10.359 13.6481 11.1817 14.6629 11.1817ZM15.5122 9.34416C15.5122 9.8132 15.132 10.1934 14.6629 10.1934C14.1939 10.1934 13.8137 9.8132 13.8137 9.34416C13.8137 8.87511 14.1939 8.49488 14.6629 8.49488C15.132 8.49488 15.5122 8.87511 15.5122 9.34416Z"
				style="fill:var(--appearance-icon-fill)" />
			<path fill-rule="evenodd" clip-rule="evenodd"
				d="M0.205753 7.53958C-0.0362549 8.76369 0.134405 10.5496 1.33976 11.7552C2.33043 12.746 4.31386 13.7606 6.19603 13.3793C7.63242 13.0883 8.76335 13.7016 8.76335 14.9791C8.76335 15.4578 8.50664 15.7799 8.25568 16.0948C7.89623 16.5458 7.54859 16.982 7.98425 17.8422C8.3738 18.6114 9.70799 18.7869 10.7792 18.6114C15.4789 17.8416 18.7296 14.053 18.7296 9.36463C18.7296 4.20023 14.5431 0.0136719 9.37869 0.0136719C4.83883 0.0136719 1.05463 3.24887 0.205753 7.53958ZM1.17521 7.73138C0.971959 8.75967 1.14531 10.1629 2.03864 11.0564C2.43217 11.45 3.05731 11.8774 3.78929 12.1598C4.51955 12.4415 5.29055 12.5544 5.9998 12.4107C6.88318 12.2318 7.79379 12.305 8.52581 12.743C9.30065 13.2067 9.7516 14.0099 9.7516 14.9791C9.7516 15.8091 9.30052 16.3715 9.06012 16.6712L9.02851 16.7107C8.9331 16.8305 8.87513 16.9045 8.82962 16.9747C8.78817 17.0386 8.77634 17.0713 8.77257 17.0846C8.77054 17.0918 8.7671 17.1039 8.77149 17.136C8.77669 17.1741 8.79562 17.257 8.86589 17.3957C8.86614 17.3962 8.86932 17.4026 8.88103 17.4146C8.89358 17.4275 8.91656 17.4476 8.95536 17.4716C9.03624 17.5218 9.16443 17.576 9.34649 17.6177C9.71564 17.7021 10.1855 17.7072 10.6195 17.6361C14.8511 16.943 17.7414 13.5592 17.7414 9.36463C17.7414 4.74603 13.9973 1.00192 9.37869 1.00192C5.3198 1.00192 1.93433 3.89467 1.17521 7.73138Z"
				style="fill:var(--appearance-icon-fill)" />
		</symbol>
		<symbol id="appearance-light-mode" viewBox="0 0 180 115" fill="none">
			<rect x="0.5" y="0.5" width="179" height="114" rx="3.5" fill="#EBEBEB" stroke="#D4D4D4"
				style="border:2px solid black" />
			<path d="M30.5 34C30.5 32.067 32.067 30.5 34 30.5H179.5V111C179.5 112.933 177.933 114.5 176 114.5H30.5V34Z"
				fill="white" stroke="#D4D4D4" />
			<path
				d="M62.0547 71H58.3844L56.5703 65.8672H48.6391L46.8953 71H43.2391L50.7906 50.8344H54.5594L62.0547 71ZM55.6844 63.1391L52.8859 55.0953C52.8016 54.8328 52.7125 54.4109 52.6187 53.8297H52.5625C52.4781 54.3641 52.3844 54.7859 52.2812 55.0953L49.5109 63.1391H55.6844ZM75.5266 71H72.3625V68.75H72.3063C71.3125 70.475 69.8547 71.3375 67.9328 71.3375C66.5172 71.3375 65.4063 70.9531 64.6 70.1844C63.8031 69.4156 63.4047 68.3984 63.4047 67.1328C63.4047 64.4141 64.9703 62.8297 68.1016 62.3797L72.3766 61.775C72.3766 59.7219 71.4016 58.6953 69.4516 58.6953C67.7359 58.6953 66.1891 59.2859 64.8109 60.4672V57.6125C66.3297 56.7125 68.0828 56.2625 70.0703 56.2625C73.7078 56.2625 75.5266 58.0531 75.5266 61.6344V71ZM72.3766 63.9266L69.3531 64.3484C68.4156 64.4703 67.7078 64.7 67.2297 65.0375C66.7609 65.3656 66.5266 65.9469 66.5266 66.7813C66.5266 67.3906 66.7422 67.8922 67.1734 68.2859C67.6141 68.6703 68.2 68.8625 68.9313 68.8625C69.925 68.8625 70.7453 68.5156 71.3922 67.8219C72.0484 67.1188 72.3766 66.2375 72.3766 65.1781V63.9266Z"
				fill="#373C42" />
		</symbol>
		<symbol id="appearance-dark-mode" viewBox="0 0 180 115" fill="none">
			<rect width="180" height="115" rx="4" fill="#474A4C" />
			<path d="M34 30.5H179.5V111C179.5 112.933 177.933 114.5 176 114.5H30.5V34C30.5 32.067 32.067 30.5 34 30.5Z"
				fill="#212325" stroke="#999999" />
			<path
				d="M62.0547 71H58.3844L56.5703 65.8672H48.6391L46.8953 71H43.2391L50.7906 50.8344H54.5594L62.0547 71ZM55.6844 63.1391L52.8859 55.0953C52.8016 54.8328 52.7125 54.4109 52.6187 53.8297H52.5625C52.4781 54.3641 52.3844 54.7859 52.2812 55.0953L49.5109 63.1391H55.6844ZM75.5266 71H72.3625V68.75H72.3063C71.3125 70.475 69.8547 71.3375 67.9328 71.3375C66.5172 71.3375 65.4063 70.9531 64.6 70.1844C63.8031 69.4156 63.4047 68.3984 63.4047 67.1328C63.4047 64.4141 64.9703 62.8297 68.1016 62.3797L72.3766 61.775C72.3766 59.7219 71.4016 58.6953 69.4516 58.6953C67.7359 58.6953 66.1891 59.2859 64.8109 60.4672V57.6125C66.3297 56.7125 68.0828 56.2625 70.0703 56.2625C73.7078 56.2625 75.5266 58.0531 75.5266 61.6344V71ZM72.3766 63.9266L69.3531 64.3484C68.4156 64.4703 67.7078 64.7 67.2297 65.0375C66.7609 65.3656 66.5266 65.9469 66.5266 66.7813C66.5266 67.3906 66.7422 67.8922 67.1734 68.2859C67.6141 68.6703 68.2 68.8625 68.9313 68.8625C69.925 68.8625 70.7453 68.5156 71.3922 67.8219C72.0484 67.1188 72.3766 66.2375 72.3766 65.1781V63.9266Z"
				fill="#E8ECEE" />
			<rect x="0.5" y="0.5" width="179" height="114" rx="3.5" stroke="#999999" />
		</symbol>
		<symbol id="hamburger-menu-icon" viewBox="0 0 15 12">
			<path
				d="M0 1.26172C0 0.985576 0.223858 0.761719 0.5 0.761719H14.5C14.7761 0.761719 15 0.985576 15 1.26172C15 1.53786 14.7761 1.76172 14.5 1.76172H0.5C0.223858 1.76172 0 1.53786 0 1.26172Z"
				fill="var(--green)" />
			<path
				d="M0 6.26172C0 5.98558 0.223858 5.76172 0.5 5.76172H14.5C14.7761 5.76172 15 5.98558 15 6.26172C15 6.53786 14.7761 6.76172 14.5 6.76172H0.5C0.223858 6.76172 0 6.53786 0 6.26172Z"
				fill="var(--green)" />
			<path
				d="M0.5 10.7617C0.223858 10.7617 0 10.9856 0 11.2617C0 11.5379 0.223858 11.7617 0.5 11.7617H14.5C14.7761 11.7617 15 11.5379 15 11.2617C15 10.9856 14.7761 10.7617 14.5 10.7617H0.5Z"
				fill="var(--green)" />
		</symbol>
		<symbol id="menu-close-icon" viewBox="0 0 13 13">
			<path
				d="M0.853553 0.908165C0.658291 0.712903 0.341709 0.712903 0.146447 0.908165C-0.0488155 1.10343 -0.0488155 1.42001 0.146447 1.61527L5.29289 6.76172L0.146447 11.9082C-0.0488155 12.1034 -0.0488155 12.42 0.146447 12.6153C0.341709 12.8105 0.658291 12.8105 0.853553 12.6153L6 7.46883L11.1464 12.6153C11.3417 12.8105 11.6583 12.8105 11.8536 12.6153C12.0488 12.42 12.0488 12.1034 11.8536 11.9082L6.70711 6.76172L11.8536 1.61527C12.0488 1.42001 12.0488 1.10343 11.8536 0.908166C11.6583 0.712904 11.3417 0.712904 11.1464 0.908166L6 6.05461L0.853553 0.908165Z"
				fill="var(--green)" />
		</symbol>
		<symbol id="external-link" viewBox="0 0 11 11">
			<path
				d="M9.94955 0.696773H6.51342C6.33503 0.689874 6.15765 0.757066 6.02864 0.880514C5.89879 1.00476 5.82365 1.18048 5.82365 1.36026C5.82365 1.54003 5.89878 1.71579 6.02864 1.84004C6.15765 1.96349 6.33503 2.03068 6.51342 2.02378H8.3482L5.08971 5.28225C4.89052 5.46483 4.82124 5.76728 4.92158 6.01835C4.98854 6.18588 5.12426 6.32155 5.29176 6.3885C5.54282 6.48884 5.84528 6.41955 6.02786 6.22036L9.28635 2.96189L9.28621 4.79978L9.2865 4.80639C9.29404 4.97725 9.36721 5.13863 9.4908 5.25688C9.61438 5.37513 9.77882 5.44111 9.94984 5.44111C10.1209 5.44111 10.2853 5.37513 10.4089 5.25688C10.5325 5.13863 10.6058 4.97725 10.6133 4.8064L10.6133 1.3583C10.6128 1.1879 10.5496 1.0126 10.4174 0.887687L10.4147 0.885272C10.2966 0.77895 10.1341 0.692755 9.94955 0.696773Z"
				fill="var(--blue)" />
			<path
				d="M4.15264 0.727539C2.14613 0.727539 0.519531 2.35414 0.519531 4.36064V7.12676C0.519531 9.17021 2.17608 10.8268 4.21953 10.8268H6.96155C8.95403 10.8268 10.5693 9.21153 10.5693 7.21906C10.5693 6.83246 10.2558 6.51906 9.86925 6.51906C9.48265 6.51906 9.16925 6.83246 9.16925 7.21906C9.16925 8.43834 8.18083 9.42676 6.96155 9.42676H4.21953C2.94928 9.42676 1.91953 8.39701 1.91953 7.12676V4.36064C1.91953 3.12733 2.91933 2.12754 4.15264 2.12754C4.53924 2.12754 4.85264 1.81414 4.85264 1.42754C4.85264 1.04094 4.53924 0.727539 4.15264 0.727539Z"
				fill="var(--blue)" />
		</symbol>
		<symbol id="eset-notif-logo" viewBox="0 0 24 20">
			<path fill-rule="evenodd" clip-rule="evenodd"
				d="M22.1718 0H1.82817C0.8185 0 0 0.790946 0 1.76663V18.2334C0 19.2091 0.818501 20 1.82817 20H22.1718C23.1815 20 24 19.2091 24 18.2334V1.76663C24 0.790945 23.1815 0 22.1718 0ZM22.1718 1.2759H1.82817C1.54771 1.2759 1.32035 1.4956 1.32035 1.76663V5.46799H22.6797V1.76663C22.6797 1.4956 22.4523 1.2759 22.1718 1.2759ZM22.6797 6.74389H1.32035V18.2334C1.32035 18.5044 1.54771 18.7241 1.82817 18.7241H22.1718C22.4523 18.7241 22.6797 18.5044 22.6797 18.2334V6.74389Z"
				fill="var(--green)" />
			<path
				d="M13.8963 4.45309C14.4936 4.45309 14.9778 3.9852 14.9778 3.40802C14.9778 2.83085 14.4936 2.36295 13.8963 2.36295C13.299 2.36295 12.8148 2.83085 12.8148 3.40802C12.8148 3.9852 13.299 4.45309 13.8963 4.45309Z"
				fill="var(--green)" />
			<path
				d="M21.1429 4.14958C21.5653 3.74146 21.5653 3.07976 21.1429 2.67164C20.7206 2.26352 20.0359 2.26351 19.6135 2.67164C19.1912 3.07976 19.1912 3.74146 19.6135 4.14958C20.0359 4.5577 20.7206 4.5577 21.1429 4.14958Z"
				fill="var(--green)" />
			<path
				d="M17.3813 4.42421C17.9625 4.29157 18.3225 3.7287 18.1852 3.16699C18.048 2.60528 17.4655 2.25745 16.8842 2.39008C16.3029 2.52272 15.943 3.08559 16.0802 3.6473C16.2175 4.20901 16.8 4.55685 17.3813 4.42421Z"
				fill="var(--green)" />
			<path
				d="M15.3613 8.62065C15.2576 8.49181 15.1243 8.3916 14.9687 8.32717C14.8132 8.26275 14.6428 8.23412 14.4724 8.24128C12.9391 8.2198 11.4058 8.24128 9.86502 8.24128H9.41317C9.15391 8.24843 8.90946 8.34865 8.73169 8.5276C8.55391 8.70655 8.45021 8.94276 8.45761 9.18614C8.42798 9.9091 8.45761 10.6464 8.45761 11.3693C8.41317 12.4502 8.67984 13.5239 9.22798 14.4759C9.78354 15.3993 10.7909 16.5374 12.0058 16.5732C13.065 16.5446 13.9465 15.6427 14.5095 14.8696C15.1835 13.9605 15.5465 12.8797 15.5465 11.7702V9.50825C15.5835 9.20045 15.5243 8.8855 15.3613 8.62065ZM14.2058 13.7887C13.9317 14.3184 13.5613 14.798 13.1021 15.1989C12.8206 15.4924 12.4502 15.6856 12.0428 15.7572V9.04298H13.9095C14.1095 9.03582 14.3169 9.03582 14.5169 9.04298C14.6798 9.05729 14.6947 9.12887 14.7021 9.27203C14.7539 9.93773 14.7021 10.6034 14.7021 11.2691C14.7465 12.1424 14.5761 13.0014 14.2058 13.7887Z"
				fill="var(--green)" />
		</symbol>
		<symbol id="x-close-icon" viewBox="0 0 14 14">
			<path d="M1.94922 1.55273L12.9976 12.6011" stroke="var(--header-text-color)" stroke-width="2"
				stroke-linecap="round" />
			<path d="M1.94922 12.5967L12.9972 1.54868" stroke="var(--header-text-color)" stroke-width="2"
				stroke-linecap="round" />
		</symbol>
		<symbol id="globe-icon" viewBox="0 0 16 16" fill="none">
			<path fill-rule="evenodd" clip-rule="evenodd" d="M8.31516 15.9939C8.21061 15.998 8.10554 16 8 16C7.89446 16 7.78939 15.998 7.68485 15.9939L7.68297 15.9962L7.67994 15.9937C3.41004 15.8257 0 12.3111 0 8C0 3.68891 3.41004 0.174283 7.67994 0.00628525L7.68297 0.00380707L7.68484 0.00609407C7.78939 0.00204383 7.89446 0 8 0C8.10554 0 8.21061 0.0020438 8.31516 0.00609398L8.31703 0.00380421L8.32006 0.00628539C12.59 0.174285 16 3.68891 16 8C16 12.3111 12.59 15.8257 8.32006 15.9937L8.31703 15.9962L8.31516 15.9939ZM8 14.9547C9.03394 14.0513 9.76822 13.1127 10.2569 12.0649C10.3428 11.8809 10.4214 11.6928 10.4929 11.5H5.50711C5.57863 11.6928 5.65724 11.8809 5.74305 12.0649C6.23178 13.1127 6.96605 14.0513 8 14.9547ZM9.57278 14.8226C11.4895 14.3826 13.1058 13.1556 14.0635 11.5H11.5512C11.4414 11.839 11.3124 12.1678 11.1632 12.4876C10.7696 13.3314 10.2416 14.1003 9.57278 14.8226ZM11.8143 10.5H14.5404C14.8373 9.7236 15 8.8808 15 8C15 7.1192 14.8373 6.2764 14.5404 5.5H11.8143C11.9743 6.27601 12.0493 7.10515 12.0493 8C12.0493 8.89485 11.9743 9.72399 11.8143 10.5ZM10.7908 5.5H5.20917C5.03507 6.25514 4.95068 7.0809 4.95068 8C4.95068 8.9191 5.03507 9.74486 5.20917 10.5H10.7908C10.9649 9.74486 11.0493 8.9191 11.0493 8C11.0493 7.0809 10.9649 6.25514 10.7908 5.5ZM10.4929 4.5H5.50711C5.57863 4.30724 5.65724 4.11911 5.74305 3.93513C6.23179 2.88732 6.96605 1.94866 8 1.04531C9.03395 1.94866 9.76822 2.88731 10.2569 3.93513C10.3428 4.11911 10.4214 4.30724 10.4929 4.5ZM11.5512 4.5H14.0635C13.1058 2.84439 11.4895 1.61743 9.57277 1.17739C10.2416 1.89973 10.7696 2.66858 11.1632 3.51242C11.3124 3.83223 11.4414 4.16101 11.5512 4.5ZM4.83679 12.4876C5.23038 13.3314 5.7584 14.1003 6.42722 14.8226C4.51053 14.3826 2.8942 13.1556 1.93648 11.5H4.44875C4.5586 11.839 4.68762 12.1678 4.83679 12.4876ZM3.95068 8C3.95068 7.10515 4.02574 6.27601 4.1857 5.5H1.45963C1.16268 6.2764 1 7.1192 1 8C1 8.8808 1.16268 9.7236 1.45963 10.5H4.1857C4.02574 9.72399 3.95068 8.89485 3.95068 8ZM4.83679 3.51242C5.23038 2.66858 5.75839 1.89974 6.42723 1.17739C4.51053 1.61743 2.8942 2.84439 1.93648 4.5H4.44876C4.5586 4.16101 4.68762 3.83223 4.83679 3.51242Z" fill="#373C42"/>
		</symbol>
		<symbol id="plugin-icon" viewBox="0 0 16 16" fill="none">
			<path fill-rule="evenodd" clip-rule="evenodd" d="M4.9556 0.669353C5.38418 0.240772 5.96546 0 6.57157 0C7.17767 0 7.75895 0.240772 8.18753 0.669353C8.61611 1.09794 8.85688 1.67922 8.85688 2.28532V2.85688H11.2144C11.7259 2.85688 12.2165 3.06009 12.5782 3.4218C12.9399 3.78351 13.1431 4.27409 13.1431 4.78563V7.14313H13.4743L13.4767 7.14002H13.7172C14.3233 7.14002 14.9046 7.3808 15.3331 7.80938C15.7617 8.23795 16.0025 8.81923 16.0025 9.42534C16.0025 10.0314 15.7617 10.6127 15.3331 11.0413C14.9046 11.4699 14.3233 11.7107 13.7172 11.7107H13.1456V14.0682C13.1456 14.3214 13.0957 14.5723 12.9988 14.8063C12.9019 15.0403 12.7598 15.2529 12.5807 15.432C12.4016 15.6111 12.189 15.7532 11.955 15.8501C11.721 15.947 11.4701 15.9969 11.2169 15.9969H7.85936V14.426C7.85936 14.0851 7.72395 13.7581 7.48291 13.5171C7.24186 13.2761 6.91494 13.1406 6.57405 13.1406C6.23316 13.1406 5.90624 13.2761 5.66519 13.5171C5.42415 13.7582 5.28873 14.0851 5.28873 14.426V16H1.93124C1.67794 16 1.42714 15.9501 1.19313 15.8532C0.959122 15.7563 0.746502 15.6142 0.567405 15.4351C0.388308 15.256 0.246233 15.0434 0.149302 14.8094C0.0523743 14.5754 0.00248343 14.3245 0.00248343 14.0713V10.7138H1.57094C1.91183 10.7138 2.23875 10.5783 2.4798 10.3373C2.72084 10.0963 2.85625 9.76934 2.85625 9.42844C2.85625 9.08755 2.72084 8.76063 2.4798 8.51959C2.23875 8.27855 1.91183 8.14313 1.57094 8.14313H0V4.78563C0 4.2741 0.203197 3.78351 0.564912 3.4218C0.926624 3.06008 1.41722 2.85688 1.92875 2.85688H4.28625V2.28532C4.28625 1.67921 4.52703 1.09793 4.9556 0.669353ZM6.57157 1C6.23068 1 5.90375 1.13542 5.66271 1.37646C5.42166 1.6175 5.28625 1.94443 5.28625 2.28532V3.85688H1.92875C1.68243 3.85688 1.44619 3.95473 1.27202 4.1289C1.09785 4.30307 1 4.5393 1 4.78563V7.14313H1.57094C2.17704 7.14313 2.75832 7.3839 3.1869 7.81248C3.61549 8.24106 3.85625 8.82235 3.85625 9.42844C3.85625 10.0345 3.61549 10.6158 3.1869 11.0444C2.75832 11.473 2.17704 11.7138 1.57094 11.7138H1.00248V14.0713C1.00248 14.1932 1.02651 14.314 1.07318 14.4267C1.11985 14.5394 1.18826 14.6417 1.27451 14.728C1.36076 14.8142 1.46314 14.8826 1.57582 14.9293C1.6885 14.976 1.80927 15 1.93124 15H4.28873V14.426C4.28873 13.8199 4.52951 13.2386 4.95809 12.81C5.38667 12.3814 5.96795 12.1406 6.57405 12.1406C7.18015 12.1406 7.76143 12.3814 8.19001 12.81C8.6186 13.2386 8.85936 13.8199 8.85936 14.426V14.9969H11.2169C11.3388 14.9969 11.4596 14.9729 11.5723 14.9262C11.685 14.8795 11.7873 14.8111 11.8736 14.7249C11.9598 14.6386 12.0282 14.5362 12.0749 14.4236C12.1216 14.3109 12.1456 14.1901 12.1456 14.0682V10.7107H13.7172C14.0581 10.7107 14.385 10.5752 14.626 10.3342C14.8671 10.0931 15.0025 9.76622 15.0025 9.42534C15.0025 9.08445 14.8671 8.75753 14.626 8.51648C14.4061 8.29659 14.1148 8.16459 13.8065 8.14313H12.1431V4.78563C12.1431 4.53931 12.0453 4.30308 11.8711 4.1289C11.6969 3.95473 11.4607 3.85688 11.2144 3.85688H7.85688V2.28532C7.85688 1.94443 7.72146 1.6175 7.48042 1.37646C7.23938 1.13542 6.91245 1 6.57157 1Z" fill="#373C42"/>
		</symbol>
		<symbol id="info-icon" viewBox="0 0 15 16" fill="none">
			<path d="M10.2796 2.42871H4.93164V13.3687H10.2796V2.42871Z" fill="white"/>
			<path d="M7.5 0.761719C6.01664 0.761719 4.5666 1.20159 3.33323 2.0257C2.09986 2.84981 1.13856 4.02115 0.570907 5.39159C0.00324965 6.76204 -0.145275 8.27004 0.144114 9.7249C0.433503 11.1798 1.14781 12.5161 2.1967 13.565C3.2456 14.6139 4.58197 15.3282 6.03683 15.6176C7.49168 15.907 8.99968 15.7585 10.3701 15.1908C11.7406 14.6232 12.9119 13.6619 13.736 12.4285C14.5601 11.1951 15 9.74508 15 8.26172C14.9984 6.27308 14.2077 4.36635 12.8015 2.96017C11.3954 1.55399 9.48864 0.763308 7.5 0.761719ZM7.556 3.09572C7.89025 3.08626 8.21636 3.19973 8.47254 3.41463C8.72872 3.62952 8.89718 3.93092 8.946 4.26172C8.9021 4.59467 8.73522 4.89915 8.47818 5.11529C8.22115 5.33143 7.89255 5.44359 7.557 5.42972C7.22866 5.43789 6.90925 5.32233 6.66214 5.10597C6.41502 4.88961 6.25828 4.58826 6.223 4.26172C6.25875 3.93554 6.41569 3.63467 6.66275 3.41873C6.90982 3.20278 7.22797 3.0875 7.556 3.09572ZM9.862 12.4867H5.64V11.9307L6.835 11.5977V7.79072L5.64 7.23472V6.92972H8.363C8.641 6.92972 8.669 6.95772 8.669 7.23572V11.6257L9.864 11.9587V12.4867H9.862Z" fill="#187DAF"/>
		</symbol>
		<symbol id="info-square" viewBox="0 0 70 70" fill="none" xmlns="http://www.w3.org/2000/svg">
			<path fill-rule="evenodd" clip-rule="evenodd" d="M64.9688 22.4438C64.3563 16.8875 61.3375 11.8562 56.6562 8.75C53.5062 6.9125 50.0062 5.6875 46.4187 5.1625C42.6562 4.55 38.8063 4.375 35 4.375C31.1938 4.375 27.3438 4.55 23.5812 5.1625C19.95 5.6875 16.4937 6.9125 13.3438 8.75C8.6625 11.8562 5.64375 16.8438 5.03125 22.4438C4.50625 26.6 4.375 30.8 4.375 35C4.375 39.2 4.50625 43.4 5.03125 47.5562C5.64375 53.1125 8.6625 58.1437 13.3438 61.25C16.4937 63.0875 19.9937 64.3125 23.5812 64.8375C27.3438 65.45 31.1938 65.625 35 65.625C38.8063 65.625 42.6562 65.45 46.4187 64.8375C50.05 64.3125 53.5062 63.0875 56.6562 61.25C61.3375 58.1437 64.3563 53.1562 64.9688 47.5562C65.4938 43.4 65.625 39.2 65.625 35C65.625 30.8 65.4938 26.6 64.9688 22.4438Z" fill="#187DAF"/>
			<path fill-rule="evenodd" clip-rule="evenodd" d="M39.3518 20.65C39.3518 23.0593 37.3806 25.0305 34.9713 25.0305C32.562 25.0305 30.5908 23.0593 30.5908 20.65C30.5908 18.2407 32.562 16.2695 34.9713 16.2695C37.3806 16.2695 39.3518 18.2407 39.3518 20.65ZM38.9005 31.6614V48.0007L43.1496 49.2708V51.2859H27.9932V49.2271L32.2422 47.9566V33.7202L27.9932 31.6614V30.5225H37.7616C38.7691 30.5225 38.9005 30.6539 38.9005 31.6614Z" fill="white"/>
		</symbol>
		<symbol id="success" viewBox="0 0 70 70" fill="none" xmlns="http://www.w3.org/2000/svg">
			<path fill-rule="evenodd" clip-rule="evenodd" d="M41.6836 44.5108L64.3024 20.2294C66.1399 18.2607 66.0087 15.1982 64.0399 13.3607C64.0399 13.3607 63.9962 13.3607 63.9524 13.2732C62.1587 11.6544 59.4462 11.6107 57.6087 13.1857L26.6774 39.5669L12.1961 28.3669C10.0961 26.7044 7.0336 27.0982 5.3711 29.1982C3.92737 31.0357 4.01487 33.6169 5.5461 35.3669L13.5524 44.5108L24.0086 56.4545C25.5399 58.292 28.2961 58.5108 30.0898 56.9795C30.2648 56.8483 30.3961 56.717 30.5273 56.542L31.6648 55.317L32.5836 54.3545L41.6836 44.5545V44.5108Z" fill="#659D15"/>
		</symbol>
		<symbol id="inline-logo" viewBox="0 0 140 24" fill="none">
			<path d="M45.9306 3.2506C47.1419 3.23527 48.3369 3.53091 49.4013 4.10925C50.4657 4.68759 51.364 5.5293 52.0103 6.5539C53.0487 8.35767 53.2791 11.2957 53.2791 13.2404C53.2791 15.1851 53.0487 18.1245 52.0103 19.927C51.364 20.9515 50.4657 21.7932 49.4013 22.3715C48.3369 22.9498 47.1419 23.2455 45.9306 23.2303H7.34879C6.13741 23.2457 4.94233 22.9501 3.87781 22.3717C2.81328 21.7934 1.91491 20.9516 1.26858 19.927C0.229366 18.1235 0 15.187 0 13.2404C0 11.2939 0.229366 8.3574 1.26858 6.5539C1.91485 5.52919 2.81322 4.6874 3.87775 4.10905C4.94229 3.5307 6.13739 3.23513 7.34879 3.2506H45.9306ZM33.0227 12.1413C33.0597 10.8647 33.3021 10.4433 34.6048 10.4433C35.676 10.4433 36.2716 10.5546 36.2716 12.0417V12.1426H33.0227M10.2237 10.5416C8.96395 10.5416 8.71007 10.9295 8.67491 12.1796H11.8607V12.1088C11.8607 10.6465 11.2875 10.5416 10.2237 10.5416ZM5.72165 13.2988C5.72165 9.68965 6.52536 8.52123 10.277 8.52123C13.7814 8.52123 14.8137 9.47813 14.8137 13.2988V13.7516H8.67518V13.823C8.67518 15.4931 8.93678 16.0395 10.2781 16.0395C11.2073 16.0395 11.8828 15.9372 11.914 14.9392H14.8148C14.7993 16.3016 14.3422 17.0648 13.5737 17.5113C12.7806 17.9514 11.6466 18.0598 10.2781 18.0598C6.59702 18.0598 5.72271 16.8013 5.72271 13.3001M16.7707 11.5488C16.7707 8.57904 18.6845 8.5199 21.326 8.5199C23.0861 8.5199 25.4309 8.55027 25.4309 10.7912V11.1711H22.6479C22.5131 10.431 21.9209 10.3775 21.3263 10.3775C19.7045 10.3775 19.6347 10.5786 19.6347 11.2068C19.6347 11.7358 19.7287 12.0707 21.325 12.1067C24.5396 12.1791 25.8819 12.3629 25.8819 14.9379C25.8819 17.641 23.8158 18.0571 21.3266 18.0571C20.7165 18.0571 20.1225 18.0609 19.5761 18.0182C17.7705 17.8744 16.7936 17.1993 16.7709 15.1358H19.7258C19.7612 16.1828 20.5516 16.1998 21.3263 16.1998C22.7204 16.1998 23.0179 16.1124 23.0179 15.2997C23.0179 14.8143 22.8762 14.5463 22.5704 14.4131C22.166 14.3 21.745 14.2581 21.3263 14.2892C17.4148 14.2892 16.7707 13.4163 16.7707 11.5488ZM41.0108 10.6481H43.1708V17.953H46.1243V10.6481H48.2821V8.5199H41.0106L41.0108 10.6481ZM30.1315 13.2303C30.1315 16.718 30.9957 17.9599 34.657 17.9599C36.0255 17.9599 37.1537 17.8507 37.9382 17.4143C38.69 16.9785 39.1418 16.2329 39.1636 14.9001H36.322C36.2786 15.8983 35.5761 16 34.6567 16C33.2896 16 33.0259 15.4283 33.0259 13.7532V13.6509H39.1647V13.2303C39.1647 9.42591 38.1452 8.48207 34.6567 8.48207C30.9237 8.48207 30.1312 9.6337 30.1312 13.2303M3.55851 19.7072C4.49596 20.7158 6.29706 21.4705 7.83949 21.4734H27.7353V5.00641H7.83949C6.29706 5.00934 4.49596 5.76431 3.55851 6.77235C2.07789 8.36539 1.75422 10.8639 1.75422 13.2404C1.75422 15.617 2.07789 18.1155 3.55851 19.7072ZM50.0185 2.15225C50.0135 2.43776 50.0677 2.72121 50.1777 2.98472C50.2878 3.24822 50.4512 3.48606 50.6578 3.68322C51.0626 4.08444 51.6094 4.30954 52.1793 4.30954C52.7492 4.30954 53.2961 4.08444 53.7008 3.68322C53.9051 3.48586 54.0671 3.24904 54.177 2.98714C54.2869 2.72524 54.3424 2.44372 54.3402 2.15971V2.15331C54.3421 1.87089 54.2863 1.59105 54.1764 1.33089C54.0665 1.07073 53.9047 0.835708 53.7008 0.640185C53.5061 0.435126 53.2711 0.272477 53.0106 0.162417C52.7501 0.052358 52.4697 -0.00274129 52.1869 0.00056844C51.9013 -0.00617421 51.6174 0.047132 51.3537 0.157037C51.09 0.266943 50.8523 0.430998 50.6559 0.638586C50.451 0.833249 50.2886 1.06822 50.1788 1.32872C50.0691 1.58922 50.0145 1.86961 50.0185 2.15225ZM52.18 0.464097C52.3996 0.459601 52.6177 0.500698 52.8206 0.584792C53.0235 0.668886 53.2068 0.794149 53.3588 0.952666C53.5182 1.10858 53.6442 1.29522 53.7293 1.50128C53.8145 1.70733 53.8569 1.92852 53.854 2.15145C53.8577 2.37448 53.8156 2.5959 53.7304 2.80207C53.6453 3.00823 53.5188 3.19478 53.3588 3.35023C53.2077 3.5106 53.0248 3.63778 52.8219 3.72368C52.6189 3.80958 52.4003 3.85232 52.18 3.84919C51.9581 3.85264 51.7378 3.81009 51.5332 3.72422C51.3285 3.63834 51.1438 3.511 50.9908 3.35023C50.8318 3.19426 50.7062 3.00753 50.6217 2.80142C50.5373 2.59531 50.4957 2.37415 50.4996 2.15145C50.4968 1.92889 50.5389 1.70806 50.6233 1.5021C50.7077 1.29615 50.8327 1.10929 50.9908 0.952666C51.1447 0.793692 51.3297 0.668232 51.5344 0.584157C51.739 0.500082 51.9588 0.459207 52.18 0.464097ZM51.843 2.38428H52.0599L52.6992 3.1768H53.3806L52.5716 2.24921C52.704 2.19867 52.8219 2.11633 52.915 2.00946C53.0042 1.90249 53.0498 1.76577 53.0426 1.62665C53.0474 1.52383 53.0245 1.42161 52.9763 1.33068C52.9222 1.24696 52.8469 1.17911 52.7581 1.13408C52.6745 1.08619 52.5819 1.05624 52.4861 1.04617C52.366 1.03046 52.2449 1.02404 52.1238 1.02699H51.311V3.17574H51.8329L51.843 2.38428ZM51.843 1.39861H52.0127C52.0759 1.39643 52.1391 1.40026 52.2016 1.41007C52.2499 1.41226 52.2972 1.42442 52.3406 1.44577C52.3835 1.46683 52.4174 1.50255 52.4363 1.54646C52.4566 1.58079 52.4672 1.62003 52.4669 1.65995C52.4686 1.71434 52.46 1.76857 52.4416 1.81978C52.4217 1.85988 52.3934 1.89515 52.3585 1.92315C52.3102 1.95379 52.2572 1.9762 52.2016 1.98948C52.1263 1.99879 52.0505 2.00306 51.9746 2.00227H51.847L51.843 1.39861ZM61.271 6.17402H62.6323C64.2658 6.17402 65.4409 7.04087 65.4409 8.68906C65.4409 10.4657 64.3663 11.2395 62.6755 11.2395H61.271V6.17402ZM62.7543 10.7523C64.0724 10.7523 64.8604 10.0863 64.8604 8.76792C64.8604 7.33471 63.9651 6.66126 62.6107 6.66126H61.8515V10.7523H62.7543ZM66.5155 7.32645H67.0886V11.2395H66.5155V7.32645ZM66.5227 5.77896H67.0886V6.43935H66.5227V5.77896ZM68.4786 12.729L68.5852 12.2345C68.9274 12.3069 69.2748 12.3524 69.6241 12.3707C70.2901 12.3707 70.792 12.2486 70.792 11.3674V10.9601C70.549 11.1853 70.2273 11.3062 69.8961 11.2968C69.0796 11.2968 68.1696 11.0461 68.1696 9.29884C68.1696 7.90186 69.0077 7.22842 70.0325 7.22842C70.4758 7.23454 70.9173 7.28488 71.3506 7.37866V11.4822C71.3506 12.4351 70.6772 12.872 69.7523 12.872C69.3238 12.8716 68.8967 12.8239 68.4786 12.73V12.729ZM70.7859 10.4792V7.78625C70.5362 7.73234 70.2815 7.70554 70.0261 7.70633C69.0735 7.70633 68.7293 8.43013 68.7293 9.31829C68.7293 10.4073 69.1449 10.8301 69.9401 10.8301C70.2542 10.8157 70.5534 10.692 70.7859 10.4803V10.4792ZM72.6698 7.32645H73.2431V11.2395H72.6698V7.32645ZM72.677 5.77896H73.2431V6.43935H72.677V5.77896ZM74.7261 10.1502V7.80783H74.1531V7.32645H74.7261V6.52513H75.2778V7.32645H76.5033V7.80596H75.2853V10.1417C75.2853 10.7145 75.4427 10.8221 76.0312 10.8221C76.2403 10.8128 76.4473 10.777 76.6474 10.7155L76.7478 11.1887C76.523 11.263 76.2891 11.3063 76.0525 11.3176C75.321 11.3184 74.7261 11.2957 74.7261 10.1502ZM77.2049 10.1862C77.2049 9.23331 78.0649 9.02552 78.7023 9.01114L79.6347 8.99675V8.47408C79.6347 7.85072 79.3268 7.72817 78.6318 7.72817C78.3029 7.7453 77.9777 7.80549 77.6645 7.90719L77.5427 7.46284C77.9438 7.31254 78.3684 7.23496 78.7967 7.23374C79.6635 7.23374 80.1867 7.51319 80.1867 8.28681V10.4577C80.1867 10.7507 80.3799 10.8162 80.5519 10.8375L80.5162 11.2819H80.4158C80.0932 11.2819 79.7208 11.1386 79.6779 10.7875C79.2982 11.1121 78.8161 11.2922 78.3166 11.296C77.6133 11.2957 77.2049 10.9097 77.2049 10.1862ZM79.6337 10.4081V9.39128L78.6952 9.42698C78.0862 9.44829 77.7495 9.74213 77.7495 10.1364C77.7495 10.6593 78.0289 10.8383 78.4589 10.8383C78.879 10.7899 79.2816 10.6423 79.6337 10.4081ZM81.6468 5.83703H82.2132V11.2395H81.6468V5.83703ZM84.785 11.0174L84.9858 10.5442C85.3594 10.722 85.7683 10.8131 86.1819 10.8106C86.7483 10.8106 87.4002 10.617 87.4002 9.96483C87.4002 8.69679 84.9211 8.99062 84.9211 7.33551C84.9211 6.51181 85.6092 6.11009 86.4185 6.11009C86.8423 6.09977 87.2632 6.18299 87.6511 6.35384L87.4862 6.79073C87.1507 6.65961 86.7931 6.59396 86.4329 6.59732C85.8884 6.59732 85.4797 6.81231 85.4797 7.31393C85.4797 8.44584 87.9807 8.30279 87.9807 9.92168C87.9807 10.8892 87.178 11.3261 86.1958 11.3261C85.7066 11.3492 85.2199 11.2425 84.785 11.0174ZM88.7686 9.35505C88.7686 7.7716 89.5351 7.22708 90.5167 7.22708C91.484 7.22708 91.9286 7.88641 91.9286 9.18323V9.39102H89.3419C89.3638 10.6377 89.9813 10.8381 90.7895 10.8381C91.1168 10.8175 91.4409 10.7622 91.7565 10.6732L91.857 11.1391C91.4568 11.2686 91.038 11.3316 90.6174 11.3256C89.485 11.3256 88.7686 10.8525 88.7686 9.35505ZM91.3335 8.96825C91.3335 8.17998 91.0469 7.64985 90.4307 7.64985C89.843 7.64985 89.4202 8.0942 89.3489 8.96825H91.3335ZM92.6588 9.28339C92.6588 8.01535 93.3754 7.22708 94.4932 7.22708C94.8618 7.21204 95.2284 7.28837 95.5604 7.44926L95.3886 7.89334C95.1029 7.76347 94.7924 7.69747 94.4786 7.69994C93.7327 7.69994 93.239 8.26603 93.239 9.26208C93.239 10.3223 93.576 10.8168 94.7079 10.8168C94.9612 10.8054 95.2129 10.7717 95.4602 10.7161L95.5535 11.1748C95.2598 11.2585 94.9561 11.3019 94.6507 11.304C93.2606 11.3043 92.6588 10.7094 92.6588 9.28339ZM96.4702 9.82071V7.32645H97.0362V9.7051C97.0362 10.3215 97.0794 10.8088 97.7885 10.8088C98.283 10.8088 98.8634 10.4292 99.0425 10.3215V7.32645H99.587V11.2395H99.0425V10.7811C98.7345 10.9747 98.276 11.3256 97.6452 11.3256C96.549 11.3256 96.4702 10.4944 96.4702 9.82098V9.82071ZM100.912 7.32725H101.478V7.85045C101.597 7.66125 101.762 7.5058 101.958 7.39911C102.154 7.29243 102.374 7.23813 102.597 7.24147C102.752 7.24001 102.907 7.26174 103.056 7.30594L102.955 7.78545C102.805 7.7481 102.651 7.73117 102.497 7.7351C102.289 7.74808 102.088 7.81168 101.911 7.92034C101.733 8.029 101.585 8.17942 101.479 8.35847V11.2395H100.913L100.912 7.32725ZM103.707 7.32725H104.28V11.2395H103.708L103.707 7.32725ZM103.714 5.77976H104.28V6.43935H103.714V5.77976ZM105.763 10.1502V7.80783H105.19V7.32645H105.763V6.52513H106.314V7.32645H107.54V7.80596H106.322V10.1417C106.322 10.7145 106.479 10.8221 107.068 10.8221C107.277 10.8129 107.484 10.7771 107.684 10.7155L107.784 11.1892C107.559 11.2635 107.325 11.3069 107.088 11.3181C106.357 11.3184 105.763 11.2957 105.763 10.1502ZM109.589 11.2393H109.322L108.055 7.32645H108.671L109.524 10.1207L109.739 10.8229L109.968 10.1353L110.935 7.32645H111.516L109.603 12.8142H109.051L109.589 11.2393ZM61.271 14.7629H63.3444C64.5661 14.7629 65.4017 15.4622 65.4017 16.6919C65.4017 17.7686 64.5661 18.6685 62.9264 18.6685H62.372V20.4448H61.271V14.7629ZM62.9759 17.8086C63.8439 17.8086 64.2696 17.3909 64.2696 16.7236C64.2696 16.0408 63.9643 15.6313 63.1685 15.6313H62.3731V17.8089L62.9759 17.8086ZM66.1839 16.0568H67.2527V16.6428C67.3836 16.4463 67.5585 16.283 67.7636 16.1658C67.9686 16.0487 68.1981 15.9809 68.4339 15.9678C68.6267 15.961 68.8194 15.9855 69.0045 16.0403L68.8516 16.9242C68.6666 16.8864 68.4779 16.8702 68.2892 16.8759C68.0911 16.8814 67.8964 16.9286 67.7178 17.0144C67.5392 17.1003 67.3807 17.2228 67.2527 17.3741V20.4448H66.1839V16.0568ZM69.1499 18.2908C69.1499 16.8123 70.0341 15.9444 71.336 15.9444C72.7988 15.9444 73.4735 16.8043 73.4735 18.2508C73.4735 19.7615 72.5412 20.5418 71.2715 20.5418C69.9126 20.5413 69.1489 19.6893 69.1489 18.2908H69.1499ZM72.3888 18.2508C72.3888 17.5033 72.1799 16.7963 71.3117 16.7963C70.4593 16.7963 70.227 17.5033 70.227 18.2588C70.227 19.0705 70.4934 19.6813 71.328 19.6813C72.1789 19.6813 72.3877 19.0463 72.3877 18.2508H72.3888ZM74.5199 22.0198L74.6968 21.1521C75.1354 21.2501 75.5817 21.3092 76.0307 21.3287C76.706 21.3287 77.1642 21.2323 77.1642 20.4606V20.2277C76.9278 20.4131 76.6366 20.5149 76.3362 20.517C75.3316 20.517 74.1984 20.26 74.1984 18.275C74.1984 16.7398 75.2435 15.9444 76.5049 15.9444C77.0835 15.9516 77.6599 16.0189 78.2247 16.1452V20.5735C78.2247 21.7787 77.1802 22.2451 76.1916 22.2451C75.6269 22.2374 75.0652 22.1618 74.5186 22.0198H74.5199ZM77.1573 19.489V16.9167C76.9422 16.8593 76.7207 16.8296 76.4982 16.8285C75.6223 16.8285 75.2688 17.4311 75.2688 18.283C75.2688 19.3276 75.695 19.6813 76.4018 19.6813C76.6642 19.6756 76.9217 19.6096 77.1546 19.4885L77.1573 19.489ZM79.473 16.0573H80.5418V16.6434C80.6729 16.4469 80.8478 16.2836 81.0529 16.1664C81.2579 16.0493 81.4875 15.9814 81.7233 15.9683C81.9161 15.9616 82.1087 15.986 82.2936 16.0408L82.1413 16.9247C81.9561 16.8869 81.7672 16.8708 81.5784 16.8765C81.3803 16.882 81.1856 16.9292 81.007 17.015C80.8284 17.1009 80.6699 17.2234 80.5418 17.3746V20.4448H79.473V16.0573ZM82.4761 18.323C82.4761 16.531 83.3843 15.9521 84.6217 15.9521C85.8916 15.9521 86.4065 16.7878 86.4065 18.1632V18.5489H83.5457C83.5457 19.5133 84.1483 19.6739 84.928 19.6739C85.3286 19.6464 85.7263 19.5873 86.1175 19.497L86.2861 20.325C85.7818 20.4696 85.2598 20.5427 84.7351 20.5421C83.3528 20.5413 82.4761 20.0428 82.4761 18.323ZM85.305 17.8328C85.313 17.174 85.0479 16.7158 84.5172 16.7158C83.9791 16.7158 83.6174 17.1096 83.5691 17.8328H85.305ZM87.0821 20.3561L87.2108 19.5284C87.6221 19.6056 88.0383 19.654 88.4564 19.6731C89.1395 19.6731 89.3403 19.4642 89.3403 19.2231C89.3403 18.5481 87.1292 18.8132 87.1292 17.2622C87.1292 16.378 87.9327 15.9444 88.8488 15.9444C89.2976 15.9451 89.7431 16.0211 90.1667 16.1692L89.9901 16.9652C89.6179 16.864 89.2345 16.8103 88.8488 16.8053C88.3584 16.8053 88.198 17.0222 88.198 17.2073C88.198 17.9064 90.3921 17.7135 90.3921 19.168C90.3921 20.269 89.2911 20.5423 88.5595 20.5423C88.0611 20.5481 87.5643 20.4854 87.0829 20.3561H87.0821ZM91.053 20.3561L91.1817 19.5284C91.593 19.6056 92.0092 19.6539 92.4273 19.6731C93.1104 19.6731 93.3115 19.4642 93.3115 19.2231C93.3115 18.5481 91.1004 18.8132 91.1004 17.2622C91.1004 16.378 91.9039 15.9444 92.8203 15.9444C93.269 15.9451 93.7145 16.0211 94.1381 16.1692L93.9612 16.9652C93.5892 16.864 93.2058 16.8103 92.8203 16.8053C92.3298 16.8053 92.1692 17.0222 92.1692 17.2073C92.1692 17.9064 94.3632 17.7135 94.3632 19.168C94.3632 20.269 93.2622 20.5423 92.5307 20.5423C92.0323 20.5481 91.5354 20.4854 91.0541 20.3561H91.053ZM95.4824 19.3598H96.6878V20.4448H95.4824V19.3598ZM99.7748 14.7629H101.848C103.07 14.7629 103.906 15.4622 103.906 16.6919C103.906 17.7686 103.07 18.6685 101.43 18.6685H100.876V20.4448H99.7748V14.7629ZM101.48 17.8086C102.348 17.8086 102.774 17.3909 102.774 16.7236C102.774 16.0408 102.468 15.6313 101.673 15.6313H100.877V17.8089L101.48 17.8086ZM104.688 16.0568H105.757V16.6428C105.888 16.4464 106.063 16.2831 106.268 16.1659C106.473 16.0487 106.702 15.9809 106.938 15.9678C107.131 15.961 107.323 15.9855 107.509 16.0403L107.356 16.9242C107.171 16.8864 106.982 16.8702 106.793 16.8759C106.595 16.8814 106.4 16.9286 106.222 17.0144C106.043 17.1003 105.885 17.2228 105.757 17.3741V20.4448H104.688V16.0568ZM107.654 18.2908C107.654 16.8123 108.538 15.9444 109.84 15.9444C111.303 15.9444 111.978 16.8043 111.978 18.2508C111.978 19.7615 111.045 20.5418 109.776 20.5418C108.417 20.5413 107.653 19.6893 107.653 18.2908H107.654ZM110.893 18.2508C110.893 17.5033 110.684 16.7963 109.816 16.7963C108.963 16.7963 108.731 17.5033 108.731 18.2588C108.731 19.0705 108.998 19.6813 109.832 19.6813C110.683 19.6813 110.893 19.0463 110.893 18.2508H110.893ZM113.128 19.1347V16.8765H112.486V16.0568H113.128V15.1569H114.189V16.0568H115.555V16.8765H114.189V19.1278C114.189 19.5695 114.334 19.6257 114.808 19.6257C115.094 19.6114 115.378 19.5792 115.66 19.5292L115.781 20.3817C115.471 20.476 115.149 20.5274 114.825 20.5346C113.988 20.5333 113.128 20.5493 113.128 19.1347H113.128ZM116.296 18.323C116.296 16.531 117.204 15.9521 118.441 15.9521C119.711 15.9521 120.226 16.7878 120.226 18.1632V18.5489H117.364C117.364 19.5133 117.966 19.6739 118.746 19.6739C119.147 19.6464 119.544 19.5873 119.936 19.497L120.104 20.325C119.6 20.4696 119.078 20.5427 118.553 20.5421C117.171 20.5413 116.295 20.0428 116.295 18.323H116.296ZM119.124 17.8328C119.132 17.174 118.867 16.7158 118.337 16.7158C117.799 16.7158 117.437 17.1096 117.389 17.8328H119.124ZM120.926 18.2266C120.926 16.8365 121.794 15.9444 123.192 15.9444C123.651 15.9243 124.107 16.0211 124.518 16.2257L124.229 17.0211C123.912 16.8849 123.569 16.8191 123.224 16.8285C122.565 16.8285 122.019 17.222 122.019 18.2266C122.019 19.1992 122.292 19.6571 123.425 19.6571C123.728 19.648 124.029 19.6103 124.325 19.5447L124.478 20.3724C124.111 20.4713 123.733 20.5226 123.353 20.525C121.61 20.525 120.925 19.8502 120.925 18.2266H120.926ZM125.548 19.1347V16.8765H124.905V16.0568H125.548V15.1569H126.609V16.0568H127.975V16.8765H126.609V19.1278C126.609 19.5695 126.753 19.6257 127.227 19.6257C127.513 19.6114 127.798 19.5792 128.08 19.5292L128.2 20.3817C127.89 20.476 127.568 20.5274 127.244 20.5346C126.407 20.5333 125.547 20.5493 125.547 19.1347H125.548ZM128.715 18.323C128.715 16.531 129.623 15.9521 130.861 15.9521C132.13 15.9521 132.646 16.7878 132.646 18.1632V18.5489H129.783C129.783 19.5133 130.386 19.6739 131.166 19.6739C131.566 19.6464 131.964 19.5873 132.355 19.497L132.524 20.325C132.02 20.4696 131.497 20.5427 130.973 20.5421C129.59 20.5413 128.715 20.0428 128.715 18.323H128.715ZM131.544 17.8328C131.552 17.174 131.287 16.7158 130.756 16.7158C130.218 16.7158 129.856 17.1096 129.808 17.8328H131.544ZM133.345 18.2106C133.345 16.6998 134.357 15.9444 135.612 15.9444C135.844 15.9429 136.076 15.9671 136.303 16.0165V14.3859H137.371V20.4448H136.303V20.0913C136.024 20.3647 135.649 20.5177 135.258 20.5176C134.414 20.517 133.345 20.1313 133.345 18.2106H133.345ZM136.302 19.3438V16.8845C136.082 16.8248 135.855 16.7952 135.627 16.7963C134.759 16.7963 134.414 17.4151 134.414 18.2348C134.414 19.2794 134.872 19.6249 135.442 19.6249C135.746 19.5976 136.041 19.5015 136.302 19.3438ZM138.795 19.3598H140V20.4448H138.795V19.3598Z" fill="white"/>
		</symbol>
		<symbol id="plugin-chrome" viewBox="0 0 25 25" fill="none" xmlns="http://www.w3.org/2000/svg">
			<path fill-rule="evenodd" clip-rule="evenodd" d="M10.625 0C12.3509 0 13.75 1.39911 13.75 3.125C13.75 3.33904 13.7285 3.54806 13.6875 3.75H20C20.6904 3.75 21.25 4.30964 21.25 5V11.3125C21.2565 11.3112 21.263 11.3099 21.2695 11.3086C21.2744 11.3076 21.2793 11.3066 21.2842 11.3057C21.4755 11.2691 21.673 11.25 21.875 11.25L22.0361 11.2539C23.6871 11.3378 25 12.7031 25 14.375C25 16.1009 23.6009 17.5 21.875 17.5C21.7815 17.5 21.6891 17.4946 21.5977 17.4863C21.5846 17.4852 21.5716 17.4847 21.5586 17.4834C21.4755 17.4749 21.3936 17.4621 21.3125 17.4473C21.2933 17.4437 21.2739 17.4414 21.2549 17.4375C21.2533 17.4372 21.2516 17.4369 21.25 17.4365V23.75C21.25 24.4404 20.6904 25 20 25H1.25C0.559644 25 2.51664e-09 24.4404 0 23.75V17.4365C0.202002 17.4775 0.410892 17.5 0.625 17.5C2.35089 17.5 3.75 16.1009 3.75 14.375C3.75 12.6491 2.35089 11.25 0.625 11.25C0.41096 11.25 0.201943 11.2715 0 11.3125V5C0 4.30964 0.559644 3.75 1.25 3.75H7.5625C7.52151 3.54806 7.5 3.33904 7.5 3.125C7.5 1.39911 8.89911 0 10.625 0ZM1.5 5.25V9.83301C3.6359 10.242 5.25 12.1199 5.25 14.375C5.25 16.6301 3.63581 18.5069 1.5 18.916V23.5H19.75V15.6016H19.752V13.1465L19.75 13.1475V5.25H1.5Z" fill="#474747"/>
		</symbol>
		<symbol id="plugin-edge" viewBox="0 0 22 25" fill="none" xmlns="http://www.w3.org/2000/svg">
			<path fill-rule="evenodd" clip-rule="evenodd" d="M12.4993 1.44344C11.2429 1.44344 10.2084 2.39748 10.0821 3.62018C10.0442 3.98812 9.73414 4.26779 9.36424 4.26779H4.59023C4.45737 4.26779 4.34966 4.37549 4.34966 4.50836V9.22882C4.34966 9.6059 4.05937 9.91943 3.68341 9.9484C2.43053 10.045 1.44344 11.0932 1.44344 12.3712C1.44344 13.6493 2.43053 14.6975 3.68341 14.7941C4.05937 14.8231 4.34966 15.1366 4.34966 15.5137V20.2341C4.34966 20.367 4.45737 20.4747 4.59023 20.4747H9.33686C9.69378 20.4747 9.99709 20.7356 10.0505 21.0885C10.227 22.2561 11.2362 23.1513 12.4531 23.1513C13.67 23.1513 14.6792 22.2561 14.8558 21.0885C14.9091 20.7356 15.2124 20.4747 15.5694 20.4747H20.316C20.4489 20.4747 20.5566 20.367 20.5566 20.2341V16.1777C18.7621 15.8395 17.4047 14.2639 17.4047 12.3712C17.4047 10.4786 18.7621 8.90293 20.5566 8.56479V4.50836C20.5566 4.37549 20.4489 4.26779 20.316 4.26779H15.6343C15.2644 4.26779 14.9544 3.98812 14.9164 3.62018C14.7902 2.39748 13.7557 1.44344 12.4993 1.44344ZM8.76965 2.82435C9.22729 1.19459 10.7234 0 12.4993 0C14.2751 0 15.7713 1.19459 16.2289 2.82435H20.316C21.246 2.82435 22 3.57831 22 4.50836V9.21939C22 9.61798 21.6769 9.94111 21.2783 9.94111C19.9362 9.94111 18.8482 11.0291 18.8482 12.3712C18.8482 13.7134 19.9362 14.8014 21.2783 14.8014C21.6769 14.8014 22 15.1245 22 15.5231V20.2341C22 21.1642 21.246 21.9181 20.316 21.9181H16.138C15.6336 23.4718 14.175 24.5947 12.4531 24.5947C10.7312 24.5947 9.27262 23.4718 8.76822 21.9181H4.59023C3.66018 21.9181 2.90622 21.1642 2.90622 20.2341V16.1229C1.23476 15.6931 0 14.1766 0 12.3712C0 10.5658 1.23476 9.04937 2.90622 8.61956V4.50836C2.90622 3.5783 3.66018 2.82435 4.59023 2.82435H8.76965Z" fill="black"/>
		</symbol>
		<symbol id="plugin-firefox" viewBox="0 0 22 25" fill="none" xmlns="http://www.w3.org/2000/svg">
			<path d="M10.9551 0.650391C12.9767 0.650391 14.6289 2.31047 14.6289 4.375V6.90039H20.2197C20.5357 6.90039 20.8047 7.16136 20.8047 7.5V23.75C20.8047 24.0886 20.5357 24.3496 20.2197 24.3496H1.69043C1.37441 24.3496 1.10547 24.0886 1.10547 23.75V18.5781H4.16113C5.89174 18.578 7.28125 17.1601 7.28125 15.4277C7.28124 13.6954 5.89173 12.2774 4.16113 12.2773H1.10547V7.5C1.10547 7.16136 1.37441 6.90039 1.69043 6.90039H7.28125V4.375C7.28125 2.31047 8.93347 0.650391 10.9551 0.650391Z" stroke="black" stroke-width="1.3"/>
		</symbol>
		<symbol id="plugin-brave" viewBox="0 0 25 25" fill="none" xmlns="http://www.w3.org/2000/svg">
			<path d="M9.83887 19.7383C11.0647 19.7384 12.2405 20.2251 13.1074 21.0918C13.7671 21.7515 14.2063 22.5907 14.3789 23.4941H18.7471V24.9941H12.9619V24.3613C12.9619 23.5848 12.672 22.8385 12.1533 22.2656L12.0469 22.1533C11.4977 21.6042 10.7652 21.2804 9.99316 21.2422L9.83887 21.2383C9.01056 21.2383 8.21558 21.5676 7.62988 22.1533L7.52344 22.2656C7.0048 22.8385 6.71582 23.5849 6.71582 24.3613V25H2.50391V23.5H5.29688C5.46865 22.5943 5.90819 21.7529 6.56934 21.0918C7.43633 20.2249 8.61282 19.7383 9.83887 19.7383ZM19.7471 22.4951V17.2363H21.8809V18.7363H21.2471V22.4951L21.2344 22.7402C21.2103 22.9842 21.1508 23.2238 21.0566 23.4512L20.9512 23.6738C20.8356 23.89 20.6886 24.0887 20.5146 24.2627L20.333 24.4277C20.1434 24.5833 19.9315 24.7105 19.7041 24.8047L19.4727 24.8867C19.2379 24.9579 18.9932 24.9941 18.7471 24.9941V23.4941C18.8782 23.4941 19.0087 23.4691 19.1299 23.4189C19.251 23.3688 19.3613 23.2949 19.4541 23.2021C19.5469 23.1094 19.6207 22.9991 19.6709 22.8779C19.7086 22.7868 19.7326 22.6905 19.7422 22.5928L19.7471 22.4951ZM23.5039 15.6133C23.5038 15.183 23.3335 14.7702 23.0293 14.4658C22.7535 14.19 22.3882 14.0249 22.002 13.9961H19.7422V6.25684C19.7422 5.99179 19.6376 5.73723 19.4502 5.5498C19.2862 5.38578 19.0706 5.28539 18.8418 5.2627L18.7432 5.25781H13.4844V3.12305L13.4766 2.96289C13.4397 2.59125 13.2752 2.24197 13.0088 1.97559C12.7044 1.67127 12.2918 1.5 11.8613 1.5C11.4309 1.50005 11.0182 1.67123 10.7139 1.97559C10.4095 2.27996 10.2383 2.69263 10.2383 3.12305V5.25781H2.49902C2.23424 5.25791 1.98027 5.36267 1.79297 5.5498C1.62895 5.71382 1.52757 5.92935 1.50488 6.1582L1.5 6.25684V8.5918C2.40358 8.76429 3.24253 9.20351 3.90234 9.86328C4.71516 10.6761 5.19428 11.7607 5.25098 12.9033L5.25684 13.1328C5.25679 14.3588 4.7692 15.5344 3.90234 16.4014C3.2435 17.0602 2.40599 17.4988 1.50391 17.6719V22.501C1.50395 22.632 1.52999 22.7618 1.58008 22.8828C1.63026 23.004 1.70417 23.1143 1.79688 23.207C1.88964 23.2998 1.99994 23.3736 2.12109 23.4238C2.24235 23.4741 2.37267 23.5 2.50391 23.5V25L2.25879 24.9883C2.0959 24.9722 1.93496 24.9401 1.77832 24.8926L1.54688 24.8096C1.31945 24.7153 1.10757 24.5882 0.917969 24.4326L0.736328 24.2676C0.562303 24.0935 0.415422 23.895 0.299805 23.6787L0.194336 23.457C0.100194 23.2297 0.0406816 22.9901 0.0166016 22.7461L0.00390625 22.501V16.2559H0.632812L0.788086 16.252C1.50848 16.2162 2.1948 15.9323 2.72949 15.4482L2.8418 15.3408C3.39087 14.7916 3.71473 14.0591 3.75293 13.2871L3.75684 13.1328C3.75684 12.3562 3.46714 11.6091 2.94824 11.0361L2.8418 10.9238C2.29272 10.3748 1.55995 10.052 0.788086 10.0137L0.632812 10.0098H0V6.25684C0 5.67674 0.201905 5.11763 0.566406 4.67285L0.732422 4.48926C1.14243 4.0794 1.68007 3.8264 2.25195 3.76953L2.49902 3.75781H8.73828V3.12305C8.7383 2.34673 9.0274 1.60018 9.5459 1.02734L9.65332 0.915039C10.239 0.329378 11.0331 4.57704e-05 11.8613 0L12.0166 0.00390625C12.7884 0.0422551 13.5213 0.366 14.0703 0.915039C14.6558 1.50069 14.9844 2.29494 14.9844 3.12305V3.75781H18.7432C19.406 3.75781 20.042 4.02053 20.5107 4.48926C20.9795 4.95798 21.2422 5.59396 21.2422 6.25684V12.4961H21.877L21.8809 12.4902C22.7092 12.4902 23.5041 12.8196 24.0898 13.4053C24.6754 13.9909 25.0038 14.7852 25.0039 15.6133L25.001 15.7686C24.9626 16.5404 24.6389 17.2732 24.0898 17.8223L23.9775 17.9287C23.4428 18.4129 22.7566 18.6967 22.0361 18.7324L21.8809 18.7363V17.2363C22.3113 17.2363 22.7249 17.0661 23.0293 16.7617C23.2955 16.4955 23.4591 16.1458 23.4961 15.7744L23.5039 15.6133Z" fill="#5F6368"/>
		</symbol>
		<symbol id="pin-chrome" viewBox="0 0 15 23" fill="none" xmlns="http://www.w3.org/2000/svg">
			<path d="M6.74998 22.1565V14.4426H1.80076C0.703938 14.4425 0.138999 13.1311 0.892553 12.3342L3.00779 10.0979V1.52466H2.43162C2.0174 1.52466 1.68162 1.18887 1.68162 0.774658C1.68162 0.360445 2.0174 0.0246582 2.43162 0.0246582H12.5097L12.5869 0.0285645C12.9649 0.0671426 13.2597 0.38646 13.2597 0.774658C13.2597 1.16286 12.9649 1.48217 12.5869 1.52075L12.5097 1.52466H11.9023V10.0911L14.0713 12.3215L14.1396 12.3967C14.8069 13.1949 14.2467 14.4425 13.1758 14.4426H8.24998V22.1565C8.24998 22.5706 7.91404 22.9063 7.49998 22.9065C7.08576 22.9065 6.74998 22.5707 6.74998 22.1565ZM4.50779 10.1975C4.50779 10.517 4.38556 10.8248 4.16599 11.0569L2.38181 12.9426H12.583L10.7568 11.0657C10.5298 10.8323 10.4023 10.5192 10.4023 10.1936V1.52466H4.50779V10.1975Z" fill="#474747"/>
		</symbol>
		<symbol id="pin-edge" viewBox="0 0 25 25" fill="none" xmlns="http://www.w3.org/2000/svg">
			<path d="M13.2013 0.692931C13.7355 -0.111419 14.8947 -0.24878 15.6003 0.456676L24.5438 9.40002L24.673 9.54743C25.2273 10.2579 25.0582 11.3004 24.3075 11.7989L24.1379 11.8969L16.5413 15.6951L13.8001 22.0911C13.3655 23.1048 12.0447 23.3597 11.2648 22.5798L7.39381 18.7089L1.33084 24.7717C1.02643 25.0761 0.532714 25.0761 0.228301 24.7717C-0.0761104 24.4673 -0.07609 23.9736 0.228301 23.6692L6.29127 17.6063L2.42026 13.7354C1.64036 12.9555 1.8952 11.6347 2.90893 11.2002L9.30508 8.45904L13.1034 0.86255L13.2013 0.692931ZM10.6994 9.15569C10.5551 9.44433 10.3254 9.68044 10.0431 9.83215L9.91895 9.89172L3.5228 12.6329L12.3674 21.4773L15.1086 15.0812L15.1681 14.9571C15.3198 14.6747 15.5559 14.4451 15.8446 14.3008L23.4412 10.5025L14.4977 1.5592L10.6994 9.15569Z" fill="black"/>
		</symbol>
		<symbol id="pin-firefox" viewBox="0 0 22 24" fill="none" xmlns="http://www.w3.org/2000/svg">
			<path fill-rule="evenodd" clip-rule="evenodd" d="M11.742 8.40144C11.0041 8.25467 10.2393 8.33 9.54424 8.6179C8.84919 8.9058 8.25512 9.39334 7.83715 10.0189C7.41919 10.6444 7.1961 11.3798 7.1961 12.1321C7.1961 13.141 7.59685 14.1085 8.3102 14.8218C9.02355 15.5352 9.99105 15.9359 10.9999 15.9359C11.7522 15.9359 12.4876 15.7128 13.1131 15.2949C13.7387 14.8769 14.2262 14.2828 14.5141 13.5878C14.802 12.8927 14.8773 12.1279 14.7306 11.39C14.5838 10.6522 14.2215 9.97442 13.6896 9.44245C13.1576 8.91048 12.4798 8.54821 11.742 8.40144ZM9.33614 10.4684C9.77739 10.0271 10.3759 9.77924 10.9999 9.77924C11.4652 9.77924 11.9201 9.91724 12.3071 10.1758C12.694 10.4343 12.9956 10.8018 13.1737 11.2317C13.3517 11.6617 13.3983 12.1347 13.3076 12.5912C13.2168 13.0476 12.9927 13.4668 12.6636 13.7959C12.3346 14.1249 11.9153 14.349 11.4589 14.4398C11.0025 14.5306 10.5294 14.484 10.0995 14.3059C9.66953 14.1278 9.30206 13.8263 9.04352 13.4393C8.78499 13.0524 8.64699 12.5975 8.64699 12.1321C8.64699 11.5081 8.89489 10.9096 9.33614 10.4684Z" fill="black"/>
			<path fill-rule="evenodd" clip-rule="evenodd" d="M1.11453 18.5566C1.75584 19.4713 2.96334 19.8449 4.00851 19.4551L5.5287 18.9114C6.22433 19.472 7.00223 19.922 7.83494 20.2456L8.12765 21.8653L8.12927 21.8737C8.28619 22.6907 8.81057 23.2463 9.34927 23.5636C9.87084 23.8709 10.4581 23.9956 10.9883 23.9999C11.8847 24.0071 13.5506 23.5792 13.8782 21.8737L13.8807 21.8608L14.1643 20.2372C14.9949 19.9141 15.7709 19.4653 16.4651 18.9065L18.0004 19.4556C19.0525 19.8461 20.2666 19.4623 20.9021 18.5357L20.9138 18.5186L20.9251 18.5013C21.1408 18.1682 21.3391 17.8242 21.5191 17.4706L21.5323 17.4446L21.5446 17.4182C22.0146 16.4031 21.7321 15.1695 20.87 14.4593L19.641 13.4163C19.7795 12.534 19.7795 11.6354 19.641 10.7531L20.87 9.71006C21.7321 8.99992 22.0146 7.76629 21.5446 6.75124L21.5323 6.72477L21.5191 6.69877C21.3391 6.34517 21.1408 6.00115 20.9251 5.66811L20.9097 5.64433L20.8934 5.62113C20.2533 4.70714 19.0482 4.33174 18.0028 4.71805L16.4758 5.26078C15.781 4.70128 15.0041 4.25205 14.1725 3.92888L13.8798 2.30925L13.8782 2.30082C13.6593 1.16105 12.6546 0.302331 11.4946 0.263568L11.4685 0.262695H11.4424C11.1378 0.262695 10.8363 0.266258 10.5379 0.273405L10.5231 0.273829C9.36316 0.312592 8.35845 1.17131 8.13953 2.31108L8.13791 2.31951L7.84521 3.93914C7.01401 4.26217 6.23743 4.71116 5.54276 5.27034L4.01058 4.72021C2.95841 4.32595 1.74136 4.70576 1.1012 5.63112L1.08765 5.6507L1.07471 5.67067C0.859004 6.00372 0.660721 6.34774 0.480669 6.70134L0.466662 6.72885L0.453751 6.75689C-0.0133191 7.77133 0.269212 9.00233 1.1294 9.7123L2.36131 10.756C2.22287 11.6382 2.22289 12.5366 2.36136 13.4188L1.13247 14.4618C0.264792 15.1762 -0.0137856 16.4212 0.469687 17.4378L0.477763 17.4548L0.486245 17.4716C0.666402 17.828 0.865556 18.1746 1.08284 18.5097L1.09826 18.5334L1.11453 18.5566ZM1.88161 16.7663C2.03654 17.0729 2.2078 17.3709 2.39466 17.659C2.62848 17.9925 3.08927 18.1333 3.46951 17.9874L5.29856 17.3333C5.64304 17.2135 6.04088 17.2895 6.3144 17.5308C6.99834 18.1234 7.78884 18.5805 8.64368 18.8776C8.98755 18.9962 9.25275 19.3047 9.31835 19.6625L9.66466 21.5788C9.88053 22.7026 12.1194 22.7422 12.3428 21.5788L12.6789 19.6548C12.7445 19.297 13.0097 18.9885 13.3535 18.8699C14.2084 18.5728 14.9989 18.1157 15.6828 17.5231C15.9597 17.2821 16.3642 17.2072 16.7089 17.3333L18.538 17.9874C18.9197 18.1327 19.3818 17.9882 19.6128 17.6514C19.7991 17.3637 19.9704 17.0666 20.1259 16.7612C20.2979 16.3896 20.188 15.9179 19.8693 15.6607L18.3943 14.4088C18.1174 14.1738 17.9824 13.7908 18.0506 13.434C18.225 12.5429 18.225 11.6265 18.0506 10.7354C17.9824 10.3786 18.1174 9.99563 18.3943 9.76056L19.8693 8.5087C20.188 8.25151 20.2979 7.77977 20.1259 7.4082C19.9704 7.10281 19.7991 6.80569 19.6128 6.51805C19.3791 6.18438 18.9189 6.04268 18.538 6.18713L16.7192 6.83358C16.3744 6.95962 15.9699 6.88479 15.6931 6.64375C15.0091 6.0511 14.2186 5.59404 13.3638 5.29698C13.0199 5.17835 12.7547 4.86979 12.6891 4.512L12.3428 2.59574C12.2616 2.17302 11.8726 1.84053 11.4424 1.82616C11.15 1.82616 10.8609 1.82958 10.5753 1.83642C10.1451 1.85079 9.75611 2.18328 9.67492 2.606L9.32861 4.52226C9.26301 4.88005 8.99781 5.18862 8.65394 5.30724C7.7991 5.6043 7.00861 6.06136 6.32467 6.65401C6.04781 6.89505 5.64332 6.96988 5.29856 6.84384L3.46951 6.18713C3.08612 6.03933 2.62074 6.1827 2.38697 6.52061C2.20066 6.80826 2.02941 7.10537 1.87391 7.41077C1.70276 7.7825 1.81255 8.25353 2.13044 8.51127L3.60804 9.76312C3.8849 9.99819 4.01996 10.3812 3.95179 10.7379C3.77735 11.629 3.77735 12.5455 3.95179 13.4366C4.01996 13.7933 3.8849 14.1763 3.60804 14.4114L2.133 15.6633C1.81346 15.921 1.70529 16.3956 1.88161 16.7663Z" fill="black"/>
		</symbol>
		<symbol id="arrow-right" viewBox="0 0 21 17" fill="none" xmlns="http://www.w3.org/2000/svg">
			<path d="M20.9532 8.20116C20.9063 8.05483 20.8241 7.91714 20.7065 7.80112L13.0934 0.289488C12.7022 -0.0964959 12.068 -0.0964959 11.6768 0.289488C11.2856 0.675471 11.2856 1.30127 11.6768 1.68726L17.5804 7.51221H1.00172C0.448484 7.51221 0 7.95472 0 8.50058C0 9.04644 0.448484 9.48895 1.00172 9.48895H17.5792L11.6768 15.3127C11.2856 15.6987 11.2856 16.3245 11.6768 16.7105C12.068 17.0965 12.7022 17.0965 13.0934 16.7105L20.6838 9.22128C20.8784 9.04098 21 8.78479 21 8.50058C21 8.3962 20.9836 8.2956 20.9532 8.20116Z" fill="#B7B9BB"/>
		</symbol>
	</defs>
</svg>