<svg width="112" height="113" viewBox="0 0 112 113" fill="none" xmlns="http://www.w3.org/2000/svg">
<path d="M55.9566 71.7953C54.5323 71.8531 53.1854 72.4591 52.1975 73.4867C51.2096 74.5143 50.657 75.8839 50.6553 77.3094C50.6819 78.8021 51.2657 80.231 52.292 81.3153C52.7587 81.8064 53.3207 82.1972 53.9436 82.4639C54.5665 82.7305 55.2372 82.8674 55.9148 82.8661H56.0007C57.4347 82.8047 58.7878 82.1843 59.77 81.1376C60.7522 80.0909 61.2855 78.7012 61.2557 77.2661C61.2565 75.7886 60.6852 74.3682 59.6616 73.3028C59.1784 72.8106 58.6017 72.4199 57.9655 72.1536C57.3293 71.8873 56.6463 71.7508 55.9566 71.752V71.7953Z" fill="white"/>
<path d="M56.1728 40.3926H55.8278C55.0946 40.3911 54.3702 40.5527 53.7071 40.8656C53.044 41.1785 52.4588 41.6349 51.9937 42.2018C50.9128 43.496 50.3188 45.1277 50.3145 46.8139C50.8725 53.3268 51.822 59.8001 53.1578 66.1989H58.8011C60.1415 59.8025 61.0776 53.328 61.6041 46.8139C61.6136 45.1316 61.0322 43.4993 59.9614 42.2018C59.4902 41.6425 58.904 41.1915 58.2428 40.8793C57.5815 40.5671 56.8607 40.4011 56.1295 40.3926H56.1728Z" fill="white"/>
<path d="M99.6802 83.5122L63.151 23.3764C62.4315 22.0545 61.3837 20.9401 60.1087 20.1405C58.8337 19.3408 57.3743 18.8828 55.871 18.8105C54.3667 18.8776 52.9065 19.3386 51.6364 20.1476C50.3664 20.9565 49.3311 22.0849 48.6343 23.4197L12.751 82.7364C11.8631 83.9132 11.3256 85.3168 11.2002 86.7856C11.0524 88.2474 11.3056 89.7218 11.9327 91.0505C12.8091 92.368 14.0226 93.4265 15.4468 94.1159C16.8711 94.8053 18.454 95.1004 20.031 94.9705H91.6677C93.2278 95.1204 94.8003 94.8662 96.2337 94.2325C97.6672 93.5988 98.9135 92.6069 99.8527 91.3522C100.519 90.1403 100.846 88.7712 100.8 87.3889C100.795 86.0309 100.407 84.702 99.6802 83.5548V83.5122ZM50.6585 77.3089C50.666 75.8376 51.2542 74.4287 52.2952 73.3889C52.7683 72.8891 53.3377 72.4902 53.9691 72.2163C54.6004 71.9423 55.2807 71.799 55.9689 71.795C56.6571 71.7909 57.3391 71.9262 57.9736 72.1927C58.6081 72.4592 59.1822 72.8514 59.6611 73.3456C60.6847 74.411 61.256 75.8314 61.2552 77.3089C61.285 78.744 60.7517 80.1337 59.7695 81.1804C58.7873 82.227 57.4343 82.8475 56.0002 82.9089H55.9143C55.2375 82.9096 54.5677 82.7724 53.9456 82.5058C53.3235 82.2392 52.7622 81.8487 52.296 81.3581C51.2767 80.2693 50.694 78.8433 50.6593 77.3522L50.6585 77.3089ZM51.9936 42.2014C52.465 41.6419 53.0516 41.1906 53.7132 40.8784C54.3749 40.5662 55.0961 40.4004 55.8277 40.3922H56.1727C56.9059 40.3908 57.6303 40.5523 58.2934 40.8652C58.9565 41.1781 59.5418 41.6345 60.0068 42.2014C61.0933 43.4885 61.6755 45.1264 61.645 46.8105C61.1226 53.3249 60.1874 59.7996 58.845 66.1955H53.2002C51.8675 59.7962 50.9181 53.323 50.3569 46.8105C50.3418 45.1217 50.9386 43.4844 52.0369 42.2014H51.9936Z" fill="#E04239"/>
</svg>
