<svg width="15" height="16" viewBox="0 0 15 16" fill="none" xmlns="http://www.w3.org/2000/svg">
<path d="M10.2796 2.42871H4.93164V13.3687H10.2796V2.42871Z" fill="white"/>
<path d="M7.5 0.761719C6.01664 0.761719 4.5666 1.20159 3.33323 2.0257C2.09986 2.84981 1.13856 4.02115 0.570907 5.39159C0.00324965 6.76204 -0.145275 8.27004 0.144114 9.7249C0.433503 11.1798 1.14781 12.5161 2.1967 13.565C3.2456 14.6139 4.58197 15.3282 6.03683 15.6176C7.49168 15.907 8.99968 15.7585 10.3701 15.1908C11.7406 14.6232 12.9119 13.6619 13.736 12.4285C14.5601 11.1951 15 9.74508 15 8.26172C14.9984 6.27308 14.2077 4.36635 12.8015 2.96017C11.3954 1.55399 9.48864 0.763308 7.5 0.761719ZM7.556 3.09572C7.89025 3.08626 8.21636 3.19973 8.47254 3.41463C8.72872 3.62952 8.89718 3.93092 8.946 4.26172C8.9021 4.59467 8.73522 4.89915 8.47818 5.11529C8.22115 5.33143 7.89255 5.44359 7.557 5.42972C7.22866 5.43789 6.90925 5.32233 6.66214 5.10597C6.41502 4.88961 6.25828 4.58826 6.223 4.26172C6.25875 3.93554 6.41569 3.63467 6.66275 3.41873C6.90982 3.20278 7.22797 3.0875 7.556 3.09572ZM9.862 12.4867H5.64V11.9307L6.835 11.5977V7.79072L5.64 7.23472V6.92972H8.363C8.641 6.92972 8.669 6.95772 8.669 7.23572V11.6257L9.864 11.9587V12.4867H9.862Z" fill="#187DAF"/>
</svg>
