<svg viewBox="0 0 1365 768" fill="none" xmlns="http://www.w3.org/2000/svg">
	<g clip-path="url(#clip0_7458_57)">
		<path d="M1365 0H0V768H1365V0Z" fill="#0096A1" />
		<mask id="mask0_7458_57" style="mask-type:luminance" maskUnits="userSpaceOnUse" x="0" y="0" width="1365"
			height="768">
			<path d="M1365 0H0V768H1365V0Z" fill="white" />
		</mask>
		<g mask="url(#mask0_7458_57)">
			<path
				d="M746.246 -488.257L-9.83731 -51.7324C-134.193 20.0646 -176.801 179.078 -105.004 303.434L-103.043 306.831C-31.2459 431.187 127.768 473.794 252.124 401.997L1008.21 -34.5277C1132.56 -106.325 1175.17 -265.338 1103.37 -389.694L1101.41 -393.091C1029.62 -517.447 870.602 -560.054 746.246 -488.257Z"
				fill="#00A9B3" />
		</g>
		<mask id="mask1_7458_57" style="mask-type:luminance" maskUnits="userSpaceOnUse" x="0" y="0" width="1365"
			height="768">
			<path d="M1365 0H0V768H1365V0Z" fill="white" />
		</mask>
		<g mask="url(#mask1_7458_57)">
			<path
				d="M1903.01 -53.7643L956.399 492.761C832.042 564.558 789.435 723.571 861.232 847.927L904.193 922.338C975.99 1046.69 1135 1089.3 1259.36 1017.5L2205.97 470.98C2330.32 399.183 2372.93 240.169 2301.14 115.813L2258.17 41.4023C2186.38 -82.9538 2027.36 -125.561 1903.01 -53.7643Z"
				fill="#00BBC5" />
		</g>
	</g>
	<defs>
		<clipPath id="clip0_7458_57">
			<rect width="1365" height="768" fill="white" />
		</clipPath>
	</defs>
</svg>