<svg width="171" height="17" viewBox="0 0 171 17" fill="none" xmlns="http://www.w3.org/2000/svg">
<path d="M4.51584 0.799622H0V13.1711H2.39904V9.26682H3.62208C7.15008 9.26682 8.98464 7.33818 8.98464 4.98618C8.98464 2.3049 7.15008 0.799622 4.51584 0.799622ZM3.66912 7.43226V7.4793H2.352V2.72826H4.09248C5.83296 2.72826 6.49152 3.57498 6.49152 5.08026C6.49152 6.5385 5.55072 7.43226 3.66912 7.43226Z" fill="white"/>
<path d="M10.6307 3.62206H12.9357V4.89214C13.4061 4.23358 14.2999 3.4339 15.5229 3.4339C16.0403 3.4339 16.4637 3.48094 16.7459 3.57502L16.4167 5.50366C15.9463 5.40958 15.7581 5.40958 15.1936 5.40958C14.2528 5.40958 13.3591 5.97406 12.9357 6.4915V13.1712H10.6307V3.62206Z" fill="white"/>
<path d="M21.8268 3.38687C19.0044 3.38687 17.0757 5.26847 17.0757 8.46719C17.0757 11.5248 18.7692 13.3593 21.6856 13.3593C24.461 13.3593 26.4837 11.6659 26.4837 8.37311C26.4837 5.26847 25.0255 3.38687 21.8268 3.38687ZM21.8268 11.5248C19.9922 11.5248 19.4277 10.1606 19.4277 8.42015C19.4277 6.77375 19.9452 5.22143 21.7797 5.22143C23.6613 5.22143 24.1317 6.72671 24.1317 8.37311C24.1317 10.1136 23.6613 11.5248 21.8268 11.5248Z" fill="white"/>
<path d="M33.022 3.33984C30.2936 3.33984 28.0357 5.08032 28.0357 8.42016C28.0357 12.7478 30.5288 13.3123 32.6927 13.3123C33.3983 13.3123 34.0098 13.0771 34.4802 12.7008V13.1712C34.4802 14.8646 33.4924 15.0528 32.0341 15.0528C31.2815 15.0528 30.0114 14.8646 29.1176 14.6765L28.7413 16.5581C29.588 16.7933 30.9522 17.0755 32.3164 16.9814C34.4802 16.9814 36.7381 15.9936 36.7381 13.3594V3.7632C35.421 3.528 34.3861 3.33984 33.022 3.33984ZM34.4802 11.1014C34.0568 11.2896 33.4924 11.5248 32.8338 11.5248C31.3285 11.5248 30.3877 10.7251 30.3877 8.4672C30.3877 6.63264 31.1874 5.31552 33.069 5.31552C33.6805 5.31552 34.1039 5.4096 34.4802 5.50368V11.1014Z" fill="white"/>
<path d="M39.5136 3.62206H41.8186V4.89214C42.289 4.23358 43.1827 3.4339 44.4058 3.4339C44.9232 3.4339 45.3466 3.48094 45.6288 3.57502L45.2995 5.50366C44.8291 5.40958 44.641 5.40958 44.0765 5.40958C43.1357 5.40958 42.2419 5.97406 41.8186 6.4915V13.1712H39.5136V3.62206Z" fill="white"/>
<path d="M54.5669 8.23198C54.5669 5.26846 53.485 3.4339 50.7096 3.4339C48.0284 3.4339 46.0527 4.65694 46.0527 8.56126C46.0527 12.2774 47.9343 13.3593 50.9448 13.4064C52.262 13.4064 53.532 13.1712 54.3317 12.936L53.9554 11.1485C53.1557 11.2896 52.0268 11.5248 51.3682 11.5248C49.6748 11.5248 48.3576 11.1955 48.3576 9.0787H54.5669V8.23198ZM48.4047 7.47934C48.4988 5.87998 49.2984 5.03326 50.4744 5.03326C51.6034 5.03326 52.1679 6.06814 52.1679 7.47934H48.4047Z" fill="white"/>
<path d="M56.0249 12.983L56.3072 11.1955C57.295 11.3366 58.2828 11.5248 59.0355 11.5248C60.5408 11.5248 60.9641 11.0544 60.9641 10.5369C60.9641 9.07871 56.166 9.64319 56.166 6.25631C56.166 4.32767 57.9065 3.38687 59.8822 3.38687C61.0112 3.38687 61.999 3.62207 62.7516 3.85727L62.3753 5.59775C61.6227 5.40959 60.9171 5.26847 59.8822 5.26847C58.8003 5.26847 58.471 5.73887 58.471 6.16223C58.471 7.66751 63.222 7.24415 63.222 10.4429C63.222 12.8419 60.823 13.4064 59.2236 13.4064C57.9065 13.3593 56.8246 13.1712 56.0249 12.983Z" fill="white"/>
<path d="M64.6801 12.983L64.9624 11.1955C65.9502 11.3366 66.938 11.5248 67.6907 11.5248C69.196 11.5248 69.6193 11.0544 69.6193 10.5369C69.6193 9.07871 64.8212 9.64319 64.8212 6.25631C64.8212 4.32767 66.5617 3.38687 68.5374 3.38687C69.6664 3.38687 70.6542 3.62207 71.4068 3.85727L71.0305 5.59775C70.2779 5.40959 69.5723 5.26847 68.5374 5.26847C67.4555 5.26847 67.1262 5.73887 67.1262 6.16223C67.1262 7.66751 71.8772 7.24415 71.8772 10.4429C71.8772 12.8419 69.4782 13.4064 67.8788 13.4064C66.5147 13.3593 65.4798 13.1712 64.6801 12.983Z" fill="white"/>
<path d="M76.9103 10.8191H74.2761V13.1711H76.9103V10.8191Z" fill="white"/>
<path d="M88.1061 0.799622H83.5903V13.1711H85.9893V9.26682H87.2124C90.7404 9.26682 92.5749 7.33818 92.5749 4.98618C92.5749 2.3049 90.7404 0.799622 88.1061 0.799622ZM87.3064 7.43226V7.4793H85.9893V2.72826H87.7298C89.4703 2.72826 90.1288 3.57498 90.1288 5.08026C90.1288 6.5385 89.188 7.43226 87.3064 7.43226Z" fill="white"/>
<path d="M94.2681 3.62206H96.573V4.89214C97.0434 4.23358 97.9372 3.4339 99.1602 3.4339C99.6777 3.4339 100.101 3.48094 100.383 3.57502L100.054 5.50366C99.5836 5.40958 99.3954 5.40958 98.8309 5.40958C97.8901 5.40958 96.9964 5.97406 96.573 6.4915V13.1712H94.2681V3.62206Z" fill="white"/>
<path d="M105.464 3.38687C102.641 3.38687 100.713 5.26847 100.713 8.46719C100.713 11.5248 102.359 13.3593 105.322 13.3593C108.098 13.3593 110.121 11.6659 110.121 8.37311C110.121 5.26847 108.662 3.38687 105.464 3.38687ZM105.464 11.5248C103.629 11.5248 103.065 10.1606 103.065 8.42015C103.065 6.77375 103.582 5.22143 105.417 5.22143C107.298 5.22143 107.769 6.72671 107.769 8.37311C107.769 10.1136 107.298 11.5248 105.464 11.5248Z" fill="white"/>
<path d="M112.614 10.3016V5.40947H111.203V3.62195H112.614V1.64627H114.919V3.62195H117.882V5.40947H114.919V10.3016C114.919 11.2424 115.248 11.3835 116.283 11.3835C116.895 11.3835 118.023 11.1954 118.118 11.1954L118.4 13.0299C117.835 13.2181 116.989 13.3592 116.33 13.3592C114.448 13.3592 112.614 13.4063 112.614 10.3016Z" fill="white"/>
<path d="M127.996 8.23198C127.996 5.26846 126.914 3.4339 124.139 3.4339C121.457 3.4339 119.482 4.65694 119.482 8.56126C119.482 12.2774 121.363 13.3593 124.374 13.4064C125.691 13.4064 126.961 13.1712 127.761 12.936L127.384 11.1485C126.585 11.2896 125.456 11.5248 124.797 11.5248C123.104 11.5248 121.787 11.1955 121.787 9.0787H127.996V8.23198ZM121.881 7.47934C121.975 5.87998 122.774 5.03326 123.95 5.03326C125.079 5.03326 125.644 6.06814 125.644 7.47934H121.881Z" fill="white"/>
<path d="M129.548 8.32607C129.548 5.31551 131.43 3.38687 134.488 3.38687C135.852 3.38687 136.698 3.66911 137.357 3.99839L136.745 5.73887C136.087 5.45663 135.569 5.31551 134.582 5.31551C133.17 5.31551 131.947 6.16223 131.947 8.37311C131.947 10.4899 132.559 11.4777 135.005 11.4777C135.805 11.4777 136.322 11.3366 136.981 11.2425L137.31 13.0301C136.557 13.2182 135.899 13.3593 134.864 13.3593C131.007 13.3123 129.548 11.8541 129.548 8.32607Z" fill="white"/>
<path d="M139.568 10.3016V5.40947H138.157V3.62195H139.568V1.64627H141.873V3.62195H144.836V5.40947H141.873V10.3016C141.873 11.2424 142.202 11.3835 143.237 11.3835C143.848 11.3835 144.977 11.1954 145.071 11.1954L145.354 13.0299C144.836 13.2181 143.942 13.3592 143.284 13.3592C141.449 13.3592 139.568 13.4063 139.568 10.3016Z" fill="white"/>
<path d="M154.95 8.23198C154.95 5.26846 153.868 3.4339 151.092 3.4339C148.411 3.4339 146.435 4.65694 146.435 8.56126C146.435 12.2774 148.364 13.3593 151.328 13.4064C152.645 13.4064 153.915 13.1712 154.715 12.936L154.338 11.1485C153.539 11.2896 152.41 11.5248 151.751 11.5248C150.058 11.5248 148.74 11.1955 148.74 9.0787H154.95V8.23198ZM148.835 7.47934C148.929 5.87998 149.728 5.03326 150.904 5.03326C152.033 5.03326 152.598 6.06814 152.598 7.47934H148.835Z" fill="white"/>
<path d="M162.946 0V3.528C162.523 3.43392 162.1 3.38688 161.441 3.38688C158.713 3.38688 156.502 5.03328 156.502 8.32608C156.502 12.4656 158.807 13.3123 160.688 13.3594C161.817 13.3594 162.476 12.8419 162.946 12.4186V13.1712H165.251V0H162.946ZM162.946 10.7722C162.523 11.0074 161.723 11.3837 161.065 11.3366C159.842 11.3366 158.854 10.584 158.854 8.32608C158.854 6.5856 159.606 5.22144 161.488 5.22144C162.147 5.22144 162.617 5.31552 162.946 5.4096V10.7722Z" fill="white"/>
<path d="M170.99 10.8191H168.356V13.1711H170.99V10.8191Z" fill="white"/>
</svg>
