<svg width="149" height="130" viewBox="0 0 149 130" fill="none" xmlns="http://www.w3.org/2000/svg">
<path d="M10.921 25.3829C10.921 32.0664 12.5916 34.4679 19.6178 34.4679C22.2302 34.4679 24.395 34.2614 25.9088 33.4213C27.376 32.569 28.2484 31.1124 28.2775 28.5122H22.7408C22.6815 30.4169 21.3917 30.6119 19.6178 30.6119C17.0578 30.6119 16.5584 29.5689 16.5584 26.3813V26.2452H28.2775V25.3834C28.2775 18.0902 26.3071 16.2639 19.6178 16.2639C12.4554 16.2639 10.921 18.4938 10.921 25.3829ZM19.5145 20.12C21.5448 20.12 22.6391 20.3202 22.6391 23.1116V23.2467H16.5578C16.6251 20.8604 17.1098 20.12 19.5145 20.12ZM69.2319 22.9834V23.1762H63.0331C63.1025 20.7397 63.5665 19.9346 66.0507 19.9346C68.0952 19.9346 69.2319 20.147 69.2319 22.9834ZM43.936 29.2045C43.936 28.2786 43.6653 27.767 43.0816 27.5122C42.4523 27.2389 41.3818 27.2759 40.7065 27.2759C33.2401 27.2759 32.0107 25.6096 32.0107 22.0453C32.0107 16.3767 35.6639 16.2639 40.7065 16.2639C44.0663 16.2639 48.5421 16.3221 48.5421 20.5993V21.3244H43.2294C42.972 19.9118 41.8416 19.8096 40.7065 19.8096C37.6105 19.8096 37.4776 20.1936 37.4776 21.3928C37.4776 22.4023 37.6571 23.0422 40.7039 23.11C46.8397 23.2488 49.4023 23.5994 49.4023 28.5143C49.4023 33.674 45.4583 34.4679 40.706 34.4679C39.5417 34.4679 38.4077 34.4748 37.3647 34.3938C33.9181 34.1189 32.0536 32.8307 32.0102 28.892H37.6508C37.7186 30.89 39.225 30.9228 40.706 30.9228C43.3671 30.9228 43.9349 30.7554 43.9349 29.204L43.936 29.2045ZM99.2765 12.5111C97.0296 8.81338 92.7222 6.20417 87.6717 6.20417H14.027C8.97438 6.20417 4.66808 8.81338 2.42117 12.5111C0.437517 15.9524 0 21.5586 0 25.2732C0 28.9879 0.437517 34.5935 2.42117 38.0343C4.66808 41.7315 8.97438 44.3417 14.027 44.3417H87.6712C92.7222 44.3417 97.0291 41.7315 99.276 38.0343C101.258 34.594 101.698 28.9873 101.698 25.2711C101.698 21.5549 101.259 15.953 99.2765 12.5111ZM52.9405 40.9888H14.963C12.019 40.9836 8.58083 39.5428 6.79157 37.6174C3.96519 34.5781 3.34758 29.8099 3.34758 25.2743C3.34758 20.7386 3.96466 15.9673 6.79157 12.9279C8.58083 11.0036 12.019 9.56235 14.963 9.55653H52.94L52.9405 40.9888ZM74.757 26.0577H63.0389V26.2526C63.0389 29.4498 63.5426 30.5414 66.1524 30.5414C67.9083 30.5414 69.2478 30.347 69.331 28.4418H74.7555C74.7131 30.9858 73.8502 32.4096 72.4153 33.2407C70.9179 34.0739 68.7642 34.2826 66.1524 34.2826C59.1632 34.2826 57.5143 31.9117 57.5143 25.2547C57.5143 18.3895 59.0266 16.1913 66.1524 16.1913C72.811 16.1913 74.757 17.9928 74.757 25.2547V26.0577ZM92.1592 20.3255H88.0409V34.2688H82.403V20.3255H78.2805V16.2633H92.1592V20.3255ZM95.4744 4.10717C95.4543 5.2089 95.8961 6.26827 96.6922 7.02995C98.3003 8.62376 100.893 8.62376 102.501 7.02995C103.288 6.26827 103.728 5.21685 103.719 4.122V4.10982C103.727 3.02079 103.287 1.97573 102.501 1.22147C101.75 0.431712 100.705 -0.0105717 99.615 0.00108132C98.5122 -0.024873 97.4502 0.41741 96.6922 1.21882C95.9014 1.96991 95.4596 3.01708 95.4744 4.10717ZM99.6001 0.885119C100.448 0.867639 101.264 1.20611 101.851 1.81789C102.466 2.4196 102.807 3.24697 102.796 4.10717C102.81 4.9679 102.468 5.79632 101.851 6.39645C101.268 7.01565 100.451 7.361 99.6001 7.34881C98.7436 7.36259 97.9205 7.01724 97.3299 6.39645C96.7166 5.7942 96.3776 4.96631 96.3924 4.10717C96.3813 3.24855 96.7197 2.42225 97.3299 1.81789C97.9237 1.20452 98.7463 0.86658 99.6001 0.885119ZM98.9571 4.55051H99.3713L100.589 6.06275H101.889L100.345 4.29203C100.598 4.19615 100.823 4.0399 101.001 3.8365C101.171 3.63257 101.258 3.37144 101.244 3.10607C101.254 2.90956 101.21 2.71464 101.118 2.5409C101.015 2.38094 100.871 2.2517 100.701 2.16589C100.542 2.07425 100.366 2.01705 100.183 1.99798C99.9534 1.96779 99.7225 1.9556 99.491 1.96143H97.9396V6.06275H98.9359L98.9571 4.55051ZM98.9571 2.67014H99.2813C99.402 2.66644 99.5223 2.67385 99.642 2.69186C99.7341 2.6961 99.8247 2.7194 99.9074 2.76019C99.9889 2.80044 100.054 2.86877 100.09 2.95246C100.129 3.01814 100.149 3.09283 100.148 3.1691C100.151 3.27292 100.135 3.37621 100.1 3.47367C100.062 3.54994 100.008 3.61721 99.9413 3.67071C99.8491 3.72898 99.7479 3.77188 99.6414 3.7973C99.4974 3.81478 99.3528 3.82326 99.2082 3.82167H98.9645L98.9571 2.67014ZM24.8023 127.938L25.7102 125.702C27.6313 126.401 29.4121 126.89 31.5775 126.89C33.9875 126.89 36.2921 126.366 36.2921 123.922C36.2921 122.245 34.1268 121.442 32.4504 120.813C29.5869 119.661 25.6752 118.403 25.6752 114.597C25.6752 111.315 28.7484 109.847 32.4848 109.847C35.2789 109.847 36.7805 110.232 38.3521 110.896L37.6185 112.991C35.8377 112.467 34.4753 112.153 32.5897 112.153C30.2495 112.153 28.5037 112.746 28.5037 114.563C28.5037 116.273 30.5642 117.147 32.2051 117.845C34.8943 118.998 39.1551 120.289 39.1551 123.747C39.1551 127.974 35.4531 129.265 31.5764 129.265C28.3284 129.265 26.0238 128.532 24.8013 127.938L24.8023 127.938ZM41.5466 129.09V110.022H53.7992V112.257H44.2713V118.369H53.2054V120.639H44.2713V126.82H54.4279V129.09H41.5466ZM65.6095 129.439C59.1834 129.439 55.5164 125.353 55.5164 119.696C55.5164 113.689 59.1479 109.708 65.5041 109.708C67.8442 109.708 69.4502 110.057 71.3364 110.79L70.5683 112.99C68.7521 112.431 67.4602 112.118 65.574 112.118C61.6978 112.083 58.3099 114.178 58.3099 119.416C58.3099 124.829 61.8371 127.1 66.0978 127.1C67.8786 127.1 69.4857 126.681 70.7426 126.332C70.8125 126.611 71.3364 128.217 71.4412 128.496C70.2187 128.916 68.6477 129.439 65.6095 129.439ZM81.7923 129.439C78.0204 129.439 73.2358 127.833 73.2358 122.245V110.022H75.9949V122.071C75.9949 125.808 79.138 127.065 81.7923 127.065C84.6208 127.065 87.5891 125.633 87.5891 121.442V110.022H90.2084V121.547C90.2084 127.693 85.2845 129.439 81.7923 129.439ZM93.9792 110.022H100.999C104.875 110.022 107.425 112.048 107.425 115.994C107.425 118.403 106.202 120.499 103.583 121.511L109.905 129.09H106.342L100.824 122.141C100.545 122.141 99.9513 122.175 99.6017 122.175H96.7028V129.09H93.9786L93.9792 110.022ZM99.7416 119.94C102.605 119.94 104.561 118.928 104.561 116.134C104.561 113.444 103.234 112.292 100.405 112.292H96.7033V119.94L99.7416 119.94ZM112.009 129.09V110.022H114.733V129.09H112.009ZM145.4 110.022L139.463 121.302L133.875 110.022H116.464V112.327H123.024V129.09H125.713V112.327H132.022L138.031 123.677V129.091H140.755V123.677L148.368 110.022L145.4 110.022ZM11.5677 78.2408H3.70988V59.1728H10.7642C15.1298 59.1728 17.4344 61.1284 17.4344 64.0268C17.4344 65.7032 16.4217 67.484 14.9201 68.0434C17.0499 68.6366 18.7613 70.313 18.7613 72.6881C18.7613 75.9361 16.5266 78.2408 11.5677 78.2408ZM10.1704 61.3381H6.4335V67.4845H10.8691C13.7325 67.4845 14.6409 66.4019 14.6409 64.4113C14.6409 62.1417 12.9989 61.3381 10.1704 61.3381ZM10.5899 69.545H6.43403V76.041H11.1837C13.733 76.041 16.0033 75.4118 16.0033 72.793C16.0033 70.0689 14.1171 69.545 10.5899 69.545ZM21.5019 59.1728H28.5217C32.3979 59.1728 34.9478 61.1983 34.9478 65.1444C34.9478 67.5539 33.7253 69.6494 31.106 70.6621L37.4273 78.2408H33.8651L28.3475 71.2914C28.0678 71.2914 27.4745 71.3258 27.125 71.3258H24.226V78.2408H21.5019V59.1728ZM27.2643 69.0911C30.1277 69.0911 32.0838 68.0783 32.0838 65.2843C32.0838 62.5951 30.757 61.4425 27.928 61.4425H24.226V69.0905L27.2643 69.0911ZM46.7295 78.4855C40.653 78.4855 37.1608 74.4694 37.1608 68.6721C37.1608 62.6305 41.2468 58.8937 47.2189 58.8937C53.5401 58.8937 56.7532 63.1539 56.7532 68.7065C56.7532 74.6093 52.9808 78.4855 46.7295 78.4855ZM46.9742 61.1983C42.2595 61.1983 39.8844 64.4108 39.8844 68.6366C39.8844 72.793 42.1896 76.2153 46.7994 76.2153C51.6889 76.2153 53.9941 73.0028 53.9941 68.7065C53.9941 64.4103 51.5141 61.1983 46.9742 61.1983ZM78.048 78.2408H74.4509L70.295 62.5951L65.4754 78.2408H61.9128L56.535 59.1728H59.2935L63.9034 76.2852L69.1069 59.1728H71.6912L76.2311 76.2502L81.7838 59.1728H84.4031L78.0469 78.2408H78.048ZM84.1478 77.0882L85.0556 74.8529C86.9763 75.5516 88.7576 76.0405 90.9229 76.0405C93.3324 76.0405 95.6376 75.5166 95.6376 73.0722C95.6376 71.3957 93.4723 70.5922 91.7958 69.964C88.9324 68.8114 85.0207 67.5539 85.0207 63.7477C85.0207 60.4652 88.0939 58.998 91.8308 58.998C94.6243 58.998 96.126 59.3826 97.6981 60.0462L96.9645 62.1417C95.1831 61.6178 93.8213 61.3032 91.9357 61.3032C89.5961 61.3032 87.8497 61.8969 87.8497 63.7132C87.8497 65.4241 89.9101 66.2975 91.5516 66.9957C94.2408 68.1482 98.5016 69.4401 98.5016 72.8979C98.5016 77.1242 94.7996 78.4161 90.9234 78.4161C87.6754 78.4161 85.3703 77.682 84.1478 77.0882ZM100.893 78.2408V59.1728H113.145V61.4081H103.616V67.5195H112.551V69.7892H103.616V75.9711H113.773V78.2408H100.893ZM116.419 59.1728H123.438C127.315 59.1728 129.865 61.1983 129.865 65.1444C129.865 67.5539 128.642 69.6494 126.023 70.6621L132.344 78.2408H128.782L123.264 71.2914C122.984 71.2914 122.391 71.3258 122.042 71.3258H119.143V78.2408H116.419L116.419 59.1728ZM122.182 69.0911C125.045 69.0911 127.001 68.0783 127.001 65.2843C127.001 62.5951 125.674 61.4425 122.845 61.4425H119.143V69.0905L122.182 69.0911ZM3.71042 84.5975H10.8696C14.7807 84.5975 17.3306 86.7972 17.3306 90.7439C17.3306 94.3759 14.8157 97.135 9.47281 97.135H6.39961V103.665H3.71042V84.5975ZM9.64708 94.8648C12.5105 94.8648 14.4666 93.6423 14.4666 90.8488C14.4666 88.1246 13.1398 86.8672 10.2758 86.8672H6.39961V94.8648H9.64708ZM19.2115 84.5975H26.2309C30.1071 84.5975 32.6569 86.623 32.6569 90.5691C32.6569 92.9786 31.4344 95.074 28.8152 96.0868L35.1364 103.665H31.5743L26.0566 96.716C25.7769 96.716 25.1837 96.7505 24.8341 96.7505H21.9351V103.665H19.211L19.2115 84.5975ZM24.9739 94.5158C27.8374 94.5158 29.7935 93.503 29.7935 90.7089C29.7935 88.0197 28.4666 86.8672 25.6376 86.8672H21.9357V94.5152L24.9739 94.5158ZM37.2413 103.665V84.5975H39.9655V103.665H37.2413ZM41.714 84.5975H44.6823L50.4797 102.024L57.2898 84.5975H60.1183L52.4352 103.665H48.3143L41.714 84.5975ZM64.7169 84.5975H68.8029L75.4382 103.665H72.4349L70.3395 97.3093H62.4118L59.8974 103.665H57.0334L64.7169 84.5975ZM69.5715 95.074L66.6381 86.2035L63.2158 95.074H69.5715ZM84.9613 104.015C78.5353 104.015 74.8683 99.9286 74.8683 94.271C74.8683 88.2639 78.5003 84.2828 84.8565 84.2828C87.1961 84.2828 88.8026 84.6319 90.6888 85.3655L89.9202 87.5658C88.1045 87.0065 86.812 86.6929 84.9264 86.6929C81.0497 86.6579 77.6623 88.7533 77.6623 93.9914C77.6623 99.4047 81.1895 101.675 85.4502 101.675C87.2316 101.675 88.8381 101.256 90.095 100.907C90.1649 101.186 90.6888 102.793 90.7937 103.072C89.5712 103.491 88.0001 104.015 84.9613 104.015ZM98.3533 98.2521L91.1242 84.5975H94.1974L99.785 95.8776L105.722 84.5975H108.69L101.076 98.2521V103.665H98.3522V98.2521H98.3533ZM15.8512 119.211C14.9645 121.226 13.8104 122.945 12.5206 124.261C10.8823 123.053 9.40501 121.549 8.30328 119.99C10.7742 118.432 13.5143 116.875 13.5143 114.054C13.5143 111.959 12.037 109.703 8.92089 109.703C5.56324 109.703 3.92494 112.281 3.92494 114.995C3.92494 116.472 4.40906 118.003 5.1877 119.508C3.36083 120.797 1.80303 122.355 1.80303 124.719C1.80303 127.915 4.05895 129.259 7.06753 129.259C9.13594 129.259 11.0163 128.533 12.6551 127.217C14.643 128.399 16.7379 129.124 18.6183 129.205L19.0208 127.082C17.4901 126.921 15.9323 126.33 14.428 125.497C15.6097 124.101 16.6839 122.409 17.6511 120.474L15.8512 119.211ZM7.25557 127.028C5.83232 127.028 4.38205 126.302 4.38205 124.503C4.38205 123.213 5.1877 122.22 6.31539 121.333C7.49763 122.998 9.0014 124.556 10.6667 125.846C9.53902 126.625 8.35678 127.028 7.25557 127.028ZM6.3959 114.886C6.3959 112.872 7.30907 111.851 8.75933 111.851C10.1836 111.851 11.0968 112.818 11.0968 114.054C11.0968 115.773 9.26995 116.928 7.25557 118.19C6.69146 117.062 6.3959 115.934 6.3959 114.886Z" fill="white"/>
</svg>
