<svg width="117" height="13" viewBox="0 0 117 13" fill="none" xmlns="http://www.w3.org/2000/svg">
<path d="M0 1.34805H3.061C3.45898 1.30775 3.86096 1.35428 4.23921 1.48443C4.61746 1.61458 4.96297 1.82525 5.25188 2.10191C5.5408 2.37856 5.76625 2.71461 5.91268 3.08686C6.0591 3.45911 6.12301 3.8587 6.1 4.25805C6.1 5.88205 4.867 7.24205 2.447 7.24205H1.624V9.92305H0V1.34805ZM2.517 5.94806C3.799 5.94806 4.426 5.31806 4.426 4.31106C4.46034 4.08849 4.44221 3.86097 4.37307 3.64665C4.30393 3.43232 4.18569 3.23711 4.02777 3.07656C3.86984 2.91601 3.6766 2.79457 3.46344 2.72191C3.25029 2.64925 3.0231 2.62739 2.8 2.65806H1.624V5.94505L2.517 5.94806Z" fill="#949CA1"/>
<path d="M7.24609 3.30073H8.82409V4.18773C9.01402 3.89291 9.27068 3.64695 9.57331 3.46975C9.87595 3.29255 10.216 3.18908 10.5661 3.16773C10.8509 3.15735 11.1354 3.19418 11.4081 3.27673L11.1811 4.61172C10.9085 4.55543 10.6303 4.53093 10.3521 4.53873C10.0583 4.54775 9.76992 4.61952 9.5062 4.74923C9.24248 4.87893 9.00956 5.06357 8.82309 5.29073V9.92573H7.24609V3.30073Z" fill="#949CA1"/>
<path d="M11.6162 6.67384C11.6162 4.44084 12.9292 3.13184 14.8492 3.13184C17.0082 3.13184 18.0052 4.43183 18.0052 6.61283C18.0567 7.06166 18.0098 7.51632 17.8676 7.94513C17.7254 8.37394 17.4914 8.76658 17.1819 9.09569C16.8724 9.42479 16.4948 9.68245 16.0756 9.85069C15.6563 10.0189 15.2054 10.0937 14.7542 10.0698C12.7512 10.0698 11.6162 8.78484 11.6162 6.67384ZM16.3962 6.61283C16.3962 5.48383 16.0882 4.41283 14.8072 4.41283C13.5262 4.41283 13.2072 5.47983 13.2072 6.62083C13.2072 7.84683 13.5942 8.76883 14.8312 8.76883C16.0682 8.76883 16.4052 7.81083 16.4052 6.60883L16.3962 6.61283Z" fill="#949CA1"/>
<path d="M19.5541 12.3025L19.8151 10.9915C20.4592 11.1421 21.1154 11.2348 21.7761 11.2685C22.7761 11.2685 23.4491 11.1215 23.4491 9.9575V9.5955C23.1028 9.87509 22.6721 10.0294 22.2271 10.0335C20.7441 10.0335 19.0711 9.6335 19.0711 6.6475C19.0339 6.18625 19.0954 5.72237 19.2516 5.28676C19.4077 4.85115 19.6548 4.45379 19.9765 4.12113C20.2982 3.78848 20.687 3.52817 21.1171 3.35753C21.5473 3.18689 22.0088 3.10984 22.4711 3.1315C23.3253 3.14132 24.1761 3.24188 25.0091 3.4315V10.1155C25.0091 11.9355 23.4601 12.6385 22.0091 12.6385C21.1801 12.6262 20.3558 12.5134 19.5541 12.3025ZM23.4451 8.4795V4.5985C23.1296 4.51212 22.8042 4.46741 22.4771 4.4655C21.1841 4.4655 20.6631 5.3745 20.6631 6.6595C20.6631 8.2435 21.2921 8.7725 22.3361 8.7725C22.7205 8.7617 23.0972 8.66138 23.4361 8.4795H23.4451Z" fill="#949CA1"/>
<path d="M26.8516 3.2998H28.4276V4.1868C28.6179 3.89236 28.8747 3.6467 29.1772 3.46954C29.4798 3.29239 29.8197 3.1887 30.1696 3.1668C30.4543 3.15627 30.7389 3.19311 31.0116 3.2758L30.7816 4.6108C30.5083 4.55441 30.2295 4.52992 29.9506 4.5378C29.6566 4.54705 29.3679 4.61892 29.1039 4.7486C28.8399 4.87828 28.6066 5.06278 28.4196 5.2898V9.9248H26.8516V3.2998Z" fill="#949CA1"/>
<path d="M31.2881 6.71537C31.2881 4.01537 32.6281 3.15137 34.4611 3.15137C36.3351 3.15137 37.0941 4.41237 37.0941 6.48737V7.06937H32.8661C32.8661 8.52437 33.7551 8.76937 34.9071 8.76937C35.498 8.72701 36.0846 8.63705 36.6611 8.50037L36.9111 9.74937C36.168 9.96718 35.3975 10.0773 34.6231 10.0764C32.5781 10.0694 31.2881 9.31737 31.2881 6.71537ZM35.4641 5.97437C35.4761 4.98437 35.0771 4.28937 34.3021 4.28937C33.5271 4.28937 32.9741 4.88337 32.9021 5.97437H35.4641Z" fill="#949CA1"/>
<path d="M38.083 9.7909L38.273 8.53991C38.88 8.65613 39.4946 8.72898 40.112 8.75791C41.121 8.75791 41.412 8.44291 41.412 8.07891C41.412 7.06091 38.15 7.46091 38.15 5.10891C38.15 3.77391 39.337 3.12891 40.688 3.12891C41.3513 3.1299 42.0095 3.24456 42.634 3.46791L42.373 4.66791C41.8244 4.51481 41.2585 4.4328 40.689 4.4239C39.965 4.4239 39.721 4.75291 39.721 5.03191C39.721 6.08691 42.958 5.79591 42.958 7.98991C42.958 9.65291 41.334 10.0649 40.248 10.0649C39.5171 10.0748 38.7884 9.98255 38.083 9.7909Z" fill="#949CA1"/>
<path d="M43.9473 9.79086L44.1413 8.54186C44.7477 8.65796 45.3615 8.73081 45.9783 8.75986C46.9873 8.75986 47.2783 8.44486 47.2783 8.08086C47.2783 7.06286 44.0163 7.46286 44.0163 5.11086C44.0163 3.77586 45.2033 3.13086 46.5543 3.13086C47.2176 3.13148 47.8758 3.24615 48.5003 3.46986L48.2393 4.66986C47.6907 4.5166 47.1247 4.43459 46.5553 4.42586C45.8333 4.42586 45.5873 4.75486 45.5873 5.03386C45.5873 6.08886 48.8263 5.79786 48.8263 7.99186C48.8263 9.65486 47.2003 10.0669 46.1163 10.0669C45.3839 10.0764 44.6539 9.98349 43.9473 9.79086Z" fill="#949CA1"/>
<path d="M50.4766 8.28809H52.2556V9.92509H50.4766V8.28809Z" fill="#949CA1"/>
<path d="M56.8096 1.34786H59.8696C60.2677 1.30783 60.6698 1.35466 61.048 1.48512C61.4263 1.61557 61.7718 1.82655 62.0606 2.10348C62.3494 2.38042 62.5747 2.71672 62.7209 3.08918C62.8672 3.46164 62.9308 3.8614 62.9076 4.26086C62.9076 5.88486 61.6726 7.24486 59.2546 7.24486H58.4356V9.92586H56.8096V1.34786ZM59.3266 5.94786C60.6086 5.94786 61.2376 5.31786 61.2376 4.31086C61.271 4.08863 61.2522 3.86167 61.1827 3.64797C61.1132 3.43427 60.9948 3.23969 60.837 3.07967C60.6792 2.91965 60.4863 2.79858 60.2736 2.72606C60.0609 2.65354 59.8342 2.63156 59.6116 2.66186H58.4386V5.94886L59.3266 5.94786Z" fill="#949CA1"/>
<path d="M64.0577 3.2998H65.6297V4.1868C65.8199 3.8922 66.0766 3.64641 66.3792 3.46924C66.6818 3.29206 67.0218 3.18846 67.3717 3.1668C67.6565 3.15627 67.941 3.19311 68.2137 3.2758L67.9887 4.6108C67.7155 4.55442 67.4366 4.52993 67.1577 4.5378C66.864 4.54708 66.5757 4.61896 66.312 4.74865C66.0483 4.87834 65.8154 5.06283 65.6287 5.2898V9.9248H64.0537L64.0577 3.2998Z" fill="#949CA1"/>
<path d="M68.4336 6.67384C68.4336 4.44084 69.7336 3.13184 71.6606 3.13184C73.8196 3.13184 74.8146 4.43183 74.8146 6.61283C74.8664 7.06155 74.8198 7.51618 74.6778 7.94499C74.5358 8.37381 74.302 8.76649 73.9927 9.09564C73.6833 9.42479 73.3059 9.68248 72.8867 9.85074C72.4675 10.019 72.0166 10.0938 71.5656 10.0698C69.5606 10.0698 68.4336 8.78484 68.4336 6.67384ZM73.2136 6.61283C73.2136 5.48383 72.9056 4.41283 71.6236 4.41283C70.3416 4.41283 70.0236 5.47983 70.0236 6.62083C70.0236 7.84683 70.4106 8.76883 71.6496 8.76883C72.8886 8.76883 73.2136 7.81484 73.2136 6.61283Z" fill="#949CA1"/>
<path d="M76.5105 7.95141V4.54141H75.5615V3.29941H76.5105V1.94141H78.0765V3.29941H80.0915V4.53741H78.0765V7.93741C78.0765 8.60441 78.2895 8.68941 78.9905 8.68941C79.4119 8.66708 79.8314 8.61798 80.2465 8.54241L80.4245 9.82941C79.9671 9.97115 79.4923 10.0486 79.0135 10.0594C77.7805 10.0574 76.5105 10.0814 76.5105 7.95141Z" fill="#949CA1"/>
<path d="M81.1836 6.71569C81.1836 4.01569 82.5236 3.1377 84.3506 3.1377C86.2246 3.1377 86.9836 4.39869 86.9836 6.47369V7.05569H82.7616C82.7616 8.51069 83.6506 8.7557 84.8026 8.7557C85.3932 8.71796 85.9797 8.63268 86.5566 8.50069L86.8066 9.74969C86.0629 9.96769 85.2916 10.0778 84.5166 10.0767C82.4726 10.0697 81.1836 9.31769 81.1836 6.71569ZM85.3576 5.97469C85.3716 4.98469 84.9706 4.2897 84.1956 4.2897C83.4206 4.2897 82.8676 4.88369 82.7956 5.97469H85.3576Z" fill="#949CA1"/>
<path d="M88.014 6.57693C87.9727 6.12275 88.03 5.665 88.182 5.23504C88.3341 4.80508 88.5773 4.41307 88.895 4.08588C89.2127 3.75868 89.5974 3.50404 90.0227 3.33938C90.448 3.17473 90.9038 3.10396 91.359 3.13193C92.037 3.1016 92.7113 3.24769 93.316 3.55593L92.89 4.75593C92.4234 4.55026 91.9168 4.45087 91.407 4.46493C90.439 4.46493 89.628 5.05893 89.628 6.57593C89.628 8.04293 90.028 8.73393 91.703 8.73393C92.1501 8.72039 92.5949 8.66346 93.031 8.56393L93.256 9.81293C92.7158 9.96355 92.1579 10.0416 91.597 10.0449C89.023 10.0459 88.014 9.02593 88.014 6.57693Z" fill="#949CA1"/>
<path d="M94.8355 7.95141V4.54141H93.8965V3.29941H94.8455V1.94141H96.4115V3.29941H98.4265V4.53741H96.4015V7.93741C96.4015 8.60441 96.6145 8.68941 97.3135 8.68941C97.7355 8.66719 98.1557 8.61809 98.5715 8.54241L98.7495 9.82941C98.2921 9.97115 97.8172 10.0486 97.3385 10.0594C96.1055 10.0574 94.8355 10.0814 94.8355 7.95141Z" fill="#949CA1"/>
<path d="M99.5098 6.71537C99.5098 4.01537 100.848 3.15137 102.675 3.15137C104.543 3.15137 105.318 4.40437 105.318 6.47937V7.06137H101.086C101.086 8.51637 101.975 8.76137 103.125 8.76137C103.716 8.72166 104.303 8.63438 104.881 8.50037L105.125 9.74537C104.381 9.96337 103.61 10.0735 102.835 10.0724C100.801 10.0694 99.5098 9.31737 99.5098 6.71537ZM103.684 5.97437C103.696 4.98437 103.297 4.28937 102.522 4.28937C101.747 4.28937 101.194 4.88337 101.122 5.97437H103.684Z" fill="#949CA1"/>
<path d="M106.339 6.55139C106.301 6.09906 106.361 5.64376 106.514 5.21653C106.668 4.78929 106.911 4.40017 107.229 4.07568C107.546 3.75118 107.93 3.49895 108.354 3.33617C108.778 3.17339 109.231 3.10388 109.684 3.13239C110.027 3.12965 110.37 3.16623 110.704 3.24139V0.775391H112.288V9.92339H110.71V9.38839C110.508 9.59289 110.266 9.75505 110.001 9.86543C109.735 9.97582 109.449 10.0322 109.161 10.0314C107.917 10.0334 106.339 9.45139 106.339 6.55139ZM110.705 8.26239V4.55139C110.38 4.46013 110.043 4.41469 109.705 4.41639C108.425 4.41639 107.914 5.35139 107.914 6.59439C107.914 8.17839 108.59 8.69439 109.432 8.69439C109.885 8.65178 110.321 8.50446 110.705 8.26239Z" fill="#949CA1"/>
<path d="M114.381 8.28809H116.16V9.92509H114.381V8.28809Z" fill="#949CA1"/>
</svg>
