<svg width="370" height="90" viewBox="0 0 370 90" fill="none" xmlns="http://www.w3.org/2000/svg">
<rect width="370" height="90" rx="4" fill="url(#paint0_linear_838_377)"/>
<mask id="mask0_838_377" style="mask-type:alpha" maskUnits="userSpaceOnUse" x="0" y="0" width="370" height="90">
<rect width="370" height="90" rx="4" fill="url(#paint1_linear_838_377)"/>
</mask>
<g mask="url(#mask0_838_377)">
<path d="M554.212 -136.572L279.882 21.8129C261.059 32.6805 250.634 51.66 250.217 70.258C250.224 87.3487 260.643 109.169 268.624 122.992C276.614 136.831 290.301 156.764 305.089 165.3C321.409 174.246 343.054 174.699 361.877 163.832L636.207 5.44717C655.022 -5.41588 665.46 -24.392 665.872 -42.9979C665.866 -60.0683 655.442 -81.8962 647.452 -95.7352C639.476 -109.55 625.789 -129.484 611 -138.04C594.685 -146.978 573.028 -147.435 554.212 -136.572Z" fill="url(#paint2_linear_838_377)"/>
</g>
<mask id="mask1_838_377" style="mask-type:alpha" maskUnits="userSpaceOnUse" x="0" y="0" width="370" height="90">
<rect width="370" height="90" rx="4" fill="url(#paint3_linear_838_377)"/>
</mask>
<g mask="url(#mask1_838_377)">
<path d="M605.885 -639.329L-29.8948 -272.262C-73.519 -247.075 -97.6801 -203.089 -98.6464 -159.987C-98.6298 -120.378 -74.4819 -69.8086 -55.9858 -37.7724C-37.4686 -5.69968 -5.74818 40.4977 28.5248 60.28C66.3461 81.0125 116.509 82.0633 160.134 56.8768L795.913 -310.191C839.519 -335.367 863.709 -379.345 864.665 -422.466C864.651 -462.027 840.492 -512.615 821.975 -544.688C803.49 -576.706 771.769 -622.903 737.493 -642.733C699.683 -663.447 649.491 -664.505 605.885 -639.329Z" fill="url(#paint4_linear_838_377)"/>
</g>
<defs>
<linearGradient id="paint0_linear_838_377" x1="0" y1="0" x2="54.7056" y2="169.575" gradientUnits="userSpaceOnUse">
<stop stop-color="#FBBF01"/>
<stop offset="1" stop-color="#E98400"/>
</linearGradient>
<linearGradient id="paint1_linear_838_377" x1="7.4" y1="14.76" x2="206.27" y2="205.806" gradientUnits="userSpaceOnUse">
<stop stop-color="#659D15"/>
<stop offset="1" stop-color="#168B8F"/>
</linearGradient>
<linearGradient id="paint2_linear_838_377" x1="272" y1="26.5" x2="332.5" y2="84.5" gradientUnits="userSpaceOnUse">
<stop stop-color="#F3B200"/>
<stop offset="1" stop-color="#E77F00"/>
</linearGradient>
<linearGradient id="paint3_linear_838_377" x1="7.4" y1="14.76" x2="206.27" y2="205.806" gradientUnits="userSpaceOnUse">
<stop stop-color="#659D15"/>
<stop offset="1" stop-color="#168B8F"/>
</linearGradient>
<linearGradient id="paint4_linear_838_377" x1="18" y1="-4" x2="91.5" y2="77.5" gradientUnits="userSpaceOnUse">
<stop stop-color="#FABB01"/>
<stop offset="1" stop-color="#ED8800"/>
</linearGradient>
</defs>
</svg>
