<svg width="42" height="43" viewBox="0 0 42 43" fill="none" xmlns="http://www.w3.org/2000/svg">
<path d="M41.0288 17.5743C40.9168 13.8538 40.5161 9.83489 38.2813 6.76276C35.4332 2.84976 30.5813 1.58714 26.0996 1.09976C24.3961 0.924611 22.6845 0.839909 20.9721 0.846011C15.7886 0.858261 9.77207 1.25814 5.54145 4.74764C2.57782 7.19764 1.46483 10.9278 1.08945 14.6903C0.920284 16.7156 0.849413 18.7462 0.876829 20.782C0.876829 22.9144 0.854949 25.052 0.983574 27.1818C1.21282 30.9206 1.96445 34.8021 4.5877 37.5811C8.04833 41.2456 13.4987 42.062 18.2106 42.3061C21.6465 42.5186 25.0954 42.3425 28.4918 41.7811C30.8708 41.425 33.1552 40.599 35.2118 39.3513C38.4178 37.2775 40.0952 33.8825 40.6613 30.099C41.1522 25.9433 41.2755 21.7525 41.0297 17.5751M38.9831 26.8799C38.8081 30.1331 38.2665 33.6358 35.9923 36.0761C32.8625 39.4405 27.735 40.0583 23.4702 40.256C20.3006 40.4501 17.1193 40.2955 13.9834 39.7949C11.8002 39.4792 9.70041 38.7374 7.80333 37.6118C4.94558 35.7891 3.65232 32.7363 3.1877 29.4086C2.77659 25.5565 2.68178 21.6772 2.90421 17.8096C2.99171 14.4654 3.26032 10.8096 5.23344 8.01489C7.67119 4.56651 12.2107 3.53226 16.0835 3.13676C17.7092 2.97139 19.3393 2.91276 20.9738 2.90839H20.9799C25.6314 2.91976 31.3557 3.14289 35.155 6.34189C37.6925 8.47689 38.5963 11.738 38.8877 14.9878C39.1992 18.9449 39.2311 22.9182 38.9831 26.8799ZM22.5025 26.5045C22.9284 26.9528 23.1642 27.5486 23.1604 28.167C23.1845 28.7589 22.9737 29.3364 22.574 29.7736C22.1743 30.2108 21.618 30.4725 21.0263 30.5015H20.9598H20.9651C20.6913 30.4994 20.4209 30.4412 20.1705 30.3306C19.9201 30.22 19.695 30.0593 19.5091 29.8584C19.0849 29.398 18.848 28.7957 18.845 28.1696C18.8507 27.5538 19.0932 26.9639 19.5222 26.522C19.9132 26.1154 20.4461 25.8756 21.0097 25.8526C21.2903 25.8575 21.5672 25.9179 21.8243 26.0304C22.0814 26.1429 22.3137 26.3052 22.5077 26.508M22.625 13.4898C23.0647 14.0313 23.2998 14.7103 23.2891 15.4078C23.0706 18.1302 22.6908 20.8372 22.1516 23.5146H19.8713C19.3318 20.8376 18.9519 18.1308 18.7338 15.4086C18.7253 14.71 18.9629 14.0307 19.405 13.4898C19.5913 13.2582 19.8263 13.0705 20.0934 12.94C20.3605 12.8095 20.653 12.7394 20.9502 12.7346H21.0832C21.381 12.7394 21.6741 12.8096 21.9419 12.94C22.2097 13.0705 22.4455 13.2582 22.6328 13.4898" fill="white"/>
</svg>
