<svg width="42" height="43" viewBox="0 0 42 43" fill="none" xmlns="http://www.w3.org/2000/svg">
<path fill-rule="evenodd" clip-rule="evenodd" d="M41.0288 17.3497C40.9168 13.6292 40.5161 9.61031 38.2813 6.53819C35.4332 2.62519 30.5813 1.36256 26.0996 0.875186C24.3961 0.699692 22.6845 0.614989 20.9721 0.621436C15.7886 0.634561 9.7712 1.03444 5.54145 4.52394C2.57783 6.97044 1.46483 10.7032 1.08945 14.4666C0.920288 16.4919 0.849413 18.5225 0.876829 20.5583C0.876829 22.6907 0.854954 24.8283 0.983579 26.9581C1.21283 30.6969 1.96445 34.5784 4.5877 37.3574C8.0457 41.0219 13.4987 41.8339 18.2106 42.0789C21.6465 42.291 25.0954 42.1149 28.4918 41.5539C30.8708 41.1975 33.1551 40.3715 35.2118 39.1241C38.4178 37.0503 40.0952 33.6553 40.6613 29.8718C41.1522 25.7161 41.2755 21.5253 41.0297 17.3479M38.9813 26.6544C38.8063 29.9077 38.2647 33.4103 35.9906 35.8507C32.8607 39.2151 27.7332 39.8328 23.4685 40.0306C20.2989 40.2247 17.1175 40.07 13.9817 39.5694C11.7986 39.2533 9.69883 38.5116 7.80158 37.3863C4.94383 35.5637 3.65058 32.5108 3.18683 29.1832C2.77571 25.3311 2.68089 21.4518 2.90333 17.5842C2.99083 14.2399 3.25945 10.5842 5.23258 7.78944C7.67033 4.34106 12.2098 3.30681 16.0826 2.91131C17.7083 2.74594 19.3385 2.68731 20.973 2.68294H20.9791C25.6306 2.69431 31.3548 2.91744 35.1541 6.11644C37.6916 8.25144 38.5955 11.5126 38.8868 14.7623C39.1987 18.7194 39.2305 22.6937 38.9822 26.6553M29.8393 14.5917C30.1265 14.8722 30.2945 15.2527 30.3084 15.6539C30.3222 16.0551 30.1809 16.4463 29.9137 16.7459L23.0432 24.3759L20.2773 27.4489L19.9991 27.7578L19.6491 28.1489C19.6077 28.1964 19.5632 28.2411 19.5161 28.2828C19.3854 28.3976 19.2328 28.4848 19.0676 28.539C18.9023 28.5933 18.7277 28.6134 18.5544 28.5983C18.3811 28.5831 18.2127 28.5331 18.0593 28.451C17.9059 28.369 17.7707 28.2567 17.662 28.1209L14.4778 24.3759H14.4883L12.0585 21.5068C11.83 21.2362 11.7001 20.8961 11.6901 20.5421C11.68 20.1881 11.7905 19.8412 12.0033 19.5582C12.1192 19.4013 12.2658 19.2696 12.434 19.1709C12.6023 19.0722 12.7888 19.0087 12.9823 18.9842C13.1758 18.9597 13.3723 18.9746 13.5599 19.0281C13.7474 19.0817 13.9222 19.1727 14.0736 19.2957L18.4731 22.8158L27.8662 14.5339C28.1336 14.2956 28.4802 14.1657 28.8383 14.1694C29.1964 14.1731 29.5402 14.3103 29.8026 14.5541L29.814 14.5646L29.8393 14.5882" fill="white"/>
</svg>
