<svg width="26" height="26" viewBox="0 0 26 26" fill="none" xmlns="http://www.w3.org/2000/svg">
<path d="M13.0407 8.04981H12.9607C12.7905 8.04946 12.6223 8.08696 12.4684 8.1596C12.3145 8.23224 12.1786 8.3382 12.0707 8.46981C11.8186 8.76867 11.6836 9.14889 11.6907 9.53981C11.8202 11.0517 12.0406 12.5544 12.3507 14.0398H13.6707C13.9816 12.5549 14.1987 11.052 14.3207 9.53981C14.3231 9.14966 14.1887 8.77102 13.9407 8.46981C13.8313 8.33992 13.6951 8.23517 13.5415 8.16269C13.3879 8.09021 13.2205 8.0517 13.0507 8.04981H13.0407Z" fill="#4E5156"/>
<path d="M12.9907 15.3401C12.6602 15.3535 12.3476 15.4942 12.1184 15.7327C11.8891 15.9713 11.761 16.2892 11.7607 16.6201C11.7715 16.9657 11.9064 17.2958 12.1407 17.5501C12.249 17.664 12.3793 17.7546 12.5237 17.8165C12.6681 17.8784 12.8236 17.9103 12.9807 17.9101H13.0007C13.3348 17.8991 13.6509 17.7561 13.8796 17.5124C14.1083 17.2686 14.231 16.9442 14.2207 16.6101C14.2209 16.2671 14.0883 15.9374 13.8507 15.6901C13.623 15.461 13.3138 15.3315 12.9907 15.3301V15.3401Z" fill="#4E5156"/>
<path d="M22.9303 11.0603C23.0179 9.23195 22.5433 7.42067 21.5703 5.87027C20.1603 3.99027 17.7503 3.39027 15.5303 3.15027C14.6803 3.07027 13.8303 3.03027 12.9803 3.03027C10.4003 3.03027 7.42029 3.22027 5.32029 4.90027C4.64935 5.50528 4.1077 6.23974 3.72791 7.05946C3.34812 7.87919 3.13803 8.76726 3.11029 9.67027C3.02204 10.641 2.98865 11.6158 3.01029 12.5903C3.01029 13.6103 3.00029 14.6403 3.06029 15.6703C3.03753 17.4978 3.67287 19.2725 4.85029 20.6703C6.57029 22.4303 9.28029 22.8203 11.6103 22.9403C13.3147 23.0439 15.0253 22.9567 16.7103 22.6803C17.8858 22.5104 19.0169 22.113 20.0403 21.5103C20.7911 21.0141 21.4227 20.3576 21.8896 19.5882C22.3564 18.8188 22.647 17.9554 22.7403 17.0603C22.9901 15.0671 23.0504 13.0548 22.9203 11.0503L22.9303 11.0603ZM13.0103 17.9203H12.9903C12.8332 17.9204 12.6777 17.8886 12.5332 17.8267C12.3888 17.7648 12.2585 17.6742 12.1503 17.5603C11.9137 17.3075 11.7784 16.9764 11.7703 16.6303C11.7725 16.2888 11.909 15.9619 12.1503 15.7203C12.2601 15.6043 12.3923 15.5117 12.5389 15.4481C12.6855 15.3845 12.8434 15.3512 13.0032 15.3503C13.1629 15.3494 13.3212 15.3808 13.4685 15.4426C13.6158 15.5045 13.7491 15.5955 13.8603 15.7103C14.0979 15.9576 14.2305 16.2873 14.2303 16.6303C14.2371 16.9634 14.1133 17.286 13.8853 17.5289C13.6573 17.7719 13.3432 17.916 13.0103 17.9303V17.9203ZM12.0803 8.47027C12.1897 8.34039 12.3259 8.23563 12.4795 8.16315C12.633 8.09067 12.8005 8.05217 12.9703 8.05027H13.0503C13.2205 8.04993 13.3886 8.08743 13.5426 8.16007C13.6965 8.23271 13.8324 8.33867 13.9403 8.47027C14.1924 8.76914 14.3274 9.14935 14.3203 9.54027C14.199 11.0525 13.9819 12.5555 13.6703 14.0403H12.3503C12.0409 12.5547 11.8206 11.0521 11.6903 9.54027C11.6878 9.15013 11.8223 8.77148 12.0703 8.47027H12.0803Z" fill="#F7BF1A"/>
</svg>
