<svg width="11" height="11" viewBox="0 0 11 11" fill="none" xmlns="http://www.w3.org/2000/svg">
<path d="M9.94955 0.696773H6.51342C6.33503 0.689874 6.15765 0.757066 6.02864 0.880514C5.89879 1.00476 5.82365 1.18048 5.82365 1.36026C5.82365 1.54003 5.89878 1.71579 6.02864 1.84004C6.15765 1.96349 6.33503 2.03068 6.51342 2.02378H8.3482L5.08971 5.28225C4.89052 5.46483 4.82124 5.76728 4.92158 6.01835C4.98854 6.18588 5.12426 6.32155 5.29176 6.3885C5.54282 6.48884 5.84528 6.41955 6.02786 6.22036L9.28635 2.96189L9.28621 4.79978L9.2865 4.80639C9.29404 4.97725 9.36721 5.13863 9.4908 5.25688C9.61438 5.37513 9.77882 5.44111 9.94984 5.44111C10.1209 5.44111 10.2853 5.37513 10.4089 5.25688C10.5325 5.13863 10.6058 4.97725 10.6133 4.8064L10.6133 1.3583C10.6128 1.1879 10.5496 1.0126 10.4174 0.887687L10.4147 0.885272C10.2966 0.77895 10.1341 0.692755 9.94955 0.696773Z" fill="#187DAF"/>
<path d="M4.15264 0.727539C2.14613 0.727539 0.519531 2.35414 0.519531 4.36064V7.12676C0.519531 9.17021 2.17608 10.8268 4.21953 10.8268H6.96155C8.95403 10.8268 10.5693 9.21153 10.5693 7.21906C10.5693 6.83246 10.2558 6.51906 9.86925 6.51906C9.48265 6.51906 9.16925 6.83246 9.16925 7.21906C9.16925 8.43834 8.18083 9.42676 6.96155 9.42676H4.21953C2.94928 9.42676 1.91953 8.39701 1.91953 7.12676V4.36064C1.91953 3.12733 2.91933 2.12754 4.15264 2.12754C4.53924 2.12754 4.85264 1.81414 4.85264 1.42754C4.85264 1.04094 4.53924 0.727539 4.15264 0.727539Z" fill="#187DAF"/>
</svg>
