<svg width="22" height="22" viewBox="0 0 22 22" fill="none" xmlns="http://www.w3.org/2000/svg">
	<path
		d="M4.51001 17.0998C3.57107 15.9884 3.0666 14.5745 3.09001 13.1198C3.04001 12.3098 3.05001 11.4898 3.05001 10.6698C3.04001 9.8898 3.07001 9.1198 3.13001 8.3398C3.15092 7.62026 3.31769 6.91246 3.62022 6.25927C3.92275 5.60608 4.35474 5.02111 4.89001 4.5398C6.56001 3.2098 8.94001 3.0498 10.98 3.0498C8.93001 3.0498 6.56001 3.2098 4.88001 4.5398C4.34734 5.02324 3.9171 5.60866 3.61479 6.26138C3.31247 6.91411 3.14422 7.62087 3.12001 8.3398C3.05324 9.11458 3.02654 9.89228 3.04001 10.6698C3.04001 11.4798 3.04001 12.2998 3.08001 13.1198C3.06465 14.5732 3.56814 15.9844 4.50001 17.0998C5.87001 18.4998 8.02001 18.8098 9.88001 18.9098C8.02001 18.8198 5.87001 18.5098 4.50001 17.0998H4.51001Z"
		fill="white" />
	<path
		d="M14.52 9.21961C14.5726 9.16419 14.6137 9.09882 14.6407 9.02734C14.6677 8.95585 14.6802 8.87968 14.6774 8.8033C14.6746 8.72692 14.6566 8.65187 14.6244 8.58255C14.5922 8.51322 14.5465 8.45103 14.49 8.39961H14.47C14.3683 8.30273 14.2342 8.24706 14.0938 8.24336C13.9534 8.23967 13.8166 8.28822 13.71 8.37961L9.99999 11.5496L8.25999 10.1996C8.15132 10.1172 8.01781 10.0743 7.88148 10.0779C7.74514 10.0816 7.61412 10.1315 7.50999 10.2196C7.39511 10.322 7.32539 10.4657 7.31602 10.6193C7.30666 10.7729 7.35841 10.924 7.45999 11.0396L8.41999 12.1396L9.66999 13.5696C9.71352 13.6222 9.76712 13.6655 9.82763 13.697C9.88814 13.7286 9.95435 13.7477 10.0224 13.7533C10.0904 13.7589 10.1588 13.7508 10.2237 13.7296C10.2885 13.7083 10.3485 13.6744 10.4 13.6296C10.42 13.6096 10.44 13.5996 10.45 13.5796L10.59 13.4296L10.7 13.3096L11.8 12.1296L14.51 9.20961L14.52 9.21961Z"
		fill="white" />
	<path
		d="M18.9098 9.44988C18.9808 7.99377 18.6001 6.55129 17.8198 5.31988C16.6898 3.81988 14.7798 3.33988 13.0098 3.14988C12.3353 3.08141 11.6577 3.04803 10.9798 3.04988C8.92978 3.04988 6.55978 3.20988 4.88978 4.53988C4.3571 5.02331 3.92687 5.60873 3.62455 6.26146C3.32224 6.91419 3.15399 7.62095 3.12978 8.33988C3.063 9.11465 3.0363 9.89235 3.04978 10.6699C3.04978 11.4799 3.04978 12.2999 3.08978 13.1199C3.07441 14.5733 3.57791 15.9845 4.50978 17.0999C5.87978 18.4999 8.02978 18.8099 9.88978 18.9099C10.2298 18.9299 10.5698 18.9399 10.9098 18.9399C11.9276 18.9436 12.9441 18.8667 13.9498 18.7099C14.8861 18.5791 15.787 18.2629 16.5998 17.7799C17.1973 17.3851 17.6999 16.863 18.0717 16.2509C18.4434 15.6389 18.675 14.9521 18.7498 14.2399C18.9397 12.6507 18.9899 11.0479 18.8998 9.44988H18.9098ZM10.7098 13.3099L10.5998 13.4299L10.4598 13.5799C10.4458 13.5991 10.429 13.616 10.4098 13.6299C10.3583 13.6747 10.2984 13.7088 10.2335 13.7302C10.1686 13.7515 10.1002 13.7596 10.0321 13.754C9.96406 13.7484 9.89782 13.7292 9.83731 13.6976C9.77679 13.666 9.72323 13.6225 9.67978 13.5699L8.42978 12.1399L7.46978 11.0399C7.36819 10.9243 7.31644 10.7732 7.32581 10.6196C7.33518 10.466 7.4049 10.3223 7.51978 10.2199C7.62179 10.1275 7.7535 10.0747 7.89107 10.071C8.02865 10.0674 8.16299 10.1131 8.26978 10.1999L10.0098 11.5499L13.7198 8.37988C13.8251 8.28802 13.9601 8.2374 14.0998 8.2374C14.2395 8.2374 14.3745 8.28802 14.4798 8.37988H14.4998C14.5564 8.43231 14.6021 8.49542 14.6343 8.56557C14.6664 8.63571 14.6844 8.71152 14.6872 8.78865C14.69 8.86577 14.6775 8.94268 14.6505 9.01496C14.6235 9.08725 14.5825 9.15349 14.5298 9.20988L11.8198 12.1299L10.7198 13.3099H10.7098Z"
		fill="#649E42" />
</svg>