<svg width="43" height="18" viewBox="0 0 43 18" fill="none" xmlns="http://www.w3.org/2000/svg">
<path d="M35.5895 2.51854C37.6399 2.51854 39.3883 3.57773 40.3004 5.07879C41.105 6.47577 41.2837 8.75155 41.2837 10.2584C41.2837 11.7653 41.105 14.0428 40.3004 15.4395C39.3883 16.9404 37.6397 18 35.5895 18H5.69417C3.64309 18 1.89497 16.9404 0.982858 15.4395C0.177607 14.043 0 11.7676 0 10.2593C0 8.7509 0.177607 6.47577 0.982858 5.07857C1.89497 3.57752 3.64309 2.51833 5.69417 2.51833H35.5895V2.51854ZM39.2513 0.49477C39.559 0.169445 39.9901 -0.010097 40.4378 0.000438954C40.8801 -0.00429149 41.3045 0.175035 41.6094 0.495846C41.9283 0.802249 42.107 1.22627 42.1038 1.66835V1.6733C42.1074 2.11796 41.9287 2.54456 41.6094 2.85376C40.9566 3.50075 39.9043 3.50075 39.2513 2.85376C38.9281 2.54456 38.7488 2.11452 38.757 1.66728C38.7512 1.22455 38.9303 0.799454 39.2513 0.49477ZM39.5104 0.737958C39.2627 0.983296 39.1253 1.31873 39.1298 1.66728C39.1238 2.01625 39.2614 2.35233 39.5104 2.59659C39.7502 2.8486 40.0843 2.98858 40.432 2.9832C40.7773 2.98815 41.1086 2.84795 41.3456 2.59659C41.5963 2.35298 41.735 2.01668 41.7292 1.66728C41.7339 1.31808 41.5952 0.982221 41.3456 0.737958C41.1074 0.48961 40.776 0.352212 40.432 0.359308C40.0856 0.351782 39.7517 0.488965 39.5104 0.737958ZM40.1619 2.46135H39.7575V0.796444H40.3873C40.481 0.794079 40.575 0.799024 40.6681 0.81128C40.7423 0.819236 40.8141 0.842458 40.8786 0.879442C40.9474 0.914275 41.0059 0.96674 41.0476 1.03168C41.085 1.1022 41.1028 1.18133 41.099 1.2611C41.1048 1.36883 41.0693 1.47483 41.0001 1.55762C40.928 1.64018 40.8366 1.70361 40.7341 1.74253L41.3609 2.46135H40.833L40.3387 1.84746H40.1705L40.1617 2.46135H40.1619ZM40.1737 1.55181H40.2727C40.3316 1.55246 40.3903 1.54901 40.4485 1.54192C40.4915 1.5316 40.5328 1.51418 40.5702 1.49053C40.5971 1.46881 40.6191 1.4415 40.6345 1.41054C40.6487 1.37098 40.6554 1.32905 40.6543 1.28691C40.6543 1.25594 40.6464 1.22562 40.6307 1.19896C40.616 1.16499 40.5898 1.13725 40.5565 1.12091C40.5227 1.10435 40.4862 1.09511 40.4488 1.09317C40.4004 1.08565 40.3513 1.08264 40.3023 1.08436H40.1707L40.1737 1.55203V1.55181Z" fill="#0096A1"/>
<path d="M25.5863 9.40772C25.6145 8.41863 25.8029 8.0918 26.8113 8.0918C27.6413 8.0918 28.1027 8.17824 28.1027 9.32967V9.40794L25.5863 9.40772ZM7.92027 8.16727C6.94408 8.16727 6.74734 8.46787 6.72003 9.43653H9.18868V9.3817C9.18868 8.24855 8.74444 8.16727 7.92027 8.16727ZM4.43178 10.3037C4.43178 7.50716 5.0547 6.60171 7.9622 6.60171C10.6777 6.60171 11.4776 7.3431 11.4776 10.3037V10.6535H6.72024V10.7088C6.72024 12.003 6.92279 12.4262 7.9622 12.4262C8.6823 12.4262 9.20588 12.347 9.22996 11.5738H11.4776C11.4655 12.6294 11.1114 13.2207 10.516 13.5666C9.90147 13.9077 9.02268 13.9915 7.9622 13.9915C5.10996 13.9915 4.43178 13.0168 4.43178 10.3037ZM12.993 8.94865C12.993 6.64751 14.476 6.60171 16.523 6.60171C17.8869 6.60171 19.7038 6.62536 19.7038 8.36165V8.65601H17.5472C17.4427 8.08255 16.9838 8.04105 16.523 8.04105C15.2662 8.04105 15.2125 8.19694 15.2125 8.68375C15.2125 9.09379 15.2851 9.35332 16.5222 9.38084C19.013 9.43718 20.0532 9.57952 20.0532 11.5747C20.0532 13.6692 18.4522 13.9915 16.523 13.9915C16.0504 13.9915 15.59 13.9943 15.1667 13.9614C13.7675 13.8498 13.0107 13.3269 12.993 11.728H15.2828C15.3103 12.5391 15.9218 12.5524 16.523 12.5524C17.6033 12.5524 17.8338 12.4844 17.8338 11.8547C17.8338 11.4788 17.7239 11.2711 17.487 11.1677C17.2315 11.0567 16.797 11.0718 16.5228 11.0718C13.4919 11.0718 12.9928 10.3953 12.9928 8.94844M31.7755 8.25048H33.449V13.9107H35.7377V8.25048H37.4094V6.60149H31.7755V8.25048ZM23.3456 10.2515C23.3456 12.9541 24.015 13.9163 26.8522 13.9163C27.9126 13.9163 28.7867 13.8315 29.3946 13.4933C29.9771 13.1557 30.3273 12.578 30.3445 11.5452H28.1425C28.1087 12.3187 27.565 12.3976 26.8522 12.3976C25.793 12.3976 25.5883 11.9544 25.5883 10.6566V10.5774H30.3452V10.2515C30.3452 7.30353 29.5552 6.57225 26.8522 6.57225C23.9595 6.57225 23.3456 7.4648 23.3456 10.2515ZM2.75527 15.27C3.48161 16.0516 4.8773 16.6363 6.07239 16.6386H21.4889V3.87912H6.0726C4.87752 3.88149 3.48182 4.46656 2.75548 5.24772C1.60814 6.48151 1.35742 8.4182 1.35742 10.2596C1.35742 12.1011 1.60792 14.0365 2.75548 15.2702" fill="white"/>
</svg>
