<svg width="22" height="22" viewBox="0 0 22 22" fill="none" xmlns="http://www.w3.org/2000/svg">
<path d="M11.0297 7.06H10.9697C10.8346 7.06062 10.7012 7.09043 10.5786 7.14738C10.4561 7.20434 10.3473 7.2871 10.2597 7.39C10.0601 7.62832 9.95036 7.92912 9.94971 8.24C10.0529 9.44247 10.2265 10.6379 10.4697 11.82H11.5197C11.7677 10.6387 11.9414 9.44304 12.0397 8.24C12.0391 7.92912 11.9293 7.62832 11.7297 7.39C11.6428 7.28627 11.5342 7.20293 11.4115 7.1459C11.2888 7.08886 11.155 7.05954 11.0197 7.06H11.0297Z" fill="#4E5156"/>
<path d="M10.9998 12.86C10.7457 12.868 10.505 12.9758 10.3298 13.16C10.2316 13.2546 10.1536 13.368 10.1003 13.4934C10.047 13.6188 10.0195 13.7537 10.0195 13.89C10.0195 14.0263 10.047 14.1612 10.1003 14.2866C10.1536 14.412 10.2316 14.5254 10.3298 14.62C10.4144 14.7105 10.5166 14.7828 10.63 14.8326C10.7435 14.8825 10.8659 14.9088 10.9898 14.91H11.0098C11.1411 14.9061 11.2704 14.8764 11.3902 14.8225C11.5101 14.7686 11.6181 14.6917 11.7082 14.596C11.7983 14.5004 11.8686 14.3879 11.9152 14.265C11.9618 14.1422 11.9838 14.0113 11.9798 13.88C11.9789 13.6068 11.8712 13.3448 11.6798 13.15C11.4996 12.9683 11.2556 12.8642 10.9998 12.86Z" fill="#4E5156"/>
<path d="M18.8998 9.44999C18.9695 7.99539 18.5926 6.55426 17.8198 5.31999C16.6998 3.81999 14.7798 3.33999 13.0098 3.15999C12.3353 3.09177 11.6577 3.05839 10.9798 3.05999C8.92978 3.05999 6.54978 3.20999 4.88978 4.54999C4.35626 5.03274 3.92545 5.61801 3.62307 6.27088C3.32068 6.92376 3.15292 7.63086 3.12978 8.34999C3.063 9.12476 3.0363 9.90247 3.04978 10.68C3.04978 11.49 3.04978 12.32 3.08978 13.13C3.07274 14.5836 3.57643 15.9954 4.50978 17.11C5.87978 18.51 8.02978 18.82 9.88978 18.92C11.2464 18.9987 12.6075 18.9316 13.9498 18.72C14.885 18.5846 15.785 18.2687 16.5998 17.79C17.1973 17.3953 17.6999 16.8731 18.0717 16.261C18.4434 15.649 18.675 14.9622 18.7498 14.25C18.9445 12.6645 18.9947 11.0646 18.8998 9.46999V9.44999ZM10.9998 14.91H10.9798C10.8555 14.9111 10.7324 14.8858 10.6187 14.8358C10.5049 14.7858 10.403 14.7122 10.3198 14.62C10.1308 14.4186 10.0207 14.1559 10.0098 13.88C10.0098 13.7452 10.0373 13.6119 10.0906 13.4881C10.1439 13.3643 10.2219 13.2527 10.3198 13.16C10.4977 12.9797 10.7368 12.8726 10.9898 12.86C11.1166 12.8611 11.242 12.8873 11.3587 12.9371C11.4754 12.9868 11.5812 13.0592 11.6698 13.15C11.8597 13.3459 11.9671 13.6072 11.9698 13.88C11.9738 14.0113 11.9519 14.1422 11.9053 14.265C11.8587 14.3879 11.7883 14.5004 11.6982 14.596C11.6081 14.6917 11.5001 14.7686 11.3802 14.8225C11.2604 14.8764 11.1311 14.9061 10.9998 14.91ZM10.2598 7.38999C10.3467 7.28626 10.4553 7.20292 10.578 7.14588C10.7007 7.08885 10.8345 7.05953 10.9698 7.05999H11.0298C11.1649 7.06061 11.2983 7.09041 11.4209 7.14737C11.5434 7.20433 11.6522 7.28709 11.7398 7.38999C11.9394 7.62831 12.0491 7.92911 12.0498 8.23999C11.9515 9.44303 11.7778 10.6387 11.5298 11.82H10.4798C10.2366 10.6378 10.063 9.44246 9.95978 8.23999C9.96043 7.92911 10.0701 7.62831 10.2698 7.38999H10.2598Z" fill="#F7BF1A"/>
</svg>
