<svg width="22" height="22" viewBox="0 0 22 22" fill="none" xmlns="http://www.w3.org/2000/svg">
	<path
		d="M11.0002 13.7607C10.8742 13.7637 10.75 13.7918 10.635 13.8433C10.5199 13.8948 10.4163 13.9688 10.3302 14.0607C10.232 14.1563 10.154 14.2706 10.1007 14.3969C10.0475 14.5231 10.02 14.6587 10.02 14.7957C10.02 14.9328 10.0475 15.0684 10.1007 15.1946C10.154 15.3209 10.232 15.4351 10.3302 15.5307C10.4148 15.6212 10.517 15.6936 10.6304 15.7434C10.7439 15.7932 10.8663 15.8196 10.9902 15.8207H11.0102C11.1415 15.8169 11.2708 15.7871 11.3906 15.7333C11.5105 15.6794 11.6185 15.6024 11.7086 15.5068C11.7987 15.4111 11.8691 15.2986 11.9156 15.1758C11.9622 15.0529 11.9842 14.9221 11.9802 14.7907C11.9793 14.5176 11.8717 14.2556 11.6802 14.0607C11.5 13.879 11.256 13.7749 11.0002 13.7707V13.7607Z"
		fill="white" />
	<path
		d="M11.0302 7.96002H10.9702C10.8351 7.96063 10.7017 7.99044 10.5791 8.0474C10.4566 8.10435 10.3478 8.18712 10.2602 8.29002C10.0606 8.52833 9.95085 8.82913 9.9502 9.14002C10.0518 10.3433 10.2289 11.5389 10.4802 12.72H11.5302C11.7782 11.5387 11.9519 10.3431 12.0502 9.14002C12.0495 8.82913 11.9398 8.52833 11.7402 8.29002C11.654 8.18547 11.5455 8.10157 11.4226 8.04446C11.2998 7.98736 11.1657 7.9585 11.0302 7.96002Z"
		fill="white" />
	<path
		d="M10.9803 3.95043C11.2577 3.96556 11.5267 4.05167 11.7613 4.2005C11.9959 4.34933 12.1884 4.5559 12.3203 4.80043L19.0703 15.9104C19.1386 16.0184 19.1893 16.1365 19.2203 16.2604C19.185 16.138 19.1346 16.0204 19.0703 15.9104L12.3203 4.79043C12.1884 4.5459 11.9959 4.33933 11.7613 4.1905C11.5267 4.04167 11.2577 3.95556 10.9803 3.94043V3.95043Z"
		fill="#D52C29" />
	<path d="M19.2202 16.25C19.2499 16.3716 19.27 16.4953 19.2802 16.62C19.2806 16.4942 19.2604 16.3692 19.2202 16.25Z"
		fill="#D52C29" />
	<path
		d="M19.07 15.9104L12.32 4.79043C12.1881 4.5459 11.9956 4.33933 11.7609 4.1905C11.5263 4.04167 11.2574 3.95556 10.98 3.94043C10.7036 3.95446 10.4356 4.04021 10.2024 4.18925C9.96918 4.33829 9.7788 4.54548 9.64998 4.79043L3.00998 15.7604C2.92945 15.8669 2.8654 15.9849 2.81998 16.1104C2.77115 16.2354 2.74083 16.3667 2.72998 16.5004C2.73859 16.3664 2.76899 16.2347 2.81998 16.1104C2.86718 15.9826 2.93107 15.8615 3.00998 15.7504L9.63998 4.80043C9.83357 4.43071 10.1636 4.15093 10.56 4.02043C10.3629 4.08362 10.1802 4.18504 10.0224 4.31887C9.8645 4.45271 9.73456 4.61635 9.63998 4.80043L3.00998 15.7604C2.84883 15.9796 2.75187 16.2393 2.72998 16.5104V16.5304C2.75988 16.2611 2.85609 16.0034 3.00998 15.7804L9.63998 4.82043C9.76712 4.57413 9.95709 4.3658 10.1906 4.21653C10.4242 4.06727 10.6931 3.98237 10.97 3.97043C11.2474 3.98566 11.5163 4.0718 11.7509 4.22062C11.9855 4.36944 12.178 4.57596 12.31 4.82043L19.06 15.9304C19.1868 16.1464 19.2589 16.3902 19.27 16.6404C19.2701 16.379 19.1974 16.1228 19.06 15.9004L19.07 15.9104Z"
		fill="#E04239" />
	<path
		d="M19.0702 15.9307L12.3202 4.8207C12.1883 4.57617 11.9958 4.3696 11.7612 4.22077C11.5266 4.07194 11.2577 3.98584 10.9802 3.9707C10.7035 3.98345 10.435 4.06867 10.2016 4.21785C9.96813 4.36703 9.77801 4.57492 9.65022 4.8207L3.01022 15.7807C2.84906 15.9999 2.75211 16.2596 2.73022 16.5307C2.70149 16.802 2.75002 17.0758 2.87022 17.3207C3.03017 17.5667 3.25471 17.764 3.51927 17.891C3.78382 18.018 4.07821 18.0698 4.37022 18.0407H17.6002C17.8884 18.0693 18.179 18.0225 18.4437 17.9051C18.7084 17.7876 18.938 17.6035 19.1102 17.3707C19.2309 17.1433 19.2896 16.888 19.2802 16.6307C19.2752 16.3795 19.2027 16.1342 19.0702 15.9207V15.9307ZM10.0102 14.7807C10.0111 14.6446 10.039 14.51 10.0922 14.3847C10.1454 14.2594 10.2229 14.1459 10.3202 14.0507C10.4981 13.8704 10.7372 13.7633 10.9902 13.7507C11.1171 13.7518 11.2425 13.778 11.3592 13.8278C11.4759 13.8775 11.5816 13.9499 11.6702 14.0407C11.8601 14.2366 11.9675 14.4979 11.9702 14.7707C11.9742 14.902 11.9523 15.0329 11.9057 15.1557C11.8591 15.2786 11.7888 15.3911 11.6987 15.4867C11.6086 15.5824 11.5005 15.6593 11.3807 15.7132C11.2608 15.7671 11.1316 15.7968 11.0002 15.8007H10.9802C10.856 15.8018 10.7329 15.7765 10.6191 15.7265C10.5054 15.6765 10.4035 15.6029 10.3202 15.5107C10.1312 15.3093 10.0212 15.0466 10.0102 14.7707V14.7807ZM10.2502 8.2907C10.3371 8.18697 10.4457 8.10363 10.5684 8.0466C10.6912 7.98956 10.8249 7.96024 10.9602 7.9607H11.0202C11.1553 7.96132 11.2888 7.99113 11.4113 8.04808C11.5338 8.10504 11.6426 8.1878 11.7302 8.2907C11.9299 8.52902 12.0396 8.82982 12.0402 9.1407C11.9419 10.3437 11.7683 11.5394 11.5202 12.7207H10.4702C10.2238 11.5387 10.0468 10.3434 9.94022 9.1407C9.94087 8.82982 10.0506 8.52902 10.2502 8.2907Z"
		fill="#E04239" />
	<path
		d="M2.81998 16.1201C2.77115 16.245 2.74083 16.3764 2.72998 16.5101C2.73859 16.3761 2.76899 16.2444 2.81998 16.1201Z"
		fill="#E04239" />
	<path
		d="M9.64031 4.8002L3.01031 15.7602C2.92764 15.8689 2.86345 15.9906 2.82031 16.1202C2.8654 15.9945 2.92947 15.8765 3.01031 15.7702L9.64031 4.8002C9.76746 4.5539 9.95742 4.34557 10.191 4.1963C10.4245 4.04703 10.6934 3.96213 10.9703 3.9502C10.8309 3.95313 10.6928 3.97672 10.5603 4.0202C10.3632 4.08339 10.1805 4.1848 10.0227 4.31864C9.86483 4.45248 9.73489 4.61611 9.64031 4.8002Z"
		fill="#E04239" />
</svg>